SplineFontDB: 3.0
FontName: Norasi
FullName: Norasi
FamilyName: Norasi
Weight: Regular
Copyright: Copyright (C) 1999, The National Font Project (v.beta). Yannis Haralambous, Virach Sornlertlamvanich and Anutara Tantraporn. All rights reserved.\n\nModified under GNU General Public License, with creators' permission, by Thai Linux Working Group (TLWG).
Version: 004.009: 2008-05-16
ItalicAngle: 0
UnderlinePosition: -100
UnderlineWidth: 50
Ascent: 800
Descent: 200
LayerCount: 2
Layer: 0 0 "Back" 
Layer: 1 0 "Fore" 
NeedsXUIDChange: 1
FSType: 0
OS2Version: 0
OS2_WeightWidthSlopeOnly: 0
OS2_UseTypoMetrics: 0
CreationTime: 1153665735
ModificationTime: 1210989693
PfmFamily: 17
TTFWeight: 400
TTFWidth: 5
LineGap: 0
VLineGap: 0
Panose: 2 7 5 6 6 0 0 2 0 4
OS2TypoAscent: 0
OS2TypoAOffset: 1
OS2TypoDescent: 0
OS2TypoDOffset: 1
OS2TypoLinegap: 0
OS2WinAscent: 1216
OS2WinAOffset: 0
OS2WinDescent: 488
OS2WinDOffset: 0
HheadAscent: 1216
HheadAOffset: 0
HheadDescent: -488
HheadDOffset: 0
OS2Vendor: 'PfEd'
Lookup: 4 0 1 "'liga' Standard Ligatures in Latin lookup 1"  {"'liga' Standard Ligatures in Latin lookup 1 subtable"  } ['liga' ('latn' <'dflt' > ) ]
Lookup: 4 0 1 "'liga' Standard Ligatures lookup 0"  {"'liga' Standard Ligatures lookup 0 subtable"  } ['liga' ('DFLT' <'dflt' > ) ]
Lookup: 4 0 0 "'frac' Diagonal Fractions lookup 2"  {"'frac' Diagonal Fractions lookup 2 subtable"  } ['frac' ('DFLT' <'dflt' > ) ]
Lookup: 6 0 0 "'ccmp' Thai General Composition"  {"'ccmp' Thai Below Vowel Tone Reordering"  "'ccmp' Thai General Composition"  } ['ccmp' ('DFLT' <'dflt' > 'thai' <'KUY ' 'PAL ' 'THA ' 'dflt' > ) ]
Lookup: 6 0 0 "'ccmp' Thai Conditional Descender Removal"  {"'ccmp' Thai Conditional Descender Removal"  } ['ccmp' ('DFLT' <'dflt' > 'thai' <'KUY ' 'PAL ' 'THA ' 'dflt' > ) ]
Lookup: 5 0 0 "Required Thai Descender Removal"  {"Required Thai Descender Removal"  } [' RQD' ('thai' <'PAL ' > ) ]

StartChar: .notdef
Encoding: 0 -1 0
Width: 366
Flags: W
HStem: 0 22<22 344> 542 22<22 344>
VStem: 0 22<22 542> 344 22<22 542>
LayerCount: 2
Fore
SplineSet
22 542 m 1
 22 22 l 1
 344 22 l 1
 344 542 l 1
 22 542 l 1
366 0 m 1
 0 0 l 1
 0 564 l 1
 366 564 l 1
 366 0 l 1
EndSplineSet
EndChar

StartChar: exclam
Encoding: 33 33 1
Width: 332
Flags: W
HStem: -9 107<140.021 224.965> 657 20G<166 200>
VStem: 130 106<0.886841 86.0782 557.169 664.713>
LayerCount: 2
Fore
SplineSet
189 176 m 1
 176 176 l 1
 167 284 l 2
 166 309 160 362 149 422 c 0
 139 494 130 576 130 599 c 0
 130 646 149 677 183 677 c 0
 217 677 236 647 236 596 c 0
 236 582 234 571 234 560 c 1
 189 176 l 1
183 98 m 0
 212 98 237 73 237 42 c 0
 237 13 214 -9 182 -9 c 0
 152 -9 130 13 130 42 c 0
 130 75 152 98 183 98 c 0
EndSplineSet
EndChar

StartChar: quotedbl
Encoding: 34 34 2
Width: 407
Flags: W
HStem: 657 20G<108.5 132 277 300.5>
VStem: 78 85<607.406 671.428> 246 85<607.406 671.428>
LayerCount: 2
Fore
SplineSet
299 431 m 1
 278 431 l 1
 261 521 246 620 246 636 c 0
 246 658 265 677 289 677 c 0
 312 677 331 658 331 636 c 0
 331 606 322 546 306 472 c 1
 299 431 l 1
130 431 m 1
 108 431 l 1
 92 521 78 620 78 636 c 0
 78 658 97 677 120 677 c 0
 144 677 163 658 163 636 c 0
 163 606 152 546 138 472 c 1
 130 431 l 1
EndSplineSet
EndChar

StartChar: numbersign
Encoding: 35 35 3
Width: 499
Flags: W
HStem: 0 21G<79 140.977 272 333.884> 215 56<4 111 179 305 371 472> 406 54<32 142 208 333 398 497> 642 20G<178.733 239 368.03 429>
LayerCount: 2
Fore
SplineSet
472 271 m 1
 472 215 l 1
 362 215 l 1
 331 0 l 1
 272 0 l 1
 305 215 l 1
 170 215 l 1
 138 0 l 1
 79 0 l 1
 111 215 l 1
 4 215 l 1
 4 271 l 1
 122 271 l 1
 142 406 l 1
 32 406 l 1
 32 460 l 1
 149 460 l 1
 182 662 l 1
 239 662 l 1
 208 460 l 1
 341 460 l 1
 371 662 l 1
 429 662 l 1
 398 460 l 1
 497 460 l 1
 497 406 l 1
 391 406 l 1
 371 271 l 1
 472 271 l 1
333 406 m 1
 201 406 l 1
 179 271 l 1
 313 271 l 1
 333 406 l 1
EndSplineSet
EndChar

StartChar: dollar
Encoding: 36 36 4
Width: 499
Flags: W
HStem: 0 28<141.608 230>
VStem: 53 73<472.809 587.139> 229 35<-86 0 28 293 407 637 664 727> 378 79<88.0454 219.486>
LayerCount: 2
Fore
SplineSet
425 499 m 1
 410 499 l 1
 393 584 349 627 264 637 c 1
 264 391 l 1
 385 321 412 302 437 261 c 0
 450 240 457 204 457 170 c 0
 457 122 438 81 406 53 c 0
 369 23 338 12 264 0 c 1
 264 -86 l 1
 230 -86 l 1
 230 0 l 1
 146 3 104 15 44 51 c 1
 44 182 l 1
 59 182 l 1
 83 76 136 29 230 28 c 1
 230 311 l 1
 160 350 138 365 108 393 c 0
 67 431 53 464 53 513 c 0
 53 555 72 595 105 623 c 0
 139 647 167 658 230 664 c 1
 230 727 l 1
 264 727 l 1
 264 664 l 1
 349 655 391 639 425 611 c 1
 425 499 l 1
229 407 m 1
 229 637 l 1
 160 623 126 589 126 535 c 0
 126 488 146 463 229 407 c 1
264 293 m 1
 264 28 l 1
 343 42 378 81 378 146 c 0
 378 208 357 234 264 293 c 1
EndSplineSet
EndChar

StartChar: percent
Encoding: 37 37 5
Width: 832
Flags: W
HStem: 0 29<539.834 647.189> 289 35<149.959 256.294> 338 33<621.643 723.613> 583 25<391.998 524.565> 633 29<235.117 303.481>
VStem: 62 76<342.213 486.712> 359 25<472.877 576.103> 450 74<49.1881 192.832> 746 26<180.14 312.278>
LayerCount: 2
Fore
SplineSet
669 371 m 0
 734 371 772 333 772 264 c 0
 772 186 740 105 686 51 c 0
 650 16 614 0 570 0 c 0
 497 0 450 51 450 129 c 0
 450 253 557 371 669 371 c 0
677 338 m 0
 645 338 617 321 590 281 c 0
 554 229 524 146 524 94 c 0
 524 56 551 29 586 29 c 0
 623 29 650 47 683 86 c 0
 721 133 746 202 746 259 c 0
 746 303 715 338 677 338 c 0
634 677 m 1
 249 -13 l 1
 201 -13 l 1
 552 614 l 1
 513 590 486 583 442 583 c 0
 413 583 395 586 376 593 c 1
 382 576 384 562 384 549 c 0
 384 476 352 397 300 344 c 0
 267 309 223 289 179 289 c 0
 114 289 62 346 62 416 c 0
 62 543 168 662 283 662 c 0
 313 662 327 658 352 636 c 0
 376 615 398 608 439 608 c 0
 501 608 541 625 595 677 c 1
 634 677 l 1
350 601 m 1
 321 608 309 614 294 625 c 0
 289 631 287 633 283 633 c 0
 250 633 212 598 185 543 c 0
 157 494 138 426 138 384 c 0
 138 349 161 324 196 324 c 0
 277 324 359 438 359 551 c 0
 359 565 356 580 350 601 c 1
EndSplineSet
EndChar

StartChar: ampersand
Encoding: 38 38 6
Width: 777
Flags: W
HStem: -13 53<197.086 324.318> -13 72<567.102 675.437> 406 20<495 517.617> 645 32<305.47 411.392>
VStem: 42 91<104.938 227.871> 202 79<457.95 600.551> 438 53<491.585 619.239>
LayerCount: 2
Fore
SplineSet
710 426 m 1xbe
 710 406 l 1
 661 398 642 387 617 346 c 2
 592 300 l 2
 560 246 535 209 491 149 c 1
 538 89 589 59 645 59 c 0
 681 59 703 70 735 111 c 1
 750 100 l 1
 721 29 664 -13 599 -13 c 0x7e
 541 -13 492 13 429 78 c 1
 354 12 294 -13 212 -13 c 0
 107 -13 42 44 42 139 c 0
 42 223 92 294 199 354 c 2
 237 376 l 1
 209 453 202 483 202 521 c 0
 202 608 270 677 356 677 c 0
 435 677 491 625 491 555 c 0
 491 521 478 488 457 464 c 0
 429 434 404 416 335 384 c 1
 379 297 412 248 469 179 c 1
 532 264 560 316 560 360 c 0
 560 390 545 400 495 406 c 1
 495 426 l 1
 710 426 l 1xbe
321 416 m 1
 403 460 438 502 438 560 c 0
 438 608 404 645 357 645 c 0
 312 645 281 609 281 562 c 0
 281 517 291 479 321 416 c 1
252 343 m 1
 166 287 133 245 133 180 c 0
 133 103 193 40 264 40 c 0xbe
 305 40 346 57 404 104 c 1
 347 174 312 229 252 343 c 1
EndSplineSet
EndChar

StartChar: quotesingle
Encoding: 39 39 7
Width: 238
Flags: W
HStem: 657 20G<108.5 132>
VStem: 78 85<607.406 671.428>
LayerCount: 2
Fore
SplineSet
130 431 m 1
 108 431 l 1
 92 521 78 620 78 636 c 0
 78 658 97 677 120 677 c 0
 144 677 163 658 163 636 c 0
 163 606 152 546 138 472 c 1
 130 431 l 1
EndSplineSet
EndChar

StartChar: parenleft
Encoding: 40 40 8
Width: 332
Flags: W
HStem: 657 20G<257.5 307.75>
VStem: 48 85<103.346 400.264>
LayerCount: 2
Fore
SplineSet
294 677 m 1
 305 661 l 1
 231 602 202 565 174 504 c 0
 146 442 133 360 133 255 c 0
 133 155 145 79 168 12 c 0
 196 -63 224 -98 305 -161 c 1
 291 -177 l 1
 240 -145 214 -123 173 -75 c 0
 85 26 48 125 48 252 c 0
 48 369 83 469 154 557 c 0
 190 602 221 628 294 677 c 1
EndSplineSet
EndChar

StartChar: parenright
Encoding: 41 41 9
Width: 332
Flags: W
HStem: 657 20G<26 66.5>
VStem: 199 87<101.604 395.942>
LayerCount: 2
Fore
SplineSet
38 -177 m 1
 29 -161 l 1
 101 -103 130 -67 160 -4 c 0
 186 57 199 141 199 245 c 0
 199 344 187 420 164 488 c 0
 136 562 108 598 29 661 c 1
 41 677 l 1
 92 645 119 623 160 574 c 0
 248 472 286 375 286 248 c 0
 286 130 250 29 179 -57 c 0
 142 -103 111 -129 38 -177 c 1
EndSplineSet
EndChar

StartChar: asterisk
Encoding: 42 42 10
Width: 499
Flags: W
HStem: 657 20G<240.5 260.5>
VStem: 215 72<270.048 320.524 620.232 673.801> 242 19<404.1 456 486 533.753>
LayerCount: 2
Fore
SplineSet
242 450 m 1xa0
 242 456 l 1
 207 434 199 429 189 420 c 0
 182 413 176 409 146 375 c 0
 130 356 122 352 105 352 c 0
 83 352 69 365 69 387 c 0
 69 412 86 423 130 431 c 0
 177 439 193 447 234 472 c 1
 223 478 l 2
 204 491 174 501 138 508 c 0
 89 517 69 532 69 555 c 0
 69 576 83 592 103 592 c 0
 119 592 130 583 151 560 c 1
 185 523 204 507 242 486 c 1
 242 499 l 2xa0
 242 526 236 557 226 590 c 0
 220 611 215 628 215 642 c 0
 215 661 231 677 250 677 c 0
 271 677 287 661 287 639 c 0xc0
 287 628 283 612 277 593 c 0
 267 562 261 535 261 510 c 2
 261 483 l 1
 267 488 l 2
 289 499 313 521 338 552 c 0
 363 580 379 593 395 593 c 0
 416 593 431 577 431 554 c 0
 431 529 417 519 379 513 c 0
 335 505 316 498 268 470 c 1
 275 464 l 2
 302 450 334 437 374 431 c 0
 417 423 432 413 432 387 c 0
 432 365 417 350 397 350 c 0
 379 350 362 362 337 393 c 0
 311 426 289 444 267 453 c 2
 261 456 l 1
 261 450 l 2
 261 410 267 372 280 337 c 0
 286 324 289 311 289 305 c 0
 289 284 270 265 249 265 c 0
 230 265 214 283 214 302 c 0
 214 313 218 330 226 349 c 0
 239 382 245 412 242 432 c 1
 242 450 l 1xa0
EndSplineSet
EndChar

StartChar: plus
Encoding: 43 43 11
Width: 563
Flags: W
HStem: 0 21G<249 315> 220 66<29 249 315 535>
VStem: 249 66<0 220 286 505>
LayerCount: 2
Fore
SplineSet
249 286 m 1
 249 505 l 1
 315 505 l 1
 315 286 l 1
 535 286 l 1
 535 220 l 1
 315 220 l 1
 315 0 l 1
 249 0 l 1
 249 220 l 1
 29 220 l 1
 29 286 l 1
 249 286 l 1
EndSplineSet
EndChar

StartChar: comma
Encoding: 44 44 12
Width: 249
Flags: W
HStem: -4 107<68.4534 141.954>
VStem: 157 38<-58.735 38>
LayerCount: 2
Fore
SplineSet
83 -141 m 1
 75 -122 l 1
 127 -85 157 -48 157 -16 c 0
 157 -7 149 -1 142 -1 c 0
 141 -1 141 -1 133 -4 c 0
 127 -4 122 -6 116 -6 c 0
 79 -6 56 13 56 45 c 0
 56 79 81 103 116 103 c 0
 160 103 195 63 195 13 c 0
 195 -47 149 -108 83 -141 c 1
EndSplineSet
EndChar

StartChar: hyphen
Encoding: 45 45 13
Width: 332
Flags: W
HStem: 193 63<40 286>
LayerCount: 2
Fore
SplineSet
40 256 m 1
 286 256 l 1
 286 193 l 1
 40 193 l 1
 40 256 l 1
EndSplineSet
EndChar

StartChar: period
Encoding: 46 46 14
Width: 249
Flags: W
HStem: -12 112<81.8467 169.386>
VStem: 70 112<1.24292 87.0681>
LayerCount: 2
Fore
SplineSet
125 100 m 0
 155 100 182 75 182 42 c 0
 182 15 155 -12 125 -12 c 0
 95 -12 70 15 70 42 c 0
 70 75 95 100 125 100 c 0
EndSplineSet
EndChar

StartChar: slash
Encoding: 47 47 15
Width: 276
Flags: W
HStem: -15 21G<-9 65.5896> 657 20G<213.382 287>
VStem: -9 296<-15 677>
LayerCount: 2
Fore
SplineSet
287 677 m 1
 59 -15 l 1
 -9 -15 l 1
 220 677 l 1
 287 677 l 1
EndSplineSet
EndChar

StartChar: zero
Encoding: 48 48 16
Width: 499
Flags: W
HStem: -15 27<193.18 306.277> 650 27<197.123 301.725>
VStem: 23 97<181.212 482.574> 379 97<174.721 487.507>
LayerCount: 2
Fore
SplineSet
253 677 m 0
 385 677 476 535 476 330 c 0
 476 209 438 92 379 38 c 0
 344 3 302 -15 250 -15 c 0
 192 -15 141 10 104 54 c 0
 57 110 23 227 23 335 c 0
 23 453 62 568 120 624 c 0
 157 659 199 677 253 677 c 0
250 650 m 0
 166 650 120 539 120 327 c 0
 120 119 164 12 250 12 c 0
 335 12 379 119 379 328 c 0
 379 538 335 650 250 650 c 0
EndSplineSet
EndChar

StartChar: one
Encoding: 49 49 17
Width: 499
Flags: W
HStem: 0 15<119 160.708 307.381 394> 657 20G<252.29 344.333>
VStem: 212 87<28.8846 592.334>
LayerCount: 2
Fore
SplineSet
291 677 m 1
 299 674 l 1
 299 75 l 2
 299 26 315 16 394 15 c 1
 394 0 l 1
 119 0 l 1
 119 15 l 1
 160 16 174 19 189 28 c 0
 205 37 212 60 212 92 c 2
 212 546 l 2
 212 579 204 593 183 593 c 0
 173 593 157 589 138 582 c 0
 133 580 123 576 111 571 c 1
 111 584 l 1
 291 677 l 1
EndSplineSet
EndChar

StartChar: two
Encoding: 50 50 18
Width: 499
Flags: W
HStem: 0 76<127 368> 602 75<148.769 276.369>
VStem: 338 85<400.107 539.718>
LayerCount: 2
Fore
SplineSet
475 138 m 1
 420 0 l 1
 29 0 l 1
 29 12 l 1
 208 201 l 2
 291 290 338 384 338 461 c 0
 338 545 281 602 198 602 c 0
 127 602 92 570 53 472 c 1
 31 478 l 1
 48 548 63 580 95 614 c 0
 132 655 185 677 239 677 c 0
 343 677 423 599 423 499 c 0
 423 420 385 346 296 252 c 2
 127 76 l 1
 368 76 l 2
 412 76 425 85 461 142 c 1
 475 138 l 1
EndSplineSet
EndChar

StartChar: three
Encoding: 51 51 19
Width: 499
Flags: W
HStem: -15 37<121.5 276.566> 617 60<152.93 278.881>
VStem: 319 79<466.723 575.391> 360 72<121.652 252.445>
LayerCount: 2
Fore
SplineSet
152 330 m 1xd0
 152 343 l 1
 221 368 249 382 278 412 c 0
 305 437 319 473 319 510 c 0
 319 573 274 617 209 617 c 0
 146 617 101 583 60 510 c 1
 45 514 l 1
 67 574 82 601 111 627 c 0
 148 659 192 677 242 677 c 0
 334 677 398 620 398 539 c 0xe0
 398 485 374 448 305 401 c 1
 349 382 368 371 387 349 c 0
 416 316 432 270 432 220 c 0
 432 152 406 94 359 53 c 0
 312 12 233 -15 157 -15 c 0
 86 -15 42 7 42 42 c 0
 42 64 59 78 81 78 c 0
 98 78 116 70 145 53 c 0
 182 29 202 22 229 22 c 0
 303 22 360 86 360 171 c 0
 360 240 321 297 259 319 c 0
 234 328 212 330 152 330 c 1xd0
EndSplineSet
EndChar

StartChar: four
Encoding: 52 52 20
Width: 499
Flags: W
HStem: 0 21G<293 371> 167 64<53 291 371 472> 657 20G<312.874 371>
VStem: 293 78<0 167 231 574>
LayerCount: 2
Fore
SplineSet
472 231 m 1
 472 167 l 1
 371 167 l 1
 371 0 l 1
 293 0 l 1
 293 167 l 1
 12 167 l 1
 12 231 l 1
 327 677 l 1
 371 677 l 1
 371 231 l 1
 472 231 l 1
291 231 m 1
 291 574 l 1
 53 231 l 1
 291 231 l 1
EndSplineSet
EndChar

StartChar: five
Encoding: 53 53 21
Width: 499
Flags: W
HStem: -15 38<116.5 273.185> 583 79<182 396.064>
VStem: 357 71<130.166 287.403>
LayerCount: 2
Fore
SplineSet
182 583 m 1
 139 498 l 1
 256 478 313 454 357 410 c 0
 409 360 428 313 428 242 c 0
 428 166 406 108 360 64 c 1
 311 13 239 -15 154 -15 c 0
 79 -15 32 10 32 48 c 0
 32 73 45 85 75 85 c 0
 97 85 119 75 151 53 c 0
 182 29 198 23 218 23 c 0
 296 23 357 98 357 193 c 0
 357 293 305 354 189 393 c 0
 148 406 108 412 76 412 c 0
 67 412 64 415 64 420 c 0
 64 425 l 2
 174 662 l 1
 384 662 l 2
 404 662 415 666 429 688 c 1
 438 681 l 1
 400 592 l 2
 397 584 393 583 376 583 c 2
 182 583 l 1
EndSplineSet
EndChar

StartChar: six
Encoding: 54 54 22
Width: 499
Flags: W
HStem: -15 30<204.588 329.138> 382 46<192.82 311.443> 664 20G<390 448.25>
VStem: 34 93<146.617 351.719> 378 91<110.495 304.391>
LayerCount: 2
Fore
SplineSet
447 684 m 1
 448 668 l 1
 291 642 179 535 152 384 c 1
 215 420 236 428 280 428 c 0
 395 428 469 347 469 220 c 0
 469 81 382 -15 258 -15 c 0
 196 -15 142 10 104 54 c 0
 62 104 34 192 34 278 c 0
 34 413 92 527 201 603 c 0
 274 655 333 674 447 684 c 1
242 382 m 0
 207 382 176 374 155 357 c 0
 135 343 127 313 127 264 c 0
 127 108 182 15 270 15 c 0
 338 15 378 75 378 185 c 0
 378 311 328 382 242 382 c 0
EndSplineSet
EndChar

StartChar: seven
Encoding: 55 55 23
Width: 499
Flags: W
HStem: -7 21G<171 243.524> 587 75<81.5479 371>
VStem: 21 429<516 662>
LayerCount: 2
Fore
SplineSet
450 662 m 1
 450 646 l 1
 237 -7 l 1
 171 -7 l 1
 371 587 l 1
 152 587 l 2
 98 587 81 576 37 507 c 1
 21 516 l 1
 79 662 l 1
 450 662 l 1
EndSplineSet
EndChar

StartChar: eight
Encoding: 56 56 24
Width: 499
Flags: W
HStem: -15 30<188.138 326.78> 647 30<180.875 313.08>
VStem: 56 76<72.8504 232.303> 62 74<479.875 593.508> 354 69<457.343 607.008> 369 76<70.3076 197.949>
LayerCount: 2
Fore
SplineSet
290 371 m 1xd8
 412 281 445 231 445 155 c 0
 445 53 368 -15 248 -15 c 0
 135 -15 56 54 56 151 c 0xe4
 56 220 78 250 186 333 c 1
 81 423 62 453 62 519 c 0
 62 609 144 677 252 677 c 0
 352 677 423 617 423 535 c 0
 423 466 390 423 290 371 c 1xd8
272 268 m 2
 212 312 l 1
 154 265 132 223 132 160 c 0
 132 72 183 15 259 15 c 0
 324 15 369 59 369 125 c 0
 369 180 346 215 272 268 c 2
261 390 m 1
 265 393 265 393 270 395 c 0
 327 434 354 478 354 535 c 0
 354 603 312 647 245 647 c 0
 182 647 136 606 136 549 c 0xd8
 136 494 171 447 261 390 c 1
EndSplineSet
EndChar

StartChar: nine
Encoding: 57 57 25
Width: 499
Flags: W
HStem: -22 21<59 167.417> 237 43<184.163 305.19> 647 30<173.4 291.952>
VStem: 29 93<356.359 546.479> 362 96<334.207 520.922>
LayerCount: 2
Fore
SplineSet
59 -22 m 1
 56 -1 l 1
 208 23 319 130 360 294 c 1
 308 253 265 237 209 237 c 0
 103 237 29 318 29 439 c 0
 29 576 119 677 239 677 c 0
 368 677 458 560 458 394 c 0
 458 259 398 135 294 59 c 0
 226 10 171 -9 59 -22 c 1
362 354 m 2
 362 394 l 2
 362 562 316 647 230 647 c 0
 201 647 176 637 160 617 c 0
 138 592 122 532 122 475 c 0
 122 354 170 280 246 280 c 0
 283 280 319 293 347 316 c 0
 357 327 362 335 362 354 c 2
EndSplineSet
EndChar

StartChar: colon
Encoding: 58 58 26
Width: 276
Flags: W
HStem: -12 112<92.538 179.694> 349 109<92.538 179.694>
VStem: 81 111<1.24292 87.928 361.429 446.312>
LayerCount: 2
Fore
SplineSet
136 458 m 0
 166 458 192 434 192 401 c 0
 192 374 166 349 135 349 c 0
 105 349 81 374 81 401 c 0
 81 434 105 458 136 458 c 0
136 100 m 0
 166 100 192 75 192 42 c 0
 192 15 166 -12 135 -12 c 0
 105 -12 81 15 81 42 c 0
 81 75 105 100 136 100 c 0
EndSplineSet
EndChar

StartChar: semicolon
Encoding: 59 59 27
Width: 276
Flags: W
HStem: -4 107<92.1459 158> 349 109<92.538 179.694>
VStem: 81 111<361.429 446.312> 180 40<-59.4171 38>
LayerCount: 2
Fore
SplineSet
107 -141 m 1xd0
 98 -122 l 1
 152 -85 180 -48 180 -16 c 0xd0
 180 -7 174 -1 166 -1 c 0
 166 -1 166 -1 158 -4 c 0
 152 -4 145 -6 139 -6 c 0
 103 -6 81 13 81 45 c 0xe0
 81 81 104 103 139 103 c 0
 185 103 220 63 220 13 c 0
 220 -47 176 -107 107 -141 c 1xd0
136 458 m 0
 166 458 192 434 192 401 c 0
 192 374 166 349 135 349 c 0
 105 349 81 374 81 401 c 0xe0
 81 434 105 458 136 458 c 0
EndSplineSet
EndChar

StartChar: less
Encoding: 60 60 28
Width: 563
Flags: W
HStem: -10 21G<491.826 536>
LayerCount: 2
Fore
SplineSet
536 -10 m 1
 28 220 l 1
 28 286 l 1
 536 516 l 1
 536 444 l 1
 116 253 l 1
 536 62 l 1
 536 -10 l 1
EndSplineSet
EndChar

StartChar: equal
Encoding: 61 61 29
Width: 563
Flags: W
HStem: 120 66<29 535> 319 68<29 535>
LayerCount: 2
Fore
SplineSet
535 387 m 1
 535 319 l 1
 29 319 l 1
 29 387 l 1
 535 387 l 1
535 186 m 1
 535 120 l 1
 29 120 l 1
 29 186 l 1
 535 186 l 1
EndSplineSet
EndChar

StartChar: greater
Encoding: 62 62 30
Width: 563
Flags: W
HStem: -10 21G<28 72.1739>
LayerCount: 2
Fore
SplineSet
28 -10 m 1
 28 62 l 1
 448 253 l 1
 28 444 l 1
 28 516 l 1
 536 286 l 1
 536 220 l 1
 28 -10 l 1
EndSplineSet
EndChar

StartChar: question
Encoding: 63 63 31
Width: 443
Flags: W
HStem: -7 107<195.695 279.537> 646 31<155.175 276.389>
VStem: 67 52<511.5 605.625> 185 106<2.88687 88.7619> 227 18<164 248.441> 322 93<437.158 598.367>
LayerCount: 2
Fore
SplineSet
245 164 m 1xec
 227 164 l 1
 229 208 239 256 256 306 c 1
 286 371 l 2
 309 425 322 480 322 526 c 0
 322 593 274 646 214 646 c 0
 166 646 119 617 119 584 c 0
 119 576 125 567 136 554 c 0
 151 536 157 524 157 510 c 0
 157 486 141 469 116 469 c 0
 85 469 67 491 67 532 c 0
 67 614 138 677 230 677 c 0
 284 677 343 653 378 618 c 0
 401 595 415 560 415 521 c 0
 415 480 401 444 369 395 c 0
 354 374 354 374 309 318 c 0
 272 271 255 231 245 164 c 1xec
237 100 m 0
 267 100 291 75 291 44 c 0
 291 15 268 -7 236 -7 c 0
 207 -7 185 15 185 42 c 0xf4
 185 75 207 100 237 100 c 0
EndSplineSet
EndChar

StartChar: at
Encoding: 64 64 32
Width: 919
Flags: W
HStem: -15 40<381.061 611.474> 144 43<384.5 479.061> 144 32<605.16 692.514> 645 32<385.29 579.754>
VStem: 116 85<208.828 447.284> 321 72<204.038 362.385> 769 40<279.668 472.104>
LayerCount: 2
Fore
SplineSet
688 73 m 1xbe
 700 42 l 1
 603 -1 554 -15 483 -15 c 0
 275 -15 116 133 116 327 c 0
 116 521 278 677 480 677 c 0
 666 677 809 548 809 384 c 0
 809 253 724 144 625 144 c 0xbe
 577 144 541 171 535 215 c 1
 499 171 453 144 409 144 c 0xde
 360 144 321 193 321 256 c 0
 321 330 352 406 406 458 c 0
 439 492 475 508 517 508 c 0
 552 508 567 497 589 456 c 1
 599 494 l 1
 668 494 l 1
 603 240 l 1
 602 234 601 229 601 223 c 0
 601 190 614 176 640 176 c 0
 706 176 769 272 769 374 c 0
 769 521 639 645 482 645 c 0
 409 645 343 618 293 570 c 0
 236 510 201 416 201 324 c 0
 201 149 322 25 492 25 c 0
 560 25 609 38 688 73 c 1xbe
532 464 m 0
 507 466 472 447 444 415 c 0
 410 376 393 327 393 272 c 0
 393 220 415 187 453 187 c 0xde
 479 187 508 209 527 245 c 0
 554 291 570 352 573 398 c 0
 574 438 560 461 532 464 c 0
EndSplineSet
EndChar

StartChar: A
Encoding: 65 65 33
Width: 720
Flags: W
HStem: 0 19<15 64.6973 149.52 212 451 519.082 652.369 706> 215 41<215 447> 654 20G<338.527 376.752>
LayerCount: 2
Fore
SplineSet
706 19 m 1
 706 0 l 1
 451 0 l 1
 451 19 l 1
 504 21 521 28 521 53 c 0
 521 67 514 92 502 120 c 2
 461 215 l 1
 199 215 l 1
 152 100 l 2
 148 86 145 72 145 60 c 0
 145 32 166 19 212 19 c 1
 212 0 l 1
 15 0 l 1
 15 19 l 1
 63 21 75 37 139 183 c 2
 347 674 l 1
 368 674 l 1
 617 105 l 2
 650 32 661 22 706 19 c 1
215 256 m 1
 447 256 l 1
 331 532 l 1
 215 256 l 1
EndSplineSet
EndChar

StartChar: B
Encoding: 66 66 34
Width: 666
Flags: W
HStem: 0 19<18 98.6628> 0 37<217.577 406.084> 327 39<215 313.305> 625 37<215.469 385.512> 643 19<18 99.013>
VStem: 113 102<42.4536 327 366 624.375> 457 103<416.162 565.177> 478 115<99.6462 258.919>
LayerCount: 2
Fore
SplineSet
593 180 m 0x35
 593 58 484 0 352 0 c 2x75
 18 0 l 1
 18 19 l 1
 100 22 113 35 113 108 c 2
 113 554 l 2
 113 627 101 639 18 643 c 1
 18 662 l 1xad
 297 662 l 2
 470 662 560 603 560 492 c 0x36
 560 367 429 351 422 349 c 1
 446 343 593 315 593 180 c 0x35
215 327 m 1
 215 78 l 2
 215 45 229 37 278 37 c 0
 344 37 385 45 417 63 c 0
 457 86 478 125 478 179 c 0
 478 242 451 283 394 306 c 0
 357 321 312 327 215 327 c 1
215 366 m 1
 311 366 l 2
 404 366 457 410 457 488 c 0x36
 457 577 395 625 281 625 c 2
 237 625 l 2
 223 625 215 617 215 595 c 2
 215 366 l 1
EndSplineSet
EndChar

StartChar: C
Encoding: 67 67 35
Width: 666
Flags: W
HStem: -15 44<292.065 485.743> 450 21G<588.5 620> 636 41<284.363 476.656>
VStem: 28 116<196.581 456.53>
LayerCount: 2
Fore
SplineSet
363 677 m 0
 462 677 520 643 548 643 c 0
 568 643 584 655 590 677 c 1
 611 677 l 1
 620 450 l 1
 598 450 l 1
 579 516 562 543 532 576 c 0
 491 615 439 636 382 636 c 0
 237 636 144 519 144 338 c 0
 144 82 293 29 393 29 c 0
 475 29 541 60 615 130 c 1
 633 113 l 1
 573 32 473 -15 360 -15 c 0
 177 -15 28 106 28 325 c 0
 28 574 217 677 363 677 c 0
EndSplineSet
EndChar

StartChar: D
Encoding: 68 68 36
Width: 720
Flags: W
HStem: 0 19<16 90.734> 0 37<209.044 403.58> 625 37<208.655 399.071> 643 19<16 90.733>
VStem: 104 103<40.8886 622.077> 576 110<214.589 448.8>
LayerCount: 2
Fore
SplineSet
286 662 m 2x2c
 517 662 686 555 686 334 c 0
 686 195 603 0 300 0 c 2x6c
 16 0 l 1
 16 19 l 1
 92 23 104 37 104 108 c 2
 104 554 l 2
 104 627 95 636 16 643 c 1
 16 662 l 1x9c
 286 662 l 2x2c
207 586 m 2
 207 78 l 2
 207 45 218 37 258 37 c 0
 346 37 403 48 454 78 c 0
 535 125 576 209 576 327 c 0
 576 435 535 521 457 576 c 0
 409 609 344 625 258 625 c 0
 217 625 207 617 207 586 c 2
EndSplineSet
EndChar

StartChar: E
Encoding: 69 69 37
Width: 610
Flags: MW
HStem: 0 19<12 84.5555> 0 37<244.195 475.842> 327 41<201 438.85> 624 38<234 484.94> 643 19<12 47.4645>
VStem: 100 101<56.327 327 368 623.309> 464 24<231 302.528 393.657 463>
LayerCount: 2
Fore
SplineSet
598 168 m 1
 552 0 l 1
 12 0 l 1
 12 19 l 1
 85 23 100 40 100 108 c 2
 100 554 l 2
 100 623 86 637 12 643 c 1
 12 662 l 1
 543 662 l 1
 546 519 l 1
 521 519 l 1
 504 609 482 624 369 624 c 2
 234 624 l 2
 207 624 201 618 201 590 c 2
 201 368 l 1
 354 368 l 2
 401 368 431 376 442 393 c 0
 454 407 458 422 464 463 c 1
 488 463 l 1
 488 231 l 1
 464 231 l 1
 453 313 437 327 354 327 c 2
 201 327 l 1
 201 81 l 2
 201 63 204 53 208 48 c 1
 215 42 256 37 306 37 c 2
 333 37 l 2
 476 37 519 62 570 168 c 1
 598 168 l 1
EndSplineSet
EndChar

StartChar: F
Encoding: 70 70 38
Width: 555
Flags: W
HStem: 0 19<12 84.5 215.172 291> 327 41<201 429.402> 624 38<233 484.94> 643 19<12 47.4645>
VStem: 100 101<34.9329 327 368 623.309> 456 23<231 302.105>
LayerCount: 2
Fore
SplineSet
479 231 m 1xec
 456 231 l 1
 444 312 428 327 346 327 c 2
 201 327 l 1
 201 108 l 2
 201 37 215 23 291 19 c 1
 291 0 l 1
 12 0 l 1
 12 19 l 1
 88 23 100 37 100 120 c 2
 100 554 l 2
 100 623 86 637 12 643 c 1
 12 662 l 1
 543 662 l 1xdc
 546 519 l 1
 521 519 l 1
 504 609 482 624 369 624 c 2
 233 624 l 2
 207 624 201 618 201 590 c 2
 201 368 l 1
 346 368 l 2
 426 368 444 384 456 463 c 1
 479 463 l 1
 479 231 l 1xec
EndSplineSet
EndChar

StartChar: G
Encoding: 71 71 39
Width: 720
Flags: W
HStem: -15 41<299.016 509.808> 335 19<454 529.219 648.415 709> 636 41<293.116 487.996>
VStem: 32 114<194.802 452.952> 542 97<56 322.047>
LayerCount: 2
Fore
SplineSet
542 248 m 2
 542 327 522 332 454 335 c 1
 454 354 l 1
 709 354 l 1
 709 335 l 1
 650 331 639 318 639 259 c 2
 639 56 l 1
 599 21 475 -15 388 -15 c 0
 215 -15 32 83 32 325 c 0
 32 529 174 677 375 677 c 0
 469 677 522 643 555 643 c 0
 576 643 595 658 601 677 c 1
 623 677 l 1
 630 464 l 1
 606 464 l 1
 582 526 565 554 536 582 c 0
 497 617 448 636 393 636 c 0
 232 636 146 502 146 327 c 0
 146 141 246 26 409 26 c 0
 480 26 542 53 542 85 c 2
 542 248 l 2
EndSplineSet
EndChar

StartChar: H
Encoding: 72 72 40
Width: 720
Flags: W
HStem: 0 19<19 97 223 297 423 502 627 702> 315 44<209 513> 643 19<19 93.3701 222.993 297 423 498.417 627.993 702>
VStem: 107 102<35.0815 315 359 627.8> 513 101<35.0815 315 359 626.826>
LayerCount: 2
Fore
SplineSet
209 359 m 1
 513 359 l 1
 513 554 l 2
 513 625 501 636 423 643 c 1
 423 662 l 1
 702 662 l 1
 702 643 l 1
 625 636 614 625 614 554 c 2
 614 108 l 2
 614 38 627 25 702 19 c 1
 702 0 l 1
 423 0 l 1
 423 19 l 1
 502 23 513 37 513 120 c 2
 513 315 l 1
 209 315 l 1
 209 108 l 2
 209 38 223 25 297 19 c 1
 297 0 l 1
 19 0 l 1
 19 19 l 1
 97 23 107 37 107 120 c 2
 107 554 l 2
 107 625 97 636 19 643 c 1
 19 662 l 1
 297 662 l 1
 297 643 l 1
 220 636 209 625 209 554 c 2
 209 359 l 1
EndSplineSet
EndChar

StartChar: I
Encoding: 73 73 41
Width: 332
Flags: W
HStem: 0 19<18 102.503 232.697 315> 643 19<18 98.875 235.843 315>
VStem: 116 101<35.7172 626.643>
LayerCount: 2
Fore
SplineSet
116 108 m 2
 116 554 l 2
 116 627 103 639 18 643 c 1
 18 662 l 1
 315 662 l 1
 315 643 l 1
 231 639 217 625 217 554 c 2
 217 108 l 2
 217 37 233 22 315 19 c 1
 315 0 l 1
 18 0 l 1
 18 19 l 1
 103 22 116 34 116 108 c 2
EndSplineSet
EndChar

StartChar: J
Encoding: 74 74 42
Width: 388
Flags: MW
HStem: -15 38<83.1529 168.657> 643 19<83 161.802 292.561 371>
VStem: 176 102<73.8245 89 89 627.241>
LayerCount: 2
Fore
SplineSet
59 108 m 0
 120 108 102 23 138 23 c 0
 164 23 176 45 176 89 c 2
 176 554 l 2
 176 625 166 637 83 643 c 1
 83 662 l 1
 371 662 l 1
 371 643 l 1
 289 637 278 625 278 554 c 2
 278 183 l 2
 278 59 217 -15 108 -15 c 0
 51 -15 10 16 10 59 c 0
 10 85 32 108 59 108 c 0
EndSplineSet
EndChar

StartChar: K
Encoding: 75 75 43
Width: 720
Flags: W
HStem: 0 19<34 113 239 316 417 431 441 475 671 724> 642 20<413.561 478.787 591.192 675> 643 19<34 105.8 242.862 318 413 478.084>
VStem: 125 101<34.9699 296 349 625.88>
LayerCount: 2
Fore
SplineSet
413 643 m 1xb0
 413 662 l 1xb0
 675 662 l 1xd0
 675 643 l 1
 606 639 592 630 523 565 c 1
 333 376 l 1
 565 127 l 2
 658 29 671 21 724 19 c 1
 724 0 l 1
 417 0 l 1
 417 19 l 1
 431 21 441 21 447 21 c 0
 475 21 488 28 488 42 c 0
 488 66 434 138 357 212 c 2
 252 316 l 1
 226 296 l 1
 226 108 l 2
 226 37 239 23 316 19 c 1
 316 0 l 1
 34 0 l 1
 34 19 l 1
 113 23 125 37 125 120 c 2
 125 554 l 2
 125 624 111 637 34 643 c 1
 34 662 l 1
 318 662 l 1
 318 643 l 1xb0
 237 637 226 625 226 554 c 2
 226 349 l 1
 403 510 l 2
 458 560 480 590 480 612 c 0
 480 633 469 640 439 642 c 0xd0
 435 642 425 642 413 643 c 1xb0
EndSplineSet
EndChar

StartChar: L
Encoding: 76 76 44
Width: 610
Flags: W
HStem: 0 19<12 84.5555> 0 40<203.358 479.111> 643 19<12 83.75 216.65 294>
VStem: 100 101<45.0483 626.595>
LayerCount: 2
Fore
SplineSet
354 40 m 2x70
 481 40 532 78 573 174 c 1
 598 174 l 1
 551 0 l 1x70
 12 0 l 1
 12 19 l 1xb0
 85 23 100 40 100 108 c 2
 100 554 l 2
 100 623 86 637 12 643 c 1
 12 662 l 1
 294 662 l 1
 294 643 l 1
 215 639 201 624 201 554 c 2
 201 81 l 2
 201 45 214 40 287 40 c 2
 354 40 l 2x70
EndSplineSet
EndChar

StartChar: M
Encoding: 77 77 45
Width: 887
Flags: W
HStem: 0 19<12 95 170 248 583 662 790 863> 643 19<15 91.001 794.6 863>
VStem: 108 44<43.2166 551> 674 102<35.3068 572.226>
LayerCount: 2
Fore
SplineSet
674 573 m 1
 417 0 l 1
 404 0 l 1
 152 551 l 1
 152 146 l 2
 152 45 170 23 248 19 c 1
 248 0 l 1
 12 0 l 1
 12 19 l 1
 95 25 108 44 108 146 c 2
 108 554 l 2
 108 625 97 639 15 643 c 1
 15 662 l 1
 212 662 l 1
 442 157 l 1
 664 662 l 1
 863 662 l 1
 863 643 l 1
 790 637 776 624 776 554 c 2
 776 108 l 2
 776 38 790 23 863 19 c 1
 863 0 l 1
 583 0 l 1
 583 19 l 1
 662 23 674 37 674 120 c 2
 674 573 l 1
EndSplineSet
EndChar

StartChar: N
Encoding: 78 78 46
Width: 720
Flags: W
HStem: 0 19<12 85.5154 176.561 248> 643 19<12 77.3152 472 545.181 638.875 707>
VStem: 108 44<43.2166 539> 568 44<179 516 516 615.552>
LayerCount: 2
Fore
SplineSet
707 643 m 1
 652 637 612 636 612 516 c 2
 612 -12 l 1
 595 -12 l 1
 152 539 l 1
 152 146 l 2
 152 45 170 23 248 19 c 1
 248 0 l 1
 12 0 l 1
 12 19 l 1
 95 25 108 44 108 146 c 2
 108 587 l 1
 69 636 56 643 12 643 c 1
 12 662 l 1
 183 662 l 1
 568 179 l 1
 568 516 l 2
 568 629 543 637 472 643 c 1
 472 662 l 1
 707 662 l 1
 707 643 l 1
EndSplineSet
EndChar

StartChar: O
Encoding: 79 79 47
Width: 720
Flags: W
HStem: -15 37<275.716 445.146> 640 37<273.964 447.327>
VStem: 34 114<200.894 461.708> 574 114<198.332 460.259>
LayerCount: 2
Fore
SplineSet
360 677 m 0
 533 677 688 554 688 327 c 0
 688 126 552 -15 354 -15 c 0
 208 -15 34 96 34 331 c 0
 34 532 170 677 360 677 c 0
574 328 m 0
 574 582 446 640 360 640 c 0
 274 640 148 584 148 330 c 0
 148 76 278 22 359 22 c 0
 448 22 574 82 574 328 c 0
EndSplineSet
EndChar

StartChar: P
Encoding: 80 80 48
Width: 555
Flags: W
HStem: 0 19<16 86.5 216.935 296> 291 40<202 230.592 230.592 236.523 233.558 368.329> 625 37<202.686 360.821> 643 19<16 86.4617>
VStem: 100 102<35.1009 291 331 623.649> 434 108<397.177 559.681>
LayerCount: 2
Fore
SplineSet
202 291 m 1xec
 202 108 l 2
 202 37 217 22 296 19 c 1
 296 0 l 1
 16 0 l 1
 16 19 l 1
 92 26 100 37 100 120 c 2
 100 554 l 2
 100 625 89 636 16 643 c 1
 16 662 l 1xdc
 280 662 l 2
 374 662 461 634 501 590 c 0
 529 561 542 523 542 480 c 0
 542 415 505 354 447 322 c 0
 403 297 349 289 271 289 c 0
 245 289 229 289 202 291 c 1xec
202 592 m 2
 202 331 l 1
 226 330 239 328 259 328 c 0
 374 328 434 378 434 475 c 0
 434 579 371 625 236 625 c 0xec
 209 625 202 618 202 592 c 2
EndSplineSet
EndChar

StartChar: Q
Encoding: 81 81 49
Width: 720
Flags: MW
HStem: -177 17<589.906 678.546 678.546 702> -1 23<265 360> 640 37<273.274 446.147>
VStem: 34 114<198.578 461.653> 574 114<197.548 461.303>
LayerCount: 2
Fore
SplineSet
702 -160 m 1
 702 -177 l 1
 696 -177 l 1
 684 -179 675 -179 661 -179 c 0
 501 -179 379 -135 312 -56 c 2
 265 -1 l 1
 193 23 163 42 123 85 c 0
 64 149 34 231 34 330 c 0
 34 532 170 677 360 677 c 0
 552 677 688 532 688 331 c 0
 688 220 650 129 576 63 c 0
 530 23 494 6 426 -7 c 1
 507 -111 587 -157 702 -160 c 1
365 640 m 0
 306 640 259 620 218 576 c 0
 177 529 148 431 148 335 c 0
 148 218 180 119 233 70 c 0
 270 40 313 22 360 22 c 0
 416 22 469 45 505 86 c 0
 545 132 574 234 574 333 c 0
 574 447 542 542 488 590 c 0
 453 621 407 640 365 640 c 0
EndSplineSet
EndChar

StartChar: R
Encoding: 82 82 50
Width: 666
Flags: MW
HStem: 0 19<18 92 217 294 621 659> 308 35<204 261> 319 57<366 381> 625 37<205.512 372.921> 643 19<18 47.925>
VStem: 103 101<34.9699 306 343 622.125> 438 108<409.886 567.712>
LayerCount: 2
Fore
SplineSet
659 19 m 1xd6
 659 0 l 1
 498 0 l 1
 261 308 l 1
 204 306 l 1
 204 108 l 2
 204 37 217 23 294 19 c 1
 294 0 l 1
 18 0 l 1
 18 19 l 1
 92 25 103 37 103 120 c 2
 103 554 l 2
 103 624 92 636 18 643 c 1
 18 662 l 1xce
 293 662 l 2
 387 662 470 636 508 595 c 0
 535 565 546 529 546 486 c 0
 546 439 529 397 497 371 c 0
 463 344 434 333 366 319 c 1xfc
 573 66 l 1
 601 32 621 22 659 19 c 1xd6
204 589 m 2
 204 343 l 1
 300 346 335 352 381 376 c 0
 417 395 438 438 438 488 c 0
 438 582 379 625 255 625 c 0xd6
 215 625 204 617 204 589 c 2
EndSplineSet
EndChar

StartChar: S
Encoding: 83 83 51
Width: 555
Flags: MW
HStem: -13 35<183.879 343.045> 21 1<179 196.263> 636 41<192.293 339.825>
VStem: 70 87<481.592 588.671> 390 101<85.4782 199.567>
LayerCount: 2
Fore
SplineSet
245 677 m 0
 313 677 368 642 394 642 c 0
 412 642 422 653 426 677 c 1
 447 677 l 1
 469 463 l 1
 444 463 l 1
 428 521 415 548 384 580 c 0
 349 617 306 636 261 636 c 0
 199 636 157 598 157 542 c 0
 157 392 491 373 491 168 c 0
 491 64 401 -15 287 -15 c 0
 206 -15 153 21 122 21 c 0
 107 21 95 6 94 -13 c 1
 72 -13 l 1
 42 199 l 1
 64 199 l 1
 116 78 179 22 267 22 c 0
 340 22 390 67 390 135 c 0
 390 170 387 224 227 311 c 0
 116 369 70 425 70 505 c 0
 70 621 170 677 245 677 c 0
EndSplineSet
EndChar

StartChar: T
Encoding: 84 84 52
Width: 610
Flags: W
HStem: 0 19<160 238.802 371.244 453> 620 42<89.4395 253 356 521.584>
VStem: 253 103<35.4126 620>
LayerCount: 2
Fore
SplineSet
253 620 m 1
 201 620 l 2
 88 620 64 601 41 492 c 1
 18 492 l 1
 23 662 l 1
 587 662 l 1
 593 492 l 1
 570 492 l 1
 546 602 524 620 410 620 c 2
 356 620 l 1
 356 108 l 2
 356 37 371 23 453 19 c 1
 453 0 l 1
 160 0 l 1
 160 19 l 1
 243 23 253 35 253 120 c 2
 253 620 l 1
EndSplineSet
EndChar

StartChar: U
Encoding: 85 85 53
Width: 720
Flags: W
HStem: -15 44<284.748 477.225> 643 19<15 89.5306 220.857 297 473 551 623 705>
VStem: 104 103<169.822 627.241> 567 44<112.847 618.361>
LayerCount: 2
Fore
SplineSet
611 516 m 2
 611 253 l 2
 611 177 602 130 579 89 c 0
 539 21 464 -15 354 -15 c 0
 185 -15 104 67 104 242 c 2
 104 554 l 2
 104 625 92 637 15 643 c 1
 15 662 l 1
 297 662 l 1
 297 643 l 1
 217 636 207 625 207 554 c 2
 207 233 l 2
 207 170 212 133 231 101 c 0
 258 54 308 29 378 29 c 0
 453 29 517 62 543 108 c 0
 560 139 567 177 567 245 c 2
 567 516 l 2
 567 615 551 637 473 643 c 1
 473 662 l 1
 705 662 l 1
 705 643 l 1
 623 633 611 617 611 516 c 2
EndSplineSet
EndChar

StartChar: V
Encoding: 86 86 54
Width: 720
Flags: W
HStem: -12 21G<359.055 391.851> 643 19<16 69.455 211.224 283 492 556.896 645.75 697>
LayerCount: 2
Fore
SplineSet
697 662 m 1
 697 643 l 1
 649 640 639 628 605 551 c 1
 384 -12 l 1
 368 -12 l 1
 122 538 l 1
 79 627 64 642 16 643 c 1
 16 662 l 1
 283 662 l 1
 283 643 l 1
 268 642 256 642 253 642 c 0
 221 639 207 628 207 609 c 0
 207 595 215 573 248 499 c 2
 398 161 l 1
 546 529 l 2
 558 558 565 584 565 601 c 0
 565 628 546 640 492 643 c 1
 492 662 l 1
 697 662 l 1
EndSplineSet
EndChar

StartChar: W
Encoding: 87 87 55
Width: 943
Flags: W
HStem: -12 21G<294.788 323.264 622.453 687> 643 19<4 56 199 250 313 371 526 580 734 785>
LayerCount: 2
Fore
SplineSet
932 662 m 1
 932 643 l 1
 879 633 869 624 850 573 c 0
 740 278 729 250 645 -12 c 1
 630 -12 l 1
 470 412 l 1
 316 -12 l 1
 302 -12 l 1
 108 526 l 1
 70 620 56 639 4 643 c 1
 4 662 l 1
 250 662 l 1
 250 643 l 1
 199 640 185 633 185 611 c 0
 185 601 189 583 196 565 c 2
 340 189 l 1
 447 472 l 1
 415 554 l 1
 379 633 371 642 313 643 c 1
 313 662 l 1
 580 662 l 1
 580 643 l 1
 526 642 502 633 502 608 c 0
 502 598 510 579 519 557 c 0
 519 554 529 532 530 527 c 2
 662 186 l 1
 787 524 l 2
 797 554 803 579 803 601 c 0
 803 627 785 639 734 643 c 1
 734 662 l 1
 932 662 l 1
EndSplineSet
EndChar

StartChar: X
Encoding: 88 88 56
Width: 720
Flags: W
HStem: 0 21<407 482.15> 0 19<10 62 185 243 650 705> 643 19<22 88.3585 249.98 324 458 526.462 624.128 696>
LayerCount: 2
Fore
SplineSet
696 662 m 1x60
 696 643 l 1
 633 639 612 627 546 549 c 1
 401 368 l 1
 593 92 l 1
 636 35 650 25 705 19 c 1
 705 0 l 1x60
 407 0 l 1xa0
 407 19 l 1x60
 419 21 431 21 434 21 c 0xa0
 469 22 483 32 483 50 c 0
 483 64 466 100 434 148 c 2
 338 289 l 1
 220 141 l 2
 182 94 167 69 167 54 c 0
 167 31 185 23 243 19 c 1
 243 0 l 1
 10 0 l 1
 10 19 l 1
 62 23 66 26 155 133 c 1
 312 327 l 1
 204 486 l 1
 105 625 86 640 22 643 c 1
 22 662 l 1
 324 662 l 1
 324 643 l 1
 296 642 l 2
 264 642 248 633 248 614 c 0
 248 592 272 548 333 463 c 2
 375 404 l 1
 488 542 l 2
 517 579 529 596 529 611 c 0
 529 634 513 642 458 643 c 1
 458 662 l 5
 696 662 l 1x60
EndSplineSet
EndChar

StartChar: Y
Encoding: 89 89 57
Width: 720
Flags: W
HStem: 0 19<214 299.893 431.299 520> 643 19<22 75.2861 233.052 302 483 550.359 646.988 703>
VStem: 315 102<35.0758 294>
LayerCount: 2
Fore
SplineSet
703 662 m 1
 703 643 l 1
 652 639 625 617 565 529 c 1
 417 303 l 1
 417 108 l 2
 417 34 431 21 520 19 c 1
 520 0 l 1
 214 0 l 1
 214 19 l 1
 305 23 315 34 315 120 c 2
 315 294 l 1
 185 486 l 1
 83 627 70 642 22 643 c 1
 22 662 l 1
 302 662 l 1
 302 643 l 1
 291 642 281 642 277 642 c 0
 245 640 231 631 231 614 c 0
 231 602 237 584 248 570 c 2
 395 347 l 1
 539 573 l 2
 548 587 554 601 554 609 c 0
 554 634 536 642 483 643 c 1
 483 662 l 1
 703 662 l 1
EndSplineSet
EndChar

StartChar: Z
Encoding: 90 90 58
Width: 610
Flags: W
HStem: 0 38<145 501.531> 624 38<117.487 447>
LayerCount: 2
Fore
SplineSet
574 176 m 1
 598 176 l 1
 573 0 l 1
 9 0 l 1
 9 15 l 1
 447 624 l 1
 226 624 l 2
 160 624 114 609 91 582 c 0
 75 560 66 541 57 491 c 1
 31 491 l 1
 51 662 l 5
 577 662 l 1
 577 647 l 1
 145 38 l 1
 401 38 l 2
 458 38 502 53 527 78 c 0
 546 100 557 120 574 176 c 1
EndSplineSet
EndChar

StartChar: bracketleft
Encoding: 91 91 59
Width: 332
Flags: W
HStem: -157 27<169.672 299> 637 25<167.594 299>
VStem: 88 76<-124.726 633.432>
LayerCount: 2
Fore
SplineSet
299 -130 m 1
 299 -157 l 1
 88 -157 l 1
 88 662 l 1
 299 662 l 1
 299 637 l 1
 209 637 l 2
 177 637 164 624 164 593 c 2
 164 -79 l 2
 164 -114 180 -130 212 -130 c 2
 299 -130 l 1
EndSplineSet
EndChar

StartChar: backslash
Encoding: 92 92 60
Width: 276
Flags: MW
HStem: -15 21G<213.382 287> 657 20G<-9 65.5896>
LayerCount: 2
Fore
SplineSet
-9 677 m 1
 59 677 l 1
 287 -15 l 1
 220 -15 l 1
 -9 677 l 1
EndSplineSet
EndChar

StartChar: bracketright
Encoding: 93 93 61
Width: 332
Flags: W
HStem: -157 27<34 164.826> 637 25<34 161.801>
VStem: 168 77<-127.145 631.438>
LayerCount: 2
Fore
SplineSet
34 -130 m 1
 125 -130 l 2
 155 -130 168 -119 168 -86 c 2
 168 584 l 2
 168 620 152 637 120 637 c 2
 34 637 l 1
 34 662 l 1
 245 662 l 1
 245 -157 l 1
 34 -157 l 1
 34 -130 l 1
EndSplineSet
EndChar

StartChar: asciicircum
Encoding: 94 94 62
Width: 468
Flags: W
HStem: 297 365<92 205>
VStem: 23 424<297 297>
LayerCount: 2
Fore
SplineSet
92 297 m 1
 23 297 l 1
 205 662 l 1
 265 662 l 1
 447 297 l 1
 378 297 l 1
 234 586 l 1
 92 297 l 1
EndSplineSet
EndChar

StartChar: underscore
Encoding: 95 95 63
Width: 499
Flags: W
HStem: -125 50<0 499>
LayerCount: 2
Fore
SplineSet
499 -125 m 1
 0 -125 l 1
 0 -75 l 1
 499 -75 l 1
 499 -125 l 1
EndSplineSet
EndChar

StartChar: joker
Encoding: 423 -1 64
Width: 908
Flags: W
HStem: -19 47<478 509.391> -16 47<483.373 514> -7 21<435 442.739 545.596 557> 378 22<194.04 229> 400 22<727 766> 400 26<740 779> 433 20G<181 288.667> 560 21G<198.5 251> 661 21<245 264 280.19 307.846> 778 50<445 477.756> 781 50<445.609 478>
VStem: 179 50<378 400 426 443.903> 187 47<427.193 448.581 478.731 492.761> 415 30<11.9304 33.6327> 445 33<781 815.5> 478 32<-4.25 28> 510 32<778 799.906> 725 53<357 374 400 422 453 466>
LayerCount: 2
Fore
SplineSet
669 732 m 1x1387c0
 643 687 l 1
 637 696 630 705 623 712 c 1
 645 759 l 1
 650 756 659 747 669 732 c 1x1387c0
617 782 m 1
 599 734 l 1
 593 738 584 746 573 753 c 1
 586 801 l 1
 599 794 609 787 617 782 c 1
710 675 m 1
 675 634 l 1
 668 647 665 656 661 661 c 1
 691 705 l 1
 696 699 706 683 710 675 c 1
738 618 m 1
 696 584 l 1
 694 590 688 603 687 609 c 1
 727 649 l 1
 728 645 732 634 738 618 c 1
551 817 m 1
 542 769 l 1
 530 773 520 776 510 778 c 1
 514 828 l 1x13c7c0
 533 825 545 822 551 817 c 1
759 561 m 1
 710 535 l 1
 710 541 706 554 705 558 c 1
 750 590 l 1
 751 582 754 571 759 561 c 1
479 831 m 1x13a7c0
 478 781 l 1x13a7c0
 470 781 458 779 445 778 c 1
 441 828 l 1x13c7c0
 457 829 467 831 478 831 c 2
 479 831 l 1x13a7c0
770 507 m 1
 721 489 l 1
 716 511 l 1
 765 533 l 1
 766 527 769 519 770 507 c 1
778 453 m 1
 725 444 l 1
 725 456 l 1
 724 457 724 461 724 466 c 1
 775 479 l 1
 776 473 778 458 778 453 c 1
413 768 m 1
 400 762 390 757 382 753 c 1
 371 801 l 1
 382 809 394 813 404 817 c 1
 413 768 l 1
779 400 m 1
 727 400 l 1
 727 422 l 1x1387c0
 779 426 l 1x1387c0
 779 400 l 1
778 374 m 1
 778 368 776 353 775 347 c 1
 724 357 l 1
 724 362 724 366 725 368 c 1
 725 378 l 1
 778 374 l 1
356 732 m 1
 352 728 343 721 333 710 c 1
 312 757 l 1
 318 763 327 770 338 781 c 1x13a7c0
 356 732 l 1
772 321 m 1
 772 315 770 306 769 294 c 1
 718 312 l 1
 719 322 721 330 721 334 c 1
 772 321 l 1
763 267 m 1
 762 261 757 246 756 240 c 1
 709 267 l 1
 710 272 715 286 715 290 c 1
 763 267 l 1
312 687 m 1
 294 661 l 1
 265 703 l 1
 271 709 283 725 287 731 c 1
 312 687 l 1
747 211 m 1
 746 205 741 196 735 183 c 1
 694 218 l 1
 699 229 700 236 702 243 c 1
 747 211 l 1
280 634 m 1
 278 630 275 623 268 609 c 1
 233 645 l 1
 237 655 242 664 248 674 c 1
 280 634 l 1
722 155 m 1
 718 149 715 141 707 127 c 1
 671 168 l 1
 672 173 677 180 684 193 c 1
 722 155 l 1
258 584 m 1
 253 574 252 567 250 560 c 1
 208 587 l 1
 212 595 215 603 220 617 c 1
 258 584 l 1
688 98 m 1
 666 72 l 1
 640 119 l 1
 647 126 652 133 656 144 c 1
 688 98 l 1
243 535 m 1
 242 530 240 521 239 511 c 1
 193 532 l 1
 195 539 196 548 201 560 c 1
 243 535 l 1
234 488 m 1x138fc0
 233 478 231 470 231 466 c 1
 183 479 l 1
 187 505 l 1
 234 488 l 1x138fc0
642 45 m 1
 628 35 620 28 614 23 c 1
 596 73 l 1
 601 78 609 85 620 95 c 1
 642 45 l 1
230 444 m 1
 229 442 229 435 229 422 c 1x1397c0
 179 426 l 1x1397c0
 179 432 180 441 182 453 c 1
 230 444 l 1
229 378 m 1
 180 374 l 1
 179 375 179 384 179 400 c 1
 229 400 l 1
 229 378 l 1
583 4 m 1
 576 0 565 -1 549 -7 c 1x3387c0
 541 40 l 1
 557 47 565 51 570 54 c 1
 583 4 l 1
233 334 m 1
 185 321 l 1
 185 327 183 335 182 349 c 1
 230 356 l 1
 230 352 231 344 233 334 c 1
240 290 m 1
 195 270 l 1
 193 277 190 284 189 294 c 1
 236 312 l 1
 240 290 l 1
514 -16 m 1x5387c0
 498 -18 486 -19 479 -19 c 2
 478 -19 l 1
 478 28 l 1x9387c0
 485 28 497 29 510 31 c 1
 514 -16 l 1x5387c0
252 243 m 1
 211 214 l 1
 202 240 l 1
 246 267 l 1
 248 262 252 249 252 243 c 1
445 31 m 1x5387c0
 441 -15 l 1
 429 -13 417 -10 406 -6 c 1
 415 40 l 1
 425 35 435 32 445 31 c 1x5387c0
271 193 m 1
 236 158 l 1
 229 170 224 179 223 186 c 1
 261 217 l 1
 262 212 267 204 271 193 c 1
297 142 m 1
 270 101 l 1
 265 108 255 125 250 130 c 1
 283 168 l 1
 287 163 296 148 297 142 c 1
385 54 m 1
 372 7 l 1
 359 15 349 22 341 26 c 1
 359 73 l 1
 365 69 374 62 385 54 c 1
335 94 m 1
 315 50 l 1
 306 57 297 66 290 75 c 1
 315 117 l 1
 322 107 330 100 335 94 c 1
EndSplineSet
EndChar

StartChar: a
Encoding: 97 97 65
Width: 443
Flags: W
HStem: -10 58<112.671 216.359 341.065 413.024> 437 23<152.787 266.62>
VStem: 37 88<65.9757 166.869> 56 88<311.44 367 339.22 404.676> 287 81<72.986 268 291 407.339>
LayerCount: 2
Fore
SplineSet
224 460 m 0xd8
 365 460 368 365 368 300 c 2
 368 105 l 2
 368 62 375 47 398 47 c 0
 413 47 425 53 442 66 c 1
 442 40 l 1
 407 1 387 -10 352 -10 c 0
 311 -10 293 12 289 63 c 1
 227 12 186 -10 142 -10 c 0
 81 -10 37 34 37 97 c 0xe8
 37 202 144 234 287 291 c 1
 287 353 l 2
 287 407 261 437 211 437 c 0
 171 437 139 415 139 387 c 0
 139 375 144 359 144 347 c 0
 144 325 123 305 100 305 c 0
 76 305 56 325 56 349 c 0
 56 412 130 460 224 460 c 0xd8
287 123 m 2
 287 268 l 1
 166 224 125 187 125 129 c 0
 125 68 162 48 187 48 c 0
 209 48 237 57 261 70 c 0
 283 83 287 92 287 123 c 2
EndSplineSet
EndChar

StartChar: b
Encoding: 98 98 66
Width: 499
Flags: W
HStem: -10 32<170.088 320.257> 397 63<212.106 315.212> 663 20G<126.5 188>
VStem: 69 83<41.004 54 54 365.404 375 621.33> 379 90<136.65 318.451>
LayerCount: 2
Fore
SplineSet
152 681 m 1
 152 375 l 1
 173 423 231 460 291 460 c 0
 393 460 469 366 469 243 c 0
 469 100 366 -10 234 -10 c 0
 154 -10 69 23 69 54 c 2
 69 573 l 2
 69 615 60 624 21 624 c 0
 13 624 9 624 3 623 c 1
 3 639 l 1
 32 647 l 2
 79 661 105 668 148 683 c 1
 152 681 l 1
152 322 m 2
 152 70 l 2
 152 45 198 22 250 22 c 0
 333 22 379 86 379 198 c 0
 379 319 330 397 252 397 c 0
 201 397 152 360 152 322 c 2
EndSplineSet
EndChar

StartChar: c
Encoding: 99 99 67
Width: 443
Flags: W
HStem: -10 72<184.294 300.01> 431 29<168.122 286.579>
VStem: 25 78<153.372 324.099>
LayerCount: 2
Fore
SplineSet
25 212 m 0
 25 388 155 460 245 460 c 0
 328 460 398 413 398 357 c 0
 398 334 376 315 350 315 c 0
 330 315 311 333 303 360 c 2
 297 384 l 2
 287 420 274 431 239 431 c 0
 157 431 103 360 103 256 c 0
 103 142 166 62 256 62 c 0
 313 62 350 86 398 157 c 1
 412 146 l 1
 386 97 333 -10 215 -10 c 0
 104 -10 25 83 25 212 c 0
EndSplineSet
EndChar

StartChar: d
Encoding: 100 100 68
Width: 499
Flags: MW
HStem: -10 52<185.95 293.983> 432 28<176.733 299.385> 663 20G<395 423>
VStem: 26 87<127.242 316.613> 340 83<67.418 391.083 417 621.16>
LayerCount: 2
Fore
SplineSet
344 -10 m 1
 340 -7 l 1
 340 57 l 1
 306 10 268 -10 212 -10 c 0
 103 -10 26 78 26 205 c 0
 26 347 120 460 234 460 c 0
 275 460 302 450 340 417 c 1
 340 573 l 2
 340 614 331 624 294 624 c 0
 286 624 280 624 272 623 c 1
 272 639 l 1
 335 656 371 666 419 683 c 1
 423 681 l 1
 423 114 l 2
 423 67 432 57 469 57 c 0
 472 57 473 57 491 59 c 1
 491 42 l 1
 344 -10 l 1
250 42 m 0
 307 42 340 83 340 103 c 2
 340 333 l 2
 340 385 291 432 239 432 c 0
 163 432 113 357 113 245 c 0
 113 122 168 42 250 42 c 0
EndSplineSet
EndChar

StartChar: e
Encoding: 101 101 69
Width: 443
Flags: W
HStem: -10 69<179.282 303.734> 277 32<100 303> 423 37<144.514 269.519>
VStem: 25 72<158.961 277 309 329.479>
LayerCount: 2
Fore
SplineSet
25 214 m 0
 25 383 133 460 234 460 c 0
 286 460 333 439 362 403 c 0
 387 371 397 343 406 277 c 1
 97 277 l 1
 100 215 105 183 125 145 c 0
 152 88 196 59 253 59 c 0
 316 59 360 88 409 164 c 1
 423 157 l 1
 382 48 308 -10 212 -10 c 0
 97 -10 25 76 25 214 c 0
100 309 m 1
 303 309 l 1
 290 395 267 423 205 423 c 0
 144 423 110 387 100 309 c 1
EndSplineSet
EndChar

StartChar: f
Encoding: 102 102 70
Width: 332
Flags: W
HStem: 0 15<21 90.7022 199.358 280> 417 33<21 103 187 309> 655 28<201.464 283.66>
VStem: 103 84<29.2159 417 450 583.351>
LayerCount: 2
Fore
SplineSet
341 580 m 0
 296 580 298 655 243 655 c 0
 205 655 186 624 186 565 c 2
 186 450 l 1
 309 450 l 1
 309 417 l 1
 187 417 l 1
 187 104 l 2
 187 29 198 18 280 15 c 1
 280 0 l 1
 21 0 l 1
 21 15 l 1
 92 19 103 31 103 104 c 2
 103 417 l 1
 21 417 l 1
 21 450 l 1
 103 450 l 1
 104 530 111 565 138 609 c 0
 164 656 217 683 278 683 c 0
 338 683 384 658 384 621 c 0
 384 598 365 580 341 580 c 0
EndSplineSet
EndChar

StartChar: g
Encoding: 103 103 71
Width: 499
Flags: MW
HStem: -218 57<136.748 320.19> -15 79<230.866 275.5 275.5 406.373> 149 25<209.138 305.163> 388 40<387.22 470> 432 28<174.284 277.467>
VStem: 28 70<-129.116 -66.9265> 69 83<229.38 376.12> 73 60<52.7134 99.2748> 330 76<222.575 367.864> 434 27<-110.949 -30.2281>
LayerCount: 2
Fore
SplineSet
236 460 m 0
 311 460 330 428 393 428 c 2
 470 428 l 1
 470 388 l 1
 387 388 l 1
 401 356 406 333 406 305 c 0
 406 180 297 149 250 149 c 0
 233 149 199 153 193 154 c 1
 166 146 133 111 133 91 c 0
 133 75 158 66 211 64 c 2
 340 59 l 2
 415 56 461 13 461 -48 c 0
 461 -150 318 -218 201 -218 c 0
 105 -218 28 -174 28 -122 c 0
 28 -83 56 -51 126 1 c 1
 85 21 73 34 73 54 c 0
 73 89 109 112 163 163 c 1
 97 196 69 234 69 297 c 0
 69 388 144 460 236 460 c 0
146 -1 m 1
 105 -53 98 -64 98 -88 c 0
 98 -132 157 -161 245 -161 c 0
 357 -161 434 -122 434 -64 c 0
 434 -28 400 -15 309 -15 c 0
 261 -15 180 -9 146 -1 c 1
152 335 m 0
 152 239 193 174 253 174 c 0
 300 174 330 209 330 265 c 0
 330 356 286 432 226 432 c 0
 196 432 152 417 152 335 c 0
EndSplineSet
EndChar

StartChar: h
Encoding: 104 104 72
Width: 499
Flags: W
HStem: 0 15<9 63.5493 168.471 226 275 331.643> 406 54<221.791 320.067> 663 20G<135.5 185.333>
VStem: 73 84<27.2871 343 376 621.364> 343 85<27.2871 381.3>
LayerCount: 2
Fore
SplineSet
157 343 m 1
 157 103 l 2
 157 34 167 21 226 15 c 1
 226 0 l 1
 9 0 l 1
 9 15 l 1
 67 23 73 32 73 103 c 2
 73 573 l 2
 73 617 64 624 22 624 c 0
 18 624 15 624 10 623 c 1
 10 639 l 1
 37 647 l 2
 92 664 119 671 152 683 c 1
 157 680 l 1
 157 376 l 1
 204 437 245 460 305 460 c 0
 385 460 428 406 428 302 c 2
 428 103 l 2
 428 34 434 25 488 15 c 1
 488 0 l 1
 275 0 l 1
 275 15 l 1
 333 21 343 34 343 103 c 2
 343 300 l 2
 343 371 318 406 268 406 c 0
 229 406 199 390 157 343 c 1
EndSplineSet
EndChar

StartChar: i
Encoding: 105 105 73
Width: 276
Flags: W
HStem: 0 15<16 84.2815 189.423 253> 440 20G<117.333 207.333> 582 101<86.853 171.141>
VStem: 78 102<591.593 673.18> 95 84<26.7615 392.521>
LayerCount: 2
Fore
SplineSet
174 460 m 1xe8
 179 457 l 1
 179 103 l 2
 179 29 187 21 253 15 c 1
 253 0 l 1
 16 0 l 1
 16 15 l 1
 85 19 95 29 95 103 c 2
 95 334 l 2
 95 378 86 394 62 394 c 0
 53 394 40 393 28 391 c 2
 21 390 l 1
 21 406 l 1
 174 460 l 1xe8
127 683 m 0
 157 683 180 661 180 633 c 0
 180 603 157 582 127 582 c 0
 100 582 78 603 78 633 c 0xf0
 78 661 101 683 127 683 c 0
EndSplineSet
EndChar

StartChar: j
Encoding: 106 106 74
Width: 276
Flags: MW
HStem: -218 33<-2.13136 86.2705> 440 20G<158 193> 582 101<101.117 184.51>
VStem: 92 101<590.898 673.883> 108 85<-122.635 -45 -45 392.915>
LayerCount: 2
Fore
SplineSet
78 394 m 0
 55 394 42 391 32 390 c 1
 32 406 l 1
 91 423 129 437 187 460 c 1
 193 457 l 1
 193 0 l 2
 193 -142 133 -218 23 -218 c 0
 -29 -218 -70 -195 -70 -163 c 0
 -70 -141 -53 -125 -29 -125 c 0
 13 -125 23 -185 62 -185 c 0
 75 -185 89 -176 95 -166 c 0
 105 -146 108 -122 108 -45 c 2
 108 334 l 2
 108 376 100 394 78 394 c 0
142 683 m 0
 171 683 193 661 193 633 c 0
 193 603 171 582 142 582 c 0
 114 582 92 603 92 633 c 0
 92 661 116 683 142 683 c 0
EndSplineSet
EndChar

StartChar: k
Encoding: 107 107 75
Width: 499
Flags: MW
HStem: 0 15<172.524 242 287 319.906 440.958 505> 435 15<275 326.991 398.534 480> 663 20G<144 166>
VStem: 82 84<26.4517 250 261 622.219>
LayerCount: 2
Fore
SplineSet
7 623 m 1
 7 639 l 1
 37 647 l 2
 95 664 125 671 163 683 c 1
 166 681 l 1
 166 261 l 1
 303 384 l 2
 316 395 327 409 327 417 c 0
 327 431 315 435 275 437 c 1
 275 450 l 1
 480 450 l 1
 480 435 l 1
 472 435 l 2
 434 435 399 435 264 309 c 2
 234 283 l 1
 388 88 l 2
 431 37 461 18 505 15 c 1
 505 0 l 1
 287 0 l 1
 287 15 l 1
 306 15 l 2
 318 15 327 21 327 29 c 0
 327 41 313 53 306 64 c 2
 166 250 l 1
 166 67 l 2
 166 32 182 18 221 16 c 2
 242 15 l 1
 242 0 l 1
 7 0 l 1
 7 15 l 1
 79 26 82 29 82 82 c 2
 82 564 l 2
 82 612 72 625 40 625 c 0
 29 625 21 624 7 623 c 1
EndSplineSet
EndChar

StartChar: l
Encoding: 108 108 76
Width: 276
Flags: W
HStem: 0 15<21 85.7833 190.195 256> 663 20G<152.5 209>
VStem: 98 84<28.734 622.078>
LayerCount: 2
Fore
SplineSet
19 623 m 1
 19 639 l 1
 88 656 126 666 179 683 c 1
 182 681 l 1
 182 83 l 2
 182 29 193 19 256 15 c 1
 256 0 l 1
 21 0 l 1
 21 15 l 1
 83 21 98 34 98 86 c 2
 98 564 l 2
 98 611 88 625 56 625 c 0
 48 625 37 624 25 623 c 2
 19 623 l 1
EndSplineSet
EndChar

StartChar: m
Encoding: 109 109 77
Width: 777
Flags: W
HStem: 0 15<185 238.168> 0 18<16 77.191 286 345.499 449.751 510 557 615.266 712.189 775> 409 51<244.752 334.062 503.98 603.672>
VStem: 86 84<24.1863 353.94> 354 84<26.379 303> 623 83<24.8676 389.148>
LayerCount: 2
Fore
SplineSet
19 398 m 1xbc
 19 415 l 1
 75 431 108 441 160 460 c 1
 166 458 l 1
 166 384 l 1
 249 447 277 460 321 460 c 0
 375 460 409 434 428 376 c 1
 480 434 532 460 590 460 c 0
 666 460 706 400 706 283 c 2
 706 76 l 2
 706 37 719 19 749 18 c 2x7c
 775 15 l 1xbc
 775 0 l 1
 557 0 l 1x7c
 557 15 l 1
 614 22 623 29 623 86 c 2
 623 297 l 2
 623 381 603 409 546 409 c 0
 501 409 469 390 438 347 c 1
 438 95 l 2
 438 34 453 16 510 15 c 1xbc
 510 0 l 1
 286 0 l 1x7c
 286 15 l 1
 343 19 354 29 354 86 c 2
 354 303 l 2
 354 374 333 409 289 409 c 0
 253 409 209 391 185 368 c 0
 179 360 170 352 170 349 c 2
 170 67 l 2
 170 28 185 18 239 15 c 1xbc
 239 0 l 1
 16 0 l 1x7c
 16 15 l 1
 72 16 86 31 86 85 c 2
 86 338 l 2
 86 387 78 401 51 401 c 0
 40 401 32 401 19 398 c 1xbc
EndSplineSet
EndChar

StartChar: n
Encoding: 110 110 78
Width: 499
Flags: W
HStem: 0 15<18 69 179 230 277 327 437 485> 406 54<233.824 319.437>
VStem: 81 80<26.1836 67 67 349 379 398.047> 340 83<27.041 383.548>
LayerCount: 2
Fore
SplineSet
16 398 m 1
 16 415 l 1
 70 431 105 442 154 460 c 1
 161 458 l 1
 161 379 l 1
 229 442 261 460 306 460 c 0
 379 460 423 404 423 311 c 2
 423 81 l 2
 423 32 437 21 485 15 c 1
 485 0 l 1
 277 0 l 1
 277 15 l 1
 327 19 340 37 340 100 c 2
 340 308 l 2
 340 374 316 406 267 406 c 0
 234 406 212 393 164 349 c 1
 164 67 l 2
 164 31 179 19 230 15 c 1
 230 0 l 1
 18 0 l 1
 18 15 l 1
 69 19 81 34 81 89 c 2
 81 338 l 2
 81 387 70 401 42 401 c 0
 32 401 22 401 16 398 c 1
EndSplineSet
EndChar

StartChar: o
Encoding: 111 111 79
Width: 499
Flags: W
HStem: -10 28<201.772 322.087> 432 28<174.634 298.598>
VStem: 29 90<135.385 332.204> 379 91<127.249 328.744>
LayerCount: 2
Fore
SplineSet
250 460 m 0
 378 460 470 365 470 234 c 0
 470 97 374 -10 248 -10 c 0
 122 -10 29 91 29 226 c 0
 29 365 120 460 250 460 c 0
119 275 m 0
 119 173 155 18 261 18 c 0
 335 18 379 86 379 199 c 0
 379 335 321 432 237 432 c 0
 166 432 119 371 119 275 c 0
EndSplineSet
EndChar

StartChar: p
Encoding: 112 112 80
Width: 499
Flags: W
HStem: -217 18<4 64.689 169.134 248> -10 32<195.314 323.514> 400 60<223.323 321.589>
VStem: 75 85<-188.266 34 53.0357 369.835 381 392.004> 384 86<133.581 323.372>
LayerCount: 2
Fore
SplineSet
9 393 m 1
 9 409 l 1
 64 426 100 439 152 460 c 1
 160 458 l 1
 160 381 l 1
 204 435 248 460 303 460 c 0
 400 460 470 371 470 248 c 0
 470 103 378 -10 261 -10 c 0
 218 -10 193 0 160 34 c 1
 160 -125 l 2
 160 -187 171 -198 248 -199 c 1
 248 -217 l 1
 4 -217 l 1
 4 -201 l 1
 64 -193 75 -183 75 -130 c 2
 75 337 l 2
 75 384 67 394 34 394 c 0
 25 394 18 394 9 393 c 1
160 334 m 2
 160 88 l 2
 160 59 215 22 264 22 c 0
 335 22 384 97 384 208 c 0
 384 324 335 400 261 400 c 0
 215 400 160 365 160 334 c 2
EndSplineSet
EndChar

StartChar: q
Encoding: 113 113 81
Width: 499
Flags: MW
HStem: -217 16<252 325.88> -10 61<174.771 273.117> 434 27<178.212 313.418>
VStem: 23 87<128.174 317.023> 341 84<-184.416 64 97.4398 407.018>
LayerCount: 2
Fore
SplineSet
360 425 m 1
 415 457 l 1
 425 457 l 1
 425 -141 l 2
 425 -183 434 -190 488 -204 c 1
 488 -217 l 1
 252 -217 l 1
 252 -201 l 1
 324 -195 341 -180 341 -125 c 2
 341 64 l 1
 297 16 242 -10 185 -10 c 0
 89 -10 23 79 23 205 c 0
 23 349 120 461 245 461 c 0
 284 461 313 453 360 425 c 1
110 242 m 0
 110 164 136 51 242 51 c 0
 272 51 305 63 327 82 c 0
 337 89 341 103 341 127 c 2
 341 333 l 2
 341 400 311 434 248 434 c 0
 163 434 110 359 110 242 c 0
EndSplineSet
EndChar

StartChar: r
Encoding: 114 114 82
Width: 332
Flags: W
HStem: 0 15<173.635 245> 390 16<7 38.7061> 397 63<221.752 288.577>
VStem: 76 84<29.5046 363.261 366 392.233>
LayerCount: 2
Fore
SplineSet
296 362 m 0xb0
 266 362 250 397 230 397 c 0xb0
 204 397 160 347 160 315 c 2
 160 89 l 2
 160 34 177 18 245 15 c 1
 245 0 l 1
 4 0 l 1
 4 15 l 1
 69 26 76 34 76 83 c 2
 76 334 l 2
 76 378 67 394 42 394 c 0
 29 394 21 393 7 390 c 1
 7 406 l 1xd0
 66 425 103 438 155 460 c 1
 160 458 l 1
 160 366 l 1
 209 437 239 460 280 460 c 0
 313 460 335 439 335 407 c 0
 335 379 319 362 296 362 c 0xb0
EndSplineSet
EndChar

StartChar: s
Encoding: 115 115 83
Width: 388
Flags: MW
HStem: -10 22<126.376 258.363> 437 21<132.104 251.699>
VStem: 51 62<317.501 404.664> 278 71<52.1853 136.438>
LayerCount: 2
Fore
SplineSet
284 439 m 0
 287 439 288 439 300 450 c 1
 311 450 l 1
 315 313 l 1
 300 313 l 1
 277 403 248 437 190 437 c 0
 144 437 113 409 113 369 c 0
 113 343 127 316 157 302 c 2
 264 237 l 2
 324 201 349 168 349 119 c 0
 349 48 284 -10 207 -10 c 0
 165 -10 116 7 88 7 c 0
 76 7 72 6 64 -4 c 1
 53 -4 l 1
 53 152 l 1
 67 152 l 1
 78 108 95 12 195 12 c 0
 246 12 278 40 278 83 c 0
 278 116 261 139 226 160 c 2
 168 192 l 2
 83 240 51 280 51 335 c 0
 51 409 108 458 187 458 c 0
 255 458 260 439 284 439 c 0
EndSplineSet
EndChar

StartChar: t
Encoding: 116 116 84
Width: 276
Flags: W
HStem: -10 52<130 228.792> 417 33<154 255>
VStem: 70 84<53.5207 417>
LayerCount: 2
Fore
SplineSet
255 450 m 1
 255 417 l 1
 154 417 l 1
 154 132 l 2
 154 69 168 42 207 42 c 0
 229 42 245 53 267 78 c 1
 278 66 l 1
 246 15 208 -10 160 -10 c 0
 100 -10 70 34 70 117 c 2
 70 417 l 1
 18 417 l 1
 15 420 13 422 13 425 c 0
 13 431 19 437 29 444 c 1
 45 448 89 497 127 551 c 0
 133 561 141 570 146 579 c 1
 152 579 154 576 154 565 c 2
 154 450 l 1
 255 450 l 1
EndSplineSet
EndChar

StartChar: u
Encoding: 117 117 85
Width: 499
Flags: W
HStem: -10 58<177.848 266.557> 434 16<259 320.235> 437 13<8.18908 56.1891>
VStem: 70 85<70.375 427.692> 333 84<106.775 425.034>
LayerCount: 2
Fore
SplineSet
479 50 m 1xb8
 479 37 l 1
 428 22 393 12 343 -9 c 1
 338 -7 l 1
 338 76 l 1
 294 34 l 2
 268 6 229 -10 192 -10 c 0
 119 -10 70 41 70 120 c 2
 70 372 l 2
 70 417 57 434 9 437 c 1
 9 450 l 1
 155 450 l 1xb8
 155 125 l 2
 155 82 187 48 226 48 c 0
 256 48 287 60 313 82 c 0
 328 92 333 107 333 135 c 2
 333 371 l 2
 333 420 321 431 259 434 c 1
 259 450 l 1xd8
 417 450 l 1
 417 107 l 2
 417 62 428 50 475 50 c 2
 479 50 l 1xb8
EndSplineSet
EndChar

StartChar: v
Encoding: 118 118 86
Width: 499
Flags: W
HStem: -15 21G<251 259> 435 15<19 62.6516 338 383.225 439.174 478 19 478 19 19>
LayerCount: 2
Fore
SplineSet
478 450 m 1
 478 435 l 1
 447 432 441 425 412 357 c 2
 284 37 l 2
 270 -1 262 -15 256 -15 c 0
 246 -15 232 30 230 34 c 2
 110 319 l 2
 64 423 57 434 19 435 c 1
 19 450 l 1
 215 450 l 1
 215 435 l 1
 180 432 168 425 168 407 c 0
 168 398 174 385 179 371 c 2
 280 114 l 1
 379 374 l 2
 384 384 385 393 385 403 c 0
 385 422 371 432 338 435 c 1
 338 450 l 1
 478 450 l 1
EndSplineSet
EndChar

StartChar: w
Encoding: 119 119 87
Width: 720
Flags: W
HStem: -15 21G<231.5 237 484 491> 435 15<21 55.9499 262 307.75 409.974 464>
LayerCount: 2
Fore
SplineSet
352 311 m 1
 313 422 303 431 262 435 c 1
 262 450 l 1
 464 450 l 1
 464 435 l 1
 417 428 407 420 407 398 c 0
 407 387 407 387 423 340 c 2
 508 116 l 1
 598 338 l 2
 609 365 615 390 615 404 c 0
 615 420 605 428 571 435 c 1
 571 450 l 1
 694 450 l 1
 694 435 l 1
 674 428 671 423 653 381 c 2
 516 35 l 2
 499 -4 494 -15 488 -15 c 0
 480 -15 478 -7 463 29 c 2
 372 265 l 1
 261 25 l 2
 248 -1 240 -15 234 -15 c 0
 229 -15 221 0 209 29 c 2
 75 372 l 2
 55 424 44 434 21 435 c 1
 21 450 l 1
 201 450 l 1
 201 435 l 1
 167 431 155 423 155 401 c 0
 155 393 157 382 161 372 c 2
 261 111 l 1
 352 311 l 1
EndSplineSet
EndChar

StartChar: x
Encoding: 120 120 88
Width: 499
Flags: W
HStem: 0 15<18 66.1277 122.008 163 428.395 479> 435 15<23 73.41 188.49 231 275 313.879 383.859 434>
LayerCount: 2
Fore
SplineSet
278 0 m 1
 278 15 l 1
 311 18 318 21 318 40 c 0
 318 45 316 51 312 57 c 2
 221 198 l 1
 142 75 l 2
 129 54 122 40 122 34 c 0
 122 21 133 15 163 15 c 1
 163 0 l 1
 18 0 l 1
 18 15 l 1
 50 18 60 25 89 66 c 1
 204 231 l 1
 110 375 l 2
 79 422 63 435 34 435 c 2
 23 435 l 1
 23 450 l 1
 231 450 l 1
 231 435 l 1
 201 434 187 428 187 413 c 0
 187 400 207 366 234 324 c 2
 248 305 l 1
 261 324 272 343 278 349 c 0
 303 379 315 401 315 413 c 0
 315 428 305 434 275 435 c 1
 275 450 l 1
 434 450 l 1
 434 435 l 1
 401 434 371 417 352 391 c 2
 270 271 l 1
 397 75 l 1
 428 31 448 15 479 15 c 1
 479 0 l 1
 278 0 l 1
EndSplineSet
EndChar

StartChar: y
Encoding: 121 121 89
Width: 499
Flags: W
HStem: -218 85<74.4089 168.23> 435 15<165.859 220 340 385.363 443.933 475>
LayerCount: 2
Fore
SplineSet
475 450 m 1
 475 435 l 1
 451 432 439 422 428 390 c 1
 272 -18 l 2
 220 -163 171 -218 104 -218 c 0
 62 -218 29 -193 29 -160 c 0
 29 -136 50 -116 73 -116 c 0
 89 -116 107 -120 126 -127 c 0
 136 -132 145 -133 151 -133 c 0
 166 -133 187 -116 201 -89 c 0
 218 -59 242 4 242 19 c 0
 242 34 226 70 198 120 c 1
 182 149 l 1
 179 158 l 1
 64 404 l 2
 57 420 40 432 15 437 c 1
 15 450 l 1
 220 450 l 1
 220 435 l 1
 177 434 163 426 163 409 c 0
 163 397 166 384 171 371 c 2
 287 117 l 1
 384 393 l 1
 387 400 388 406 388 410 c 0
 388 426 372 435 340 435 c 1
 340 450 l 1
 475 450 l 1
EndSplineSet
EndChar

StartChar: z
Encoding: 122 122 90
Width: 443
Flags: MW
HStem: 0 29<133 365.724> 420 30<89.761 293>
VStem: 26 107<0 29 15 29> 53 17<333 401.4> 293 110<420 450> 400 17<60.4074 136.648>
LayerCount: 2
Fore
SplineSet
417 135 m 1
 404 0 l 1
 26 0 l 1
 26 15 l 1
 293 420 l 1
 155 420 l 2
 95 420 81 406 70 333 c 1
 53 333 l 1
 56 450 l 1
 403 450 l 1
 403 435 l 1
 133 29 l 1
 272 29 l 2
 324 29 357 40 371 56 c 0
 384 73 390 89 400 139 c 1
 417 135 l 1
EndSplineSet
EndChar

StartChar: braceleft
Encoding: 123 123 91
Width: 478
Flags: W
VStem: 185 74<-131.438 212.6 286.38 630.261>
LayerCount: 2
Fore
SplineSet
350 -170 m 1
 350 -182 l 1
 284 -180 256 -174 229 -157 c 0
 201 -138 185 -97 185 -41 c 2
 185 136 l 2
 185 205 167 229 100 250 c 1
 167 270 185 293 185 363 c 2
 185 541 l 2
 185 598 201 637 229 655 c 0
 258 674 284 680 350 680 c 1
 350 669 l 1
 281 650 259 621 259 546 c 2
 259 378 l 2
 259 294 240 270 166 249 c 1
 240 230 259 204 259 122 c 2
 259 -47 l 2
 259 -122 281 -152 350 -170 c 1
EndSplineSet
EndChar

StartChar: bar
Encoding: 124 124 92
Width: 199
Flags: W
HStem: -15 21G<67 133> 657 20G<67 133>
VStem: 67 66<-15 677>
LayerCount: 2
Fore
SplineSet
67 -15 m 1
 67 677 l 1
 133 677 l 1
 133 -15 l 1
 67 -15 l 1
EndSplineSet
EndChar

StartChar: braceright
Encoding: 125 125 93
Width: 478
Flags: W
VStem: 221 73<-131.647 211.75 286.53 630.17>
LayerCount: 2
Fore
SplineSet
130 669 m 1
 130 680 l 1
 198 680 223 674 250 655 c 0
 278 637 294 596 294 541 c 2
 294 363 l 2
 294 293 313 270 379 250 c 1
 313 229 294 207 294 136 c 2
 294 -42 l 2
 294 -100 280 -138 250 -157 c 0
 223 -174 196 -180 130 -182 c 1
 130 -170 l 1
 199 -152 221 -122 221 -47 c 2
 221 122 l 2
 221 204 240 230 315 250 c 1
 240 270 221 294 221 378 c 2
 221 546 l 2
 221 621 199 650 130 669 c 1
EndSplineSet
EndChar

StartChar: asciitilde
Encoding: 126 126 94
Width: 540
Flags: W
HStem: 186 66<323.785 424.968> 253 66<115.78 219.853>
VStem: 40 462<234 271>
LayerCount: 2
Fore
SplineSet
448 303 m 1
 502 271 l 1
 456 207 425 186 379 186 c 0
 334 186 316 193 227 240 c 0
 209 249 189 253 168 253 c 0
 138 253 120 242 94 204 c 1
 40 234 l 1
 86 299 117 319 163 319 c 0
 208 319 226 313 315 267 c 0
 333 256 353 252 374 252 c 0
 406 252 422 264 448 303 c 1
EndSplineSet
EndChar

StartChar: uni0E10.descless
Encoding: 128 63232 95
Width: 520
Flags: W
HStem: 0 21G<283 359> 155 28<118.751 177.821> 289 33<119.076 177.859> 409 30<78.4703 204.375> 463 42<304.796 399.438> 499 65<111.666 266.521>
VStem: 85 28<185.795 285.708> 185 27<187.653 266.72> 283 76<0 173.5 236 348.649>
LayerCount: 2
Back
SplineSet
283 0 m 1xf780
 283 141 252 231 205 272 c 1
 209 262 212 250 212 234 c 0
 212 193 187 155 148 155 c 0
 113 155 85 198 85 237 c 0
 85 286 111 322 166 322 c 0
 217 322 261 293 283 236 c 1
 283 287 l 1
 280 395 158 409 29 409 c 1
 41 494 104 564 186 564 c 0xf780
 214 564 240 560 268 546 c 0
 291 535 338 505 356 505 c 0
 390 505 403 527 416 557 c 1
 447 557 l 1
 429 494 393 463 338 463 c 0xfb80
 322 463 297 467 262 479 c 0
 229 489 201 499 183 499 c 0
 126 499 91 479 78 437 c 1
 88 438 100 439 135 439 c 0
 254 439 356 393 359 289 c 1
 359 0 l 1
 283 0 l 1xf780
185 237 m 0
 185 261 171 289 148 289 c 0
 126 289 113 267 113 237 c 0
 113 202 126 183 148 183 c 0
 167 183 185 202 185 237 c 0
EndSplineSet
Fore
SplineSet
338 463 m 0xfb80
 292 463 216 499 183 499 c 0
 126 499 91 479 78 437 c 1
 88 438 100 439 135 439 c 0
 254 439 359 392 359 289 c 2
 359 0 l 1
 283 0 l 1
 283 141 252 231 205 272 c 1
 209 262 212 250 212 234 c 0
 212 193 187 155 148 155 c 0
 113 155 85 198 85 237 c 0
 85 286 111 322 166 322 c 0
 217 322 261 293 283 236 c 1
 283 287 l 2
 283 393 158 409 29 409 c 1
 41 494 104 564 186 564 c 0xf780
 275 564 320 505 356 505 c 0
 390 505 403 527 416 557 c 1
 447 557 l 1
 429 494 393 463 338 463 c 0xfb80
185 237 m 0
 185 261 171 289 148 289 c 0
 126 289 113 267 113 237 c 0
 113 202 126 183 148 183 c 0
 167 183 185 202 185 237 c 0
EndSplineSet
EndChar

StartChar: uni0E34.left
Encoding: 129 63233 96
Width: 0
Flags: W
HStem: 668 21<-248 -236.5> 693 39<-502.923 -498.325 -498.325 -407.94> 798 52<-486.232 -346.097>
VStem: -602 82<734.805 783.965>
LayerCount: 2
Back
SplineSet
-234 668 m 1
 -250 715 -333 798 -417 798 c 0
 -454 798 -507 790 -507 754 c 0
 -507 732 -475 731 -450 731 c 0
 -357 731 -293 706 -234 668 c 1
-198 618 m 1
 -234 643 -284 664 -335 677 c 1
 -366 687 -406 693 -445 693 c 2
 -473 693 l 2
 -483 693 -494 693 -501 691 c 0
 -550 691 -586 706 -586 740 c 0
 -586 773 -551 809 -526 825 c 0
 -498 841 -464 850 -425 850 c 0
 -324 850 -198 751 -198 618 c 1
EndSplineSet
Fore
Refer: 179 3636 N 1 0 0 1 -82 0 2
EndChar

StartChar: uni0E35.left
Encoding: 130 63234 97
Width: 0
Flags: W
HStem: 668 21<-248 -236.5> 693 39<-502.923 -498.325 -498.325 -407.94> 798 52<-486.232 -344.178>
VStem: -602 82<734.805 783.965> -278 57<787 902>
LayerCount: 2
Back
SplineSet
-198 618 m 1
 -234 643 -284 664 -335 677 c 1
 -366 687 -406 693 -445 693 c 2
 -473 693 l 2
 -483 693 -494 693 -501 691 c 0
 -550 691 -586 706 -586 740 c 0
 -586 773 -551 809 -526 825 c 0
 -498 841 -464 850 -425 850 c 0
 -374 850 -322 826 -277 787 c 1
 -277 901 l 1
 -220 901 l 1
 -220 712 l 1
 -205 683 -198 652 -198 618 c 1
-234 668 m 1
 -250 715 -333 798 -417 798 c 0
 -454 798 -507 790 -507 754 c 0
 -507 732 -475 731 -450 731 c 0
 -357 731 -293 706 -234 668 c 1
EndSplineSet
Fore
Refer: 180 3637 N 1 0 0 1 -82 0 2
EndChar

StartChar: uni0E36.left
Encoding: 131 63235 98
Width: 0
Flags: W
HStem: 668 21<-248 -236.5> 693 39<-502.923 -498.325 -498.325 -407.94> 798 52<-486.232 -373.845> 872 36<-309.679 -234.557>
VStem: -602 82<734.805 783.965> -353 37<832 866.17> -228 36<790.345 865.286>
LayerCount: 2
Back
SplineSet
-198 618 m 1
 -234 643 -284 664 -335 677 c 1
 -366 687 -406 693 -445 693 c 2
 -473 693 l 2
 -483 693 -494 693 -501 691 c 0
 -550 691 -586 706 -586 740 c 0
 -586 773 -551 809 -526 825 c 0
 -498 841 -464 850 -425 850 c 0
 -403 850 -379 845 -357 836 c 1
 -350 873 -318 901 -278 901 c 0
 -233 901 -198 866 -198 820 c 0
 -198 790 -214 762 -242 749 c 1
 -212 710 -198 666 -198 618 c 1
-234 668 m 1
 -250 715 -333 798 -417 798 c 0
 -454 798 -507 790 -507 754 c 0
 -507 732 -475 731 -450 731 c 0
 -357 731 -293 706 -234 668 c 1
-322 820 m 0
 -322 795 -303 776 -278 776 c 0
 -253 776 -234 795 -234 820 c 0
 -234 845 -253 864 -278 864 c 0
 -303 864 -322 845 -322 820 c 0
EndSplineSet
Fore
Refer: 181 3638 N 1 0 0 1 -82 0 2
EndChar

StartChar: uni0E37.left
Encoding: 132 63236 99
Width: 0
Flags: W
HStem: 668 21<-248 -236.5> 693 39<-502.923 -498.325 -498.325 -407.94> 798 52<-486.232 -384.854>
VStem: -602 82<734.805 783.965> -366 57<836 901> -278 57<787 901>
LayerCount: 2
Back
SplineSet
-198 618 m 1
 -234 643 -284 664 -335 677 c 1
 -366 687 -406 693 -445 693 c 2
 -473 693 l 2
 -483 693 -494 693 -501 691 c 0
 -550 691 -586 706 -586 740 c 0
 -586 773 -551 809 -526 825 c 0
 -498 841 -464 850 -425 850 c 0
 -403 850 -381 845 -359 836 c 1
 -359 901 l 1
 -308 901 l 1
 -308 810 l 1
 -294 801 -281 792 -271 782 c 1
 -271 901 l 1
 -220 901 l 1
 -220 712 l 1
 -205 683 -198 652 -198 618 c 1
-234 668 m 1
 -250 715 -333 798 -417 798 c 0
 -454 798 -507 790 -507 754 c 0
 -507 732 -475 731 -450 731 c 0
 -410 731 -387 727 -353 719 c 0
 -308 709 -271 691 -234 668 c 1
EndSplineSet
Fore
Refer: 182 3639 N 1 0 0 1 -82 0 2
EndChar

StartChar: ellipsis
Encoding: 133 8230 100
Width: 998
Flags: W
HStem: -12 112<122.847 210.386 455.847 542.694 789.772 876.003>
VStem: 111 112<1.24292 87.0681> 444 111<1.24292 87.9281> 778 110<0.388973 87.9281>
LayerCount: 2
Fore
SplineSet
166 100 m 0
 196 100 223 75 223 42 c 0
 223 15 196 -12 166 -12 c 0
 136 -12 111 15 111 42 c 0
 111 75 136 100 166 100 c 0
499 100 m 0
 529 100 555 75 555 42 c 0
 555 15 529 -12 498 -12 c 0
 469 -12 444 15 444 42 c 0
 444 75 469 100 499 100 c 0
832 100 m 0
 863 100 888 75 888 42 c 0
 888 15 863 -12 831 -12 c 0
 803 -12 778 15 778 42 c 0
 778 75 803 100 832 100 c 0
EndSplineSet
EndChar

StartChar: uni0E48.low_left
Encoding: 134 63237 101
Width: 0
Flags: W
VStem: -312 73<821.8 874 874 874>
LayerCount: 2
Back
SplineSet
-238.889 874.731 m 1
 -244.61 786.757 l 1
 -261.062 665.169 l 1
 -262.49 656.585 -268.212 651.578 -276.796 651.578 c 0
 -285.378 651.578 -291.1 656.585 -293.246 665.169 c 1
 -307.551 786.757 l 1
 -311.843 874.731 l 1
 -238.889 874.731 l 1
EndSplineSet
Fore
Refer: 106 63242 N 1 0 0 1 -117 0 0
EndChar

StartChar: uni0E49.low_left
Encoding: 135 63238 102
Width: 0
Flags: W
HStem: 651 26<-523 -469.064> 651 34<-447 -362.6> 726 27<-483.42 -446.425> 853 29<-484.44 -427.983>
VStem: -517 28<755.201 851.033> -423 29<755.791 849.137> -283 71<780.293 882>
LayerCount: 2
Back
SplineSet
-212.426 883.313 m 1
 -212.426 808.93 -238.174 750.996 -290.385 708.798 c 0
 -312.558 691.632 -336.16 677.326 -360.479 667.313 c 0
 -384.796 657.3 -412.689 651.578 -444.161 651.578 c 2
 -522.837 651.578 l 1
 -522.837 678.043 l 1
 -489.937 680.903 -464.188 698.068 -445.591 728.108 c 1
 -455.604 726.679 l 2
 -496.372 726.679 -517.114 753.142 -517.114 805.354 c 0
 -517.114 825.381 -511.393 843.262 -499.949 858.997 c 0
 -489.22 875.446 -474.199 883.313 -455.604 883.313 c 0
 -437.724 883.313 -423.418 875.446 -411.26 859.712 c 0
 -399.815 843.977 -394.094 826.811 -394.094 806.784 c 0
 -394.094 751.712 -411.26 710.943 -447.021 685.194 c 1
 -389.803 685.194 -348.319 705.221 -322.571 743.843 c 0
 -309.697 761.726 -299.684 781.751 -293.246 804.638 c 0
 -286.093 827.525 -282.518 853.99 -282.518 883.313 c 1
 -212.426 883.313 l 1
-423.418 805.354 m 0
 -423.418 819.658 -426.28 831.103 -431.287 840.399 c 0
 -437.009 848.983 -444.876 853.99 -455.604 853.99 c 0
 -477.776 853.99 -489.22 837.539 -489.22 805.354 c 0
 -489.22 771.737 -477.776 754.572 -455.604 754.572 c 0
 -434.147 754.572 -423.418 771.737 -423.418 805.354 c 0
EndSplineSet
Fore
Refer: 107 63243 N 1 0 0 1 -158 -1 0
EndChar

StartChar: uni0E4A.low_left
Encoding: 136 63239 103
Width: 0
Flags: W
HStem: 652 25<-553.716 -495.578> 779 24<-526 -496.76> 816 32<-506.139 -450.449 -407.226 -341.604>
VStem: -587 28<679.754 768.573> -491 27<681.541 774.454> -442 28<753 806.387> -335 36<705.719 811.164> -268 62<740.645 798 798 853>
LayerCount: 2
Back
SplineSet
-206.702 852.559 m 1
 -206.702 716.665 -270.358 648.718 -398.386 648.718 c 1
 -398.386 678.043 l 1
 -381.935 682.333 -366.915 692.347 -354.757 708.081 c 0
 -341.882 724.532 -335.445 741.698 -335.445 760.294 c 0
 -335.445 797.487 -349.034 816.083 -376.213 816.083 c 0
 -401.962 816.083 -414.836 794.625 -414.836 753.142 c 1
 -442.015 753.142 l 1
 -442.015 794.625 -457.035 816.083 -486.359 816.083 c 0
 -496.372 816.083 -505.671 811.791 -514.253 802.493 c 1
 -497.804 802.493 -484.93 795.341 -477.062 781.751 c 0
 -468.479 767.447 -464.188 749.566 -464.188 728.108 c 0
 -464.188 677.326 -484.93 651.578 -525.697 651.578 c 0
 -542.147 651.578 -557.167 660.162 -569.327 675.896 c 0
 -581.486 692.347 -587.208 709.513 -587.208 728.108 c 0
 -587.208 750.281 -582.916 771.022 -574.333 789.618 c 0
 -566.466 803.923 -555.738 817.512 -542.862 829.672 c 0
 -529.273 841.831 -510.678 848.269 -486.359 848.269 c 0
 -460.61 848.269 -442.015 834.678 -429.141 806.784 c 1
 -426.28 818.943 -419.843 828.242 -409.829 836.109 c 0
 -400.532 843.977 -389.803 848.269 -379.074 848.269 c 0
 -325.432 848.269 -298.969 819.658 -298.969 761.726 c 0
 -298.969 725.247 -311.126 698.068 -335.445 679.473 c 1
 -290.385 697.354 -268.212 736.691 -268.212 798.202 c 2
 -268.212 823.235 l 1
 -271.074 852.559 l 1
 -206.702 852.559 l 1
-490.65 728.108 m 0
 -490.65 743.843 -493.512 756.002 -499.233 765.301 c 0
 -505.671 774.6 -514.253 779.606 -525.697 779.606 c 0
 -536.426 779.606 -545.008 773.883 -550.731 763.155 c 0
 -556.452 752.427 -559.313 740.982 -559.313 728.108 c 0
 -559.313 713.088 -556.453 700.931 -550.731 691.632 c 0
 -545.008 681.618 -536.426 676.611 -525.697 676.611 c 0
 -502.094 676.611 -490.65 693.777 -490.65 728.108 c 0
EndSplineSet
Fore
Refer: 108 63244 N 1 0 0 1 -164 0 0
EndChar

StartChar: uni0E4B.low_left
Encoding: 137 63240 104
Width: 0
Flags: W
HStem: 744 47<-471 -385 -310 -224>
VStem: -389 83<814 883> -385 75<674.25 744 791 860>
LayerCount: 2
Back
SplineSet
-389.803 883.313 m 1
 -385.512 791.049 l 1
 -471.339 791.049 l 1
 -471.339 743.843 l 1
 -384.081 743.843 l 1
 -379.074 651.578 l 1
 -316.133 651.578 l 1
 -311.843 743.843 l 1
 -223.868 743.843 l 1
 -223.868 791.049 l 1
 -310.412 791.049 l 1
 -306.12 883.313 l 1
 -389.803 883.313 l 1
EndSplineSet
Fore
Refer: 109 63245 N 1 0 0 1 -149 -59 0
EndChar

StartChar: uni0E4C.low_left
Encoding: 138 63241 105
Width: 0
Flags: W
HStem: 652 38<-376.631 -318.089>
VStem: -446 63<694.44 803.845> -302 38<695.923 803.051> -216 69<925.338 972.454 972.454 983>
LayerCount: 2
Back
SplineSet
-290 743 m 1
 -290 743 -291 762 -296 775 c 1
 -303 788 -313 795 -327 795 c 0
 -346 795 -362 778 -362 743 c 0
 -362 705 -350 686 -327 686 c 0
 -319 686 -308 691 -297 702 c 1
 -291 713 -290 731 -290 743 c 1
-151 967 m 1
 -149 962 -149 955 -149 945 c 0
 -149 914 -166 891 -220 872 c 0
 -253 860 -291 842 -308 826 c 1
 -274 817 -256 790 -256 741 c 0
 -256 694 -287 652 -330 652 c 0
 -381 652 -420 691 -420 743 c 0
 -420 811 -372 853 -277 880 c 0
 -226 896 -204 911 -214 952 c 1
 -151 967 l 1
EndSplineSet
Fore
Refer: 110 63246 N 1 0 0 1 -52 0 2
EndChar

StartChar: uni0E48.low
Encoding: 139 63242 106
Width: 0
Flags: W
VStem: -195 73<821.8 874 874 874>
AnchorPoint: "AboveBase" -109 615 mark 0
LayerCount: 2
Back
SplineSet
-121.59 874.731 m 1
 -127.312 786.757 l 1
 -143.762 665.169 l 1
 -145.192 656.585 -150.914 651.578 -159.498 651.578 c 0
 -168.795 651.578 -173.802 656.585 -175.947 665.169 c 1
 -190.253 786.757 l 1
 -194.543 874.731 l 1
 -121.59 874.731 l 1
EndSplineSet
Fore
SplineSet
-122 874 m 1
 -127 787 l 1
 -144 665 l 1
 -145 656 -151 652 -160 652 c 0
 -168 652 -174 656 -176 665 c 1
 -190 787 l 1
 -195 874 l 1
 -122 874 l 1
EndSplineSet
EndChar

StartChar: uni0E49.low
Encoding: 140 63243 107
Width: 0
Flags: W
HStem: 652 26<-365 -311.064> 652 34<-289 -204.6> 727 27<-325.42 -288.425> 854 29<-326.44 -269.983>
VStem: -359 28<756.201 852.033> -265 29<756.791 850.137> -125 71<781.293 883>
AnchorPoint: "AboveBase" -109 615 mark 0
LayerCount: 2
Back
SplineSet
-54.3574 883.313 m 1
 -54.3574 808.93 -80.1064 750.996 -131.604 708.798 c 0
 -154.491 691.632 -177.379 677.326 -202.412 667.313 c 0
 -226.729 657.3 -254.623 651.578 -285.378 651.578 c 2
 -364.769 651.578 l 1
 -364.769 678.043 l 1
 -331.868 680.903 -305.405 698.068 -286.81 728.108 c 1
 -297.537 726.679 l 2
 -338.306 726.679 -359.048 753.142 -359.048 805.354 c 0
 -359.048 825.381 -353.326 843.262 -341.882 858.997 c 0
 -331.153 875.446 -316.133 883.313 -297.537 883.313 c 0
 -279.656 883.313 -265.352 875.446 -253.193 859.712 c 0
 -241.749 843.977 -236.027 826.811 -236.027 806.784 c 0
 -236.027 751.712 -253.193 710.943 -288.239 685.194 c 1
 -231.735 685.194 -190.253 705.221 -163.788 743.843 c 0
 -151.63 761.726 -141.616 781.751 -134.464 804.638 c 0
 -128.027 827.525 -124.451 853.99 -124.451 883.313 c 1
 -54.3574 883.313 l 1
-265.352 805.354 m 0
 -265.352 819.658 -267.497 831.103 -273.219 840.399 c 0
 -278.226 848.983 -286.81 853.99 -297.537 853.99 c 0
 -319.71 853.99 -331.153 837.539 -331.153 805.354 c 0
 -331.153 771.737 -319.71 754.572 -297.537 754.572 c 0
 -276.081 754.572 -265.352 771.737 -265.352 805.354 c 0
EndSplineSet
Fore
SplineSet
-54 883 m 1x7e
 -54 809 -81 751 -132 709 c 0
 -177 674 -223 652 -286 652 c 2x7e
 -365 652 l 1
 -365 678 l 1xbe
 -331 681 -306 697 -287 728 c 1
 -297 727 l 2
 -338 727 -359 753 -359 806 c 0
 -359 845 -334 883 -297 883 c 0
 -262 883 -236 847 -236 807 c 0
 -236 751 -253 710 -289 686 c 1
 -174 686 -125 773 -125 883 c 1
 -54 883 l 1x7e
-265 806 m 0
 -265 833 -275 854 -297 854 c 0
 -319 854 -331 838 -331 806 c 0
 -331 772 -319 754 -297 754 c 0
 -275 754 -265 772 -265 806 c 0
EndSplineSet
EndChar

StartChar: uni0E4A.low
Encoding: 141 63244 108
Width: 0
Flags: W
HStem: 652 25<-389.716 -331.578> 779 24<-362 -332.76> 816 32<-342.139 -286.449 -243.226 -177.604>
VStem: -423 28<679.754 768.573> -327 27<681.541 774.454> -278 28<753 806.387> -171 36<705.719 811.164> -104 62<740.645 798 798 853>
AnchorPoint: "AboveBase" -109 615 mark 0
LayerCount: 2
Back
SplineSet
-42.1992 852.559 m 1
 -42.1992 716.665 -106.57 648.718 -234.597 648.718 c 1
 -234.597 678.043 l 1
 -217.432 682.333 -203.127 692.347 -190.253 708.081 c 0
 -177.379 724.532 -171.657 741.698 -171.657 760.294 c 0
 -171.657 797.487 -185.246 816.083 -212.426 816.083 c 0
 -237.457 816.083 -250.331 794.625 -250.331 753.142 c 1
 -278.226 753.142 l 1
 -278.226 794.625 -293.246 816.083 -322.571 816.083 c 0
 -331.868 816.083 -341.167 811.791 -349.75 802.493 c 1
 -333.299 802.493 -321.14 795.341 -312.558 781.751 c 0
 -304.69 767.447 -300.398 749.566 -300.398 728.108 c 0
 -300.398 677.326 -321.14 651.578 -361.908 651.578 c 0
 -378.359 651.578 -392.663 660.162 -404.822 675.896 c 0
 -416.981 692.347 -423.418 709.513 -423.418 728.108 c 0
 -423.418 738.838 -422.703 749.566 -420.558 759.579 c 0
 -418.413 769.593 -414.836 779.606 -409.829 789.618 c 0
 -402.677 806.069 -391.948 820.374 -378.359 831.817 c 0
 -365.485 843.977 -346.888 849.698 -322.571 849.698 c 0
 -297.537 849.698 -278.941 835.393 -265.352 806.784 c 1
 -262.49 818.943 -256.77 828.242 -248.187 836.109 c 0
 -240.318 843.977 -228.875 848.269 -215.286 848.269 c 0
 -161.644 848.269 -134.464 819.658 -134.464 761.726 c 0
 -134.464 725.247 -146.624 698.068 -171.657 679.473 c 1
 -126.597 697.354 -103.709 736.691 -103.709 798.202 c 2
 -103.709 823.235 l 1
 -107.285 852.559 l 1
 -42.1992 852.559 l 1
-326.863 728.108 m 0
 -326.863 743.843 -329.724 756.002 -335.445 765.301 c 0
 -341.167 774.6 -349.75 779.606 -361.908 779.606 c 0
 -372.638 779.606 -380.505 773.883 -386.941 763.155 c 0
 -392.663 752.427 -395.525 740.982 -395.525 728.108 c 0
 -395.525 713.088 -392.663 700.931 -386.941 691.632 c 0
 -380.505 681.618 -372.638 676.611 -361.908 676.611 c 0
 -338.306 676.611 -326.863 693.777 -326.863 728.108 c 0
EndSplineSet
Fore
SplineSet
-42 853 m 1
 -42 716 -107 649 -234 649 c 1
 -234 678 l 1
 -201 686 -171 724 -171 760 c 0
 -171 797 -185 816 -212 816 c 0
 -237 816 -250 795 -250 753 c 1
 -278 753 l 1
 -278 795 -293 816 -322 816 c 0
 -333 816 -341 811 -350 803 c 1
 -316 803 -300 770 -300 728 c 0
 -300 677 -321 652 -362 652 c 0
 -395 652 -423 691 -423 728 c 0
 -423 750 -420 770 -410 790 c 0
 -394 823 -371 850 -322 850 c 0
 -297 850 -278 835 -265 807 c 1
 -259 831 -243 848 -215 848 c 0
 -161 848 -135 819 -135 762 c 0
 -135 725 -146 699 -171 680 c 1
 -126 697 -104 737 -104 798 c 2
 -104 823 l 1
 -107 853 l 1
 -42 853 l 1
-327 728 m 0
 -327 759 -338 779 -362 779 c 0
 -384 779 -395 753 -395 728 c 0
 -395 699 -384 677 -362 677 c 0
 -338 677 -327 694 -327 728 c 0
EndSplineSet
EndChar

StartChar: uni0E4B.low
Encoding: 142 63245 109
Width: 0
Flags: W
HStem: 803 47<-322 -236 -161 -75>
VStem: -240 83<873 942> -236 75<733.25 803 850 919>
AnchorPoint: "AboveBase" -109 615 mark 0
LayerCount: 2
Back
SplineSet
-240.318 941.963 m 1
 -236.027 849.698 l 1
 -322.571 849.698 l 1
 -322.571 802.493 l 1
 -234.597 802.493 l 1
 -230.306 710.228 l 1
 -166.65 710.228 l 1
 -162.358 802.493 l 1
 -74.3848 802.493 l 1
 -74.3848 849.698 l 1
 -160.928 849.698 l 1
 -156.637 941.963 l 1
 -240.318 941.963 l 1
EndSplineSet
Fore
SplineSet
-240 942 m 1xc0
 -157 942 l 1xc0
 -161 850 l 1
 -75 850 l 1
 -75 803 l 1
 -163 803 l 1
 -167 710 l 1
 -230 710 l 1
 -234 803 l 1
 -322 803 l 1
 -322 850 l 1
 -236 850 l 1xa0
 -240 942 l 1xc0
EndSplineSet
EndChar

StartChar: uni0E4C.low
Encoding: 143 63246 110
Width: 0
Flags: W
HStem: 652 38<-324.631 -266.089>
VStem: -394 63<694.44 803.845> -250 38<695.923 803.051> -164 69<925.338 972.454 972.454 983>
AnchorPoint: "AboveBase" -139 615 mark 0
LayerCount: 2
Back
SplineSet
-250.331 751.712 m 1
 -250.331 751.712 -251.048 755.287 -251.763 763.87 c 0
 -253.193 772.453 -254.623 779.606 -257.484 786.757 c 0
 -266.782 802.493 -277.511 810.361 -291.816 810.361 c 0
 -302.544 810.361 -311.843 805.354 -318.994 795.341 c 0
 -326.863 785.328 -331.153 771.022 -331.153 751.712 c 0
 -331.153 710.228 -317.564 690.2 -291.816 690.2 c 0
 -286.81 690.2 -281.088 691.632 -275.365 694.492 c 0
 -269.644 697.354 -263.922 701.646 -258.915 707.366 c 0
 -255.338 713.088 -253.193 720.957 -251.763 729.539 c 0
 -251.048 738.121 -250.331 745.274 -250.331 751.712 c 1
-269.644 843.977 m 1
 -231.735 834.678 -212.426 803.923 -212.426 750.281 c 0
 -212.426 724.532 -220.293 701.646 -235.312 681.618 c 0
 -250.331 661.592 -270.358 651.578 -294.677 651.578 c 0
 -322.571 651.578 -346.173 661.592 -365.485 680.188 c 0
 -384.796 699.499 -394.094 723.102 -394.094 751.712 c 0
 -394.094 826.811 -341.167 877.593 -236.027 905.486 c 0
 -207.419 913.354 -187.392 922.652 -175.947 933.381 c 0
 -163.788 944.109 -160.928 960.561 -166.65 982.731 c 1
 -96.5566 999.183 l 1
 -95.8418 994.891 -95.126 991.315 -95.126 987.023 c 0
 -95.126 983.447 -95.126 979.156 -95.126 975.58 c 0
 -95.126 959.129 -100.848 944.109 -111.576 929.806 c 0
 -122.305 916.215 -143.047 904.057 -174.518 893.327 c 0
 -191.683 887.605 -210.279 880.453 -228.16 871.156 c 0
 -246.756 861.857 -261.062 852.559 -269.644 843.977 c 1
EndSplineSet
Fore
SplineSet
-250 751 m 0
 -250 794 -275 810 -291 810 c 0
 -313 810 -331 791 -331 751 c 0
 -331 710 -318 690 -291 690 c 0
 -280 690 -250 694 -250 751 c 0
-95 976 m 2
 -95 891 -209 901 -270 844 c 1
 -231 835 -212 804 -212 750 c 0
 -212 699 -246 652 -294 652 c 0
 -352 652 -394 694 -394 751 c 0
 -394 826 -341 877 -236 905 c 0
 -189 918 -164 932 -164 962 c 0
 -164 968 -165 975 -167 983 c 1
 -97 999 l 1
 -95 995 -95 992 -95 987 c 2
 -95 976 l 2
EndSplineSet
EndChar

StartChar: uni0E0D.descless
Encoding: 144 63247 111
Width: 795
Flags: W
HStem: -9 28<167.294 231.369> 0 28<478 611.583> 132 29<168.817 230.026> 429 25<95 151.481> 516 48<157.814 333.76>
VStem: 78 76<29.7294 119.307 138 356.878> 239 23<24.9215 125.802> 401 77<28 449.12> 620 76<37.842 554>
LayerCount: 2
Back
SplineSet
695.924 80.8213 m 2
 695.924 27.1787 674.466 0 631.552 0 c 2
 401.247 0 l 1
 401.247 376.213 l 2
 401.247 417.696 387.656 450.598 359.762 477.062 c 0
 331.868 502.811 297.537 515.685 256.055 515.685 c 0
 186.676 515.685 133.033 494.942 95.126 454.175 c 1
 145.192 454.175 185.961 432.717 218.146 389.803 c 1
 198.835 384.081 183.1 374.067 171.657 359.762 c 0
 159.498 345.458 153.774 326.863 153.774 303.259 c 2
 153.774 138.04 l 1
 159.498 145.192 165.934 151.63 173.802 155.206 c 0
 180.954 159.498 190.253 160.928 200.98 160.928 c 0
 217.432 160.928 231.735 153.774 243.896 139.471 c 0
 256.055 124.451 262.49 102.994 262.49 74.3848 c 0
 262.49 19.3115 231.735 -8.58301 171.657 -8.58301 c 0
 140.901 -8.58301 118.014 0 101.563 17.8809 c 0
 85.8281 35.0469 77.9609 59.3643 77.9609 90.835 c 2
 77.9609 283.948 l 2
 77.9609 344.027 106.57 382.649 163.788 399.815 c 1
 138.756 419.128 98.7021 429.141 43.6289 429.141 c 1
 54.3574 468.479 83.6826 500.664 130.173 527.127 c 0
 170.226 551.446 213.14 563.605 257.484 563.605 c 0
 404.107 563.605 477.776 501.379 477.776 376.213 c 2
 477.776 27.8945 l 1
 567.181 27.8945 l 2
 581.486 27.8945 593.644 32.1855 604.374 40.7686 c 0
 614.387 50.0664 619.394 62.9404 619.394 80.8213 c 2
 619.394 553.592 l 1
 695.924 553.592 l 1
 695.924 80.8213 l 2
238.889 74.3848 m 0
 238.889 91.5498 234.597 105.14 226.729 115.868 c 0
 219.576 126.597 210.279 131.604 200.98 131.604 c 0
 190.968 131.604 181.669 126.597 172.372 115.868 c 0
 163.073 105.14 158.066 90.835 158.066 72.9541 c 0
 158.066 62.2256 161.644 50.7812 168.795 37.9072 c 0
 175.232 25.0332 185.961 19.3115 200.98 19.3115 c 0
 210.279 19.3115 219.576 23.6025 226.729 33.6162 c 0
 234.597 43.6289 238.889 57.2188 238.889 74.3848 c 0
EndSplineSet
Fore
SplineSet
696 554 m 1x7f80
 696 81 l 2
 696 26 674 0 631 0 c 2
 401 0 l 1x7f80
 401 376 l 2
 401 458 338 516 256 516 c 0
 187 516 133 495 95 454 c 1
 145 454 186 432 218 390 c 1
 179 378 154 350 154 303 c 2
 154 138 l 1
 166 154 179 161 201 161 c 0
 234 161 262 132 262 75 c 0
 262 19 231 -9 171 -9 c 0xbf80
 111 -9 78 28 78 91 c 2
 78 284 l 2
 78 344 107 382 164 400 c 1
 139 419 98 429 44 429 c 1
 63 501 161 564 258 564 c 0
 404 564 478 501 478 376 c 2
 478 28 l 1
 567 28 l 2
 596 28 620 45 620 81 c 2
 620 554 l 1
 696 554 l 1x7f80
239 75 m 0
 239 108 220 132 201 132 c 0
 182 132 158 108 158 73 c 0
 158 51 171 19 201 19 c 0xbf80
 220 19 239 40 239 75 c 0
EndSplineSet
EndChar

StartChar: quoteleft
Encoding: 145 8216 112
Width: 332
Flags: MW
HStem: 434 104<154.314 211.798 181.246 242.35> 657 20G<193.5 236>
VStem: 116 38<507.079 596.064>
LayerCount: 2
Fore
SplineSet
168 538 m 0
 173 538 179 541 195 541 c 0
 231 541 253 521 253 491 c 0
 253 456 230 434 195 434 c 0
 149 434 116 472 116 521 c 0
 116 582 160 643 227 677 c 1
 236 658 l 1
 182 620 154 584 154 551 c 0
 154 543 160 538 168 538 c 0
EndSplineSet
EndChar

StartChar: quoteright
Encoding: 146 8217 113
Width: 332
Flags: W
HStem: 568 109<90.8383 155.867 123.353 178.59>
VStem: 179 39<514.913 602.288>
LayerCount: 2
Fore
SplineSet
105 434 m 1
 97 453 l 1
 151 489 179 524 179 558 c 0
 179 565 173 573 166 573 c 0
 164 573 151 568 138 568 c 0
 103 568 79 587 79 620 c 0
 79 653 103 677 138 677 c 0
 183 677 218 637 218 587 c 0
 218 527 173 466 105 434 c 1
EndSplineSet
EndChar

StartChar: bullet
Encoding: 149 8226 116
Width: 348
Flags: W
HStem: 196 270<101.778 247.548>
VStem: 40 271<258.567 401.764>
LayerCount: 2
Fore
SplineSet
174 466 m 0
 250 466 311 406 311 330 c 0
 311 256 249 196 174 196 c 0
 100 196 40 256 40 333 c 0
 40 406 100 466 174 466 c 0
EndSplineSet
EndChar

StartChar: endash
Encoding: 150 8211 117
Width: 499
Flags: MW
HStem: 201 49<0 499>
LayerCount: 2
Fore
SplineSet
0 250 m 1
 499 250 l 1
 499 201 l 1
 0 201 l 1
 0 250 l 1
EndSplineSet
EndChar

StartChar: emdash
Encoding: 151 8212 118
Width: 998
Flags: MW
HStem: 201 49<0 1000>
LayerCount: 2
Fore
SplineSet
0 250 m 1
 1000 250 l 1
 1000 201 l 1
 0 201 l 1
 0 250 l 1
EndSplineSet
EndChar

StartChar: uni0E31.left
Encoding: 152 63248 119
Width: 0
Flags: W
HStem: 620 33<-349.233 -205.308> 620 230 681 32<-386.567 -346.42> 816 34<-404.052 -343.5>
VStem: -466 57<716.541 812.871> -338 30<718.207 812.601> -124 73<748.052 850>
LayerCount: 2
Back
SplineSet
40.7686 834.678 m 1
 40.7686 768.876 22.1719 713.805 -16.4502 670.891 c 0
 -25.748 660.162 -37.9072 650.863 -52.9277 642.281 c 0
 -67.2324 633.697 -82.9668 627.261 -100.133 621.538 c 0
 -117.299 616.531 -135.18 612.241 -153.06 609.38 c 0
 -170.94 606.518 -188.106 605.088 -203.842 605.088 c 0
 -225.3 605.088 -248.901 607.949 -274.65 613.671 c 0
 -300.398 619.394 -321.14 627.976 -336.875 638.704 c 0
 -371.207 663.737 -388.373 698.068 -388.373 739.553 c 0
 -388.373 803.209 -357.618 834.678 -297.537 834.678 c 0
 -252.478 834.678 -230.306 806.784 -230.306 751.712 c 0
 -230.306 730.254 -236.027 710.228 -247.471 693.062 c 0
 -258.915 675.182 -275.365 666.599 -296.106 666.599 c 1
 -308.982 669.459 l 1
 -298.969 658.73 -283.232 650.863 -261.775 645.856 c 0
 -239.604 640.85 -218.861 638.704 -199.55 638.704 c 0
 -176.662 638.704 -151.63 644.426 -124.451 656.585 c 0
 -97.2715 668.029 -77.2451 685.194 -64.3711 707.366 c 0
 -42.9141 743.843 -32.1855 786.042 -32.1855 834.678 c 1
 40.7686 834.678 l 1
-261.062 751.712 m 0
 -261.062 766.016 -263.922 778.175 -269.644 787.474 c 0
 -275.365 796.771 -283.948 801.062 -296.106 801.062 c 0
 -318.994 801.062 -331.153 784.613 -331.153 751.712 c 0
 -331.153 715.95 -318.994 698.784 -296.106 698.784 c 0
 -286.81 698.784 -278.941 703.791 -271.074 714.52 c 0
 -268.212 719.525 -266.067 725.247 -264.637 731.686 c 0
 -263.207 738.121 -261.775 744.56 -261.062 751.712 c 0
EndSplineSet
Fore
Refer: 176 3633 N 1 0 0 1 -82 0 2
EndChar

StartChar: uni0E4D.left
Encoding: 153 63249 120
Width: 0
Flags: W
HStem: 645 37<-337.305 -255.732> 777 36<-335.793 -256.311>
VStem: -381 37<689.497 769.027> -249 37<688.327 769.333>
LayerCount: 2
Back
SplineSet
-380.505 728.108 m 0
 -380.505 704.506 -372.638 684.479 -355.472 668.744 c 0
 -338.306 652.293 -318.279 644.426 -296.106 644.426 c 0
 -273.219 644.426 -253.908 652.293 -237.457 668.744 c 0
 -221.008 684.479 -212.426 704.506 -212.426 728.108 c 0
 -212.426 751.712 -221.008 771.737 -237.457 788.188 c 0
 -253.908 804.638 -273.219 813.222 -296.106 813.222 c 0
 -318.279 813.222 -338.306 804.638 -355.472 788.188 c 0
 -372.638 771.737 -380.505 751.712 -380.505 728.108 c 0
-344.027 728.108 m 0
 -344.027 741.698 -339.737 753.142 -330.438 762.44 c 0
 -321.14 771.737 -309.697 776.029 -296.106 776.029 c 0
 -282.518 776.029 -271.074 771.737 -262.49 762.44 c 0
 -253.193 753.142 -248.901 741.698 -248.901 728.108 c 0
 -248.901 714.52 -253.193 703.074 -262.49 694.492 c 0
 -271.074 685.194 -282.518 680.903 -296.106 680.903 c 0
 -309.697 680.903 -321.14 685.194 -330.438 694.492 c 0
 -339.737 703.074 -344.027 714.52 -344.027 728.108 c 0
EndSplineSet
Fore
Refer: 202 3661 S 1 0 0 1 -133 -4 0
EndChar

StartChar: uni0E47.left
Encoding: 154 63250 121
Width: 0
Flags: W
HStem: 620 31<-348.073 -309.675> 658 22<-324.945 -308> 679 26<-409 -378.741> 759 27<-324.559 -275.178> 802 33<-352.542 -253.883> 803 40<-401.807 -347.086>
VStem: -507 48<687.136 786.567> -351 24<689.127 758.295> -273 41<681.504 758.306> -247 47<841.854 888>
LayerCount: 2
Back
SplineSet
-200.98 893.327 m 1
 -200.98 850.413 -221.008 821.804 -261.062 806.784 c 0
 -265.352 806.069 -271.789 804.638 -278.941 803.209 c 0
 -286.093 801.777 -293.962 801.062 -301.829 801.062 c 0
 -309.697 801.062 -319.71 801.777 -332.584 801.777 c 0
 -345.458 802.493 -358.333 802.493 -371.922 802.493 c 0
 -379.074 802.493 -384.081 802.493 -388.373 802.493 c 0
 -393.379 802.493 -397.67 802.493 -402.677 801.062 c 0
 -419.128 798.202 -433.432 791.764 -444.161 782.467 c 0
 -454.89 772.453 -459.896 754.572 -459.896 729.539 c 0
 -459.896 718.095 -457.75 707.366 -454.175 697.354 c 0
 -449.883 687.34 -445.591 678.758 -440.584 670.891 c 1
 -440.584 682.333 -437.009 691.632 -429.141 697.354 c 0
 -426.28 699.499 -423.418 700.931 -420.558 702.359 c 0
 -417.696 703.791 -413.406 705.221 -408.399 705.937 c 2
 -405.537 705.937 l 2
 -397.67 705.937 -389.803 703.074 -381.935 698.068 c 0
 -373.353 692.347 -366.2 685.91 -360.479 678.043 c 0
 -355.472 671.604 -349.75 665.169 -342.598 660.162 c 0
 -336.16 654.439 -329.007 651.578 -322.571 651.578 c 0
 -320.425 651.578 -318.279 652.293 -315.418 652.293 c 0
 -313.272 653.01 -310.412 655.155 -307.551 659.445 c 1
 -318.279 659.445 -328.292 664.452 -336.875 674.466 c 0
 -345.458 684.479 -349.75 700.214 -349.75 720.957 c 0
 -349.75 742.413 -344.743 758.148 -334.73 768.876 c 0
 -324.717 779.606 -310.412 785.328 -293.246 785.328 c 0
 -276.081 785.328 -262.49 779.606 -250.331 768.162 c 0
 -238.889 756.719 -233.167 743.128 -233.167 726.679 c 0
 -233.167 698.068 -240.318 673.751 -254.623 653.01 c 0
 -262.49 642.281 -271.074 634.412 -280.371 629.407 c 0
 -289.67 623.684 -301.829 620.823 -316.133 620.823 c 0
 -326.863 620.823 -336.16 622.969 -343.312 626.545 c 0
 -350.465 629.407 -357.618 633.697 -364.769 638.704 c 0
 -370.492 643.711 -376.928 651.578 -383.366 663.022 c 0
 -389.088 673.751 -396.24 679.473 -404.107 679.473 c 2
 -408.399 679.473 l 2
 -419.128 678.758 -424.85 668.744 -424.85 648.718 c 0
 -424.85 643.711 -424.135 639.419 -423.418 635.129 c 0
 -422.703 630.837 -421.273 626.545 -420.558 622.254 c 1
 -444.876 626.545 -465.617 638.704 -482.068 660.162 c 0
 -498.519 680.903 -507.101 705.221 -507.101 732.4 c 0
 -507.101 767.447 -496.372 794.625 -474.916 813.937 c 0
 -453.458 832.532 -426.28 842.546 -394.094 842.546 c 2
 -385.512 842.546 l 2
 -371.922 841.116 -354.757 840.399 -334.014 838.255 c 0
 -313.272 836.824 -299.684 836.109 -293.246 836.109 c 0
 -262.49 836.109 -247.471 853.275 -247.471 887.605 c 1
 -200.98 893.327 l 1
-273.936 720.957 m 0
 -273.936 745.989 -283.232 758.863 -301.829 758.863 c 0
 -310.412 758.863 -316.85 755.287 -321.856 748.135 c 0
 -326.146 740.268 -328.292 731.686 -328.292 720.957 c 0
 -328.292 713.088 -326.146 704.506 -322.571 695.207 c 0
 -318.279 685.91 -311.843 680.903 -301.829 680.903 c 0
 -283.232 680.903 -273.936 694.492 -273.936 720.957 c 0
EndSplineSet
Fore
Refer: 196 3655 N 1 0 0 1 -68 -1 0
EndChar

StartChar: uni0E48.left
Encoding: 155 63251 122
Width: 0
Flags: W
VStem: -273 67<1102 1150 1150 1150>
LayerCount: 2
Back
SplineSet
-205.272 1150.1 m 1
 -210.994 1069.27 l 1
 -225.3 959.129 l 1
 -227.444 951.977 -232.45 947.687 -240.318 947.687 c 0
 -248.187 947.687 -253.193 951.977 -254.623 959.129 c 1
 -268.212 1069.27 l 1
 -272.504 1150.1 l 1
 -205.272 1150.1 l 1
EndSplineSet
Fore
Refer: 197 3656 N 1 0 0 1 -81 -1 0
EndChar

StartChar: uni0E49.left
Encoding: 156 63252 123
Width: 0
Flags: W
HStem: 1000 24<-295.921 -262> 1113 23<-292.659 -243.664>
VStem: -321 22<1025.78 1110.85> -237 25<1027.33 1106.89> -133 60<1058.19 1147>
LayerCount: 2
Back
SplineSet
-72.9541 1147.24 m 1
 -72.9541 1126.49 -76.5303 1105.75 -83.6826 1085.01 c 0
 -90.1191 1063.55 -99.418 1044.24 -111.576 1027.08 c 0
 -123.021 1009.2 -136.609 994.176 -153.06 981.302 c 0
 -169.511 968.428 -185.961 959.129 -203.842 953.407 c 0
 -236.027 942.68 -265.352 937.673 -291.816 937.673 c 2
 -336.875 937.673 l 1
 -336.875 962.706 l 1
 -323.286 964.136 -308.982 968.428 -295.392 974.864 c 0
 -281.088 981.302 -270.358 989.884 -262.49 1000.61 c 1
 -266.782 1000.61 l 2
 -282.518 1000.61 -295.392 1006.33 -305.405 1017.78 c 0
 -315.418 1029.94 -321.14 1047.1 -321.14 1069.27 c 0
 -321.14 1085.73 -316.133 1101.46 -306.12 1115.77 c 0
 -296.106 1129.35 -283.232 1136.51 -266.782 1136.51 c 0
 -251.048 1136.51 -238.174 1130.07 -227.444 1116.48 c 0
 -217.432 1102.18 -212.426 1087.16 -212.426 1070.71 c 0
 -212.426 1047.1 -217.432 1026.36 -228.16 1007.76 c 0
 -239.604 989.169 -253.193 975.58 -269.644 966.996 c 1
 -223.868 969.857 -189.538 987.023 -166.65 1019.21 c 0
 -144.478 1051.39 -133.033 1094.31 -133.033 1147.24 c 1
 -72.9541 1147.24 l 1
-237.457 1069.27 m 0
 -237.457 1080.72 -240.318 1091.45 -246.041 1100.03 c 0
 -251.763 1108.61 -258.915 1112.91 -266.782 1112.91 c 0
 -277.511 1112.91 -285.378 1109.33 -291.1 1101.46 c 0
 -296.106 1093.59 -298.969 1082.87 -298.969 1069.27 c 0
 -298.969 1039.24 -288.239 1024.22 -266.782 1024.22 c 0
 -258.915 1024.22 -251.763 1027.79 -246.041 1035.66 c 0
 -240.318 1043.53 -237.457 1054.97 -237.457 1069.27 c 0
EndSplineSet
Fore
Refer: 198 3657 N 1 0 0 1 -13 -15 0
EndChar

StartChar: uni0E4A.left
Encoding: 157 63253 124
Width: 0
Flags: W
HStem: 937 24<-374.953 -319.405> 1054 21<-348 -321.962> 1087 29<-330.47 -280.043 -241.398 -180.012>
VStem: -404 25<963.06 1052.11> -316 23<965.825 1048.74> -272 25<1029 1078.67> -176 34<985.364 1084.06> -114 56<1015.09 1070 1070 1120>
LayerCount: 2
Back
SplineSet
-58.6494 1120.77 m 1
 -58.6494 997.751 -116.583 936.241 -233.167 936.241 c 1
 -233.167 962.706 l 1
 -217.432 965.566 -203.842 974.149 -192.398 989.169 c 0
 -181.669 1004.9 -175.947 1020.64 -175.947 1037.09 c 0
 -175.947 1069.99 -188.106 1087.16 -212.426 1087.16 c 0
 -236.027 1087.16 -247.471 1067.84 -247.471 1029.94 c 1
 -272.504 1029.94 l 1
 -272.504 1067.84 -285.378 1087.16 -311.843 1087.16 c 0
 -321.856 1087.16 -330.438 1082.87 -338.306 1075 c 1
 -324.001 1075 -312.558 1068.56 -304.69 1056.4 c 0
 -296.822 1043.53 -293.246 1027.08 -293.246 1007.76 c 0
 -293.246 960.561 -311.843 937.673 -348.319 937.673 c 0
 -364.054 937.673 -377.643 944.825 -388.373 959.844 c 0
 -399.101 975.58 -404.107 991.315 -404.107 1007.76 c 0
 -404.107 1029.22 -400.532 1047.82 -392.663 1063.55 c 0
 -384.796 1079.29 -374.782 1092.16 -363.339 1102.18 c 0
 -351.895 1112.19 -334.73 1117.91 -311.843 1117.91 c 0
 -289.67 1117.91 -272.504 1105.04 -261.062 1079.29 c 1
 -257.484 1090.02 -252.478 1099.31 -245.324 1105.75 c 0
 -238.174 1112.91 -228.16 1116.48 -215.286 1116.48 c 0
 -166.65 1116.48 -142.332 1090.02 -142.332 1038.52 c 0
 -142.332 1005.62 -153.06 980.587 -175.947 964.136 c 1
 -134.464 980.587 -114.438 1016.35 -114.438 1070.71 c 2
 -114.438 1094.31 l 1
 -117.299 1120.77 l 1
 -58.6494 1120.77 l 1
-316.133 1007.76 m 0
 -316.133 1021.36 -318.994 1032.8 -324.717 1041.38 c 0
 -329.724 1049.96 -337.591 1054.97 -348.319 1054.97 c 0
 -359.048 1054.97 -366.915 1049.25 -371.922 1039.24 c 0
 -376.928 1029.22 -379.074 1018.49 -379.074 1007.76 c 0
 -379.074 994.176 -376.928 982.731 -371.207 974.149 c 0
 -366.2 965.566 -358.333 960.561 -348.319 960.561 c 0
 -326.863 960.561 -316.133 976.295 -316.133 1007.76 c 0
EndSplineSet
Fore
Refer: 199 3658 N 1 0 0 1 6 -15 0
EndChar

StartChar: uni0E4B.left
Encoding: 158 63254 125
Width: 0
Flags: W
HStem: 1022 43<-362 -283 -217 -136>
VStem: -286 74<1098.2 1148> -281 63<937 1022>
LayerCount: 2
Back
SplineSet
-285.378 1148.67 m 1
 -282.518 1064.98 l 1
 -361.908 1064.98 l 1
 -361.908 1022.79 l 1
 -281.088 1022.79 l 1
 -278.226 937.673 l 1
 -219.576 937.673 l 1
 -216.716 1022.79 l 1
 -135.895 1022.79 l 1
 -135.895 1064.98 l 1
 -215.286 1064.98 l 1
 -212.426 1148.67 l 1
 -285.378 1148.67 l 1
EndSplineSet
Fore
Refer: 200 3659 N 1 0 0 1 -85 -15 0
EndChar

StartChar: uni0E4C.left
Encoding: 159 63255 126
Width: 0
Flags: W
HStem: 938 30<-257.137 -200.686>
VStem: -313 52<969.606 1063.86> -196 31<971.483 1063.23>
LayerCount: 2
Back
SplineSet
-197.405 1017.78 m 1
 -197.405 1017.78 -198.12 1021.36 -199.55 1027.79 c 0
 -200.266 1034.23 -201.695 1039.95 -203.842 1045.67 c 0
 -209.563 1058.55 -218.146 1064.98 -230.306 1064.98 c 0
 -238.889 1064.98 -246.041 1060.69 -252.478 1053.54 c 0
 -258.915 1045.67 -262.49 1033.51 -262.49 1017.78 c 0
 -262.49 984.162 -251.763 966.996 -230.306 966.996 c 0
 -220.293 966.996 -211.709 972.003 -205.272 981.302 c 0
 -202.412 986.309 -200.266 992.03 -199.55 999.183 c 0
 -198.12 1005.62 -197.405 1012.06 -197.405 1017.78 c 1
-212.426 1091.45 m 1
 -182.385 1083.58 -166.65 1058.55 -166.65 1016.35 c 0
 -166.65 994.891 -173.087 976.295 -185.246 960.561 c 0
 -197.405 945.54 -213.14 937.673 -233.167 937.673 c 0
 -255.338 937.673 -274.65 945.54 -290.385 960.561 c 0
 -305.405 976.295 -313.272 995.607 -313.272 1017.78 c 0
 -313.272 1077.86 -271.074 1117.91 -185.961 1139.37 c 0
 -163.788 1146.52 -147.338 1154.39 -138.04 1162.97 c 0
 -128.027 1171.55 -125.166 1185.14 -130.173 1202.31 c 1
 -74.3848 1215.9 l 1
 -73.6689 1210.89 -72.9541 1204.46 -72.9541 1196.59 c 0
 -72.9541 1183 -77.9609 1170.84 -86.543 1160.11 c 0
 -95.126 1149.38 -111.576 1139.37 -135.895 1130.79 c 0
 -150.199 1125.78 -164.504 1120.06 -179.524 1112.91 c 0
 -194.543 1106.47 -205.272 1099.31 -212.426 1091.45 c 1
EndSplineSet
Fore
Refer: 201 3660 N 1 0 0 1 25 3 0
EndChar

StartChar: uni0E01
Encoding: 161 3585 128
Width: 591
Flags: W
HStem: 0 21G<85 161 416 492> 429 25<104 154.373> 516 48<166.75 348.176>
VStem: 85 76<0 359.125> 416 76<0 450.551>
LayerCount: 2
Back
SplineSet
85.1133 0 m 1
 85.1133 282.518 l 2
 85.1133 345.458 113.007 384.081 168.795 399.815 c 1
 138.04 419.128 96.5566 429.141 43.6289 429.141 c 1
 50.0664 448.451 60.7949 466.332 77.9609 482.783 c 0
 94.4111 498.519 114.438 513.538 138.04 527.127 c 0
 179.524 551.446 222.438 563.605 266.782 563.605 c 0
 331.868 563.605 384.081 549.3 423.418 519.975 c 0
 469.193 487.79 492.082 440.584 492.082 379.074 c 2
 492.082 0 l 1
 416.267 0 l 1
 416.267 379.074 l 2
 416.267 421.273 401.247 454.89 371.922 479.206 c 0
 342.598 503.525 306.836 515.685 265.352 515.685 c 0
 195.975 515.685 142.332 494.942 103.709 454.175 c 1
 153.774 454.175 194.543 432.717 225.3 389.803 c 1
 206.702 384.081 191.683 373.353 179.524 359.048 c 0
 167.365 344.027 160.928 325.432 160.928 303.259 c 2
 160.928 0 l 1
 85.1133 0 l 1
EndSplineSet
Fore
SplineSet
85 0 m 1
 85 283 l 2
 85 346 113 384 168 400 c 1
 138 419 97 429 44 429 c 1
 64 498 171 564 267 564 c 0
 397 564 492 501 492 379 c 2
 492 0 l 1
 416 0 l 1
 416 379 l 2
 416 463 349 516 265 516 c 0
 196 516 142 495 104 454 c 1
 154 454 195 432 226 390 c 1
 189 378 161 349 161 303 c 2
 161 0 l 1
 85 0 l 1
EndSplineSet
EndChar

StartChar: uni0E02
Encoding: 162 3586 129
Width: 515
Flags: W
HStem: 0 28<70 127 202 332.42> 347 27<66.5498 122.076> 491 29<101 123.763> 533 31<111.953 211.247>
VStem: 29 28<380.218 486.273> 127 75<28 315.114> 133 25<381.553 485.488> 226 58<417.412 516.652> 340 76<36.1203 551>
LayerCount: 2
Back
SplineSet
416.267 80.8213 m 2
 416.267 27.1787 394.809 0 351.895 0 c 2
 70.0928 0 l 1
 70.0928 27.8945 l 1
 127.312 27.8945 l 1
 127.312 256.055 l 2
 127.312 292.531 145.192 334.73 181.669 382.649 c 0
 199.55 405.537 210.994 425.564 216.716 442.015 c 0
 222.438 459.181 225.3 470.624 225.3 477.776 c 0
 225.3 494.227 218.146 507.816 203.842 517.83 c 0
 188.821 527.844 171.657 532.851 152.345 532.851 c 0
 130.888 532.851 113.723 528.559 100.848 519.975 c 1
 118.014 519.975 131.604 511.393 143.762 493.512 c 0
 153.06 477.776 158.066 457.75 158.066 433.432 c 0
 158.066 413.406 152.345 393.379 141.616 374.782 c 0
 130.173 356.187 114.438 346.888 95.126 346.888 c 0
 86.543 346.888 77.9609 349.75 69.3779 355.472 c 0
 61.5098 360.479 54.3574 367.631 48.6357 375.498 c 0
 42.1992 384.081 37.9072 393.379 34.3311 403.393 c 0
 30.7549 414.121 29.3242 424.135 29.3242 433.432 c 0
 29.3242 470.624 40.7686 501.379 62.9404 526.412 c 0
 85.1133 551.446 115.152 563.605 152.345 563.605 c 0
 191.683 563.605 223.153 553.592 247.471 532.851 c 0
 271.789 512.823 283.948 484.213 283.948 448.451 c 0
 283.948 437.724 281.803 424.85 276.081 410.544 c 0
 271.074 396.955 261.062 379.074 247.471 357.618 c 0
 233.882 334.73 223.153 316.133 214.569 300.398 c 0
 205.987 284.663 202.412 270.358 202.412 257.484 c 2
 202.412 27.8945 l 1
 288.239 27.8945 l 2
 303.976 27.8945 316.85 32.1855 326.146 40.7686 c 0
 335.445 50.0664 339.737 62.9404 339.737 80.8213 c 2
 339.737 550.731 l 1
 416.267 550.731 l 1
 416.267 80.8213 l 2
133.033 433.432 m 0
 133.033 449.168 129.457 462.757 122.305 474.199 c 0
 115.152 484.93 105.854 490.65 95.126 490.65 c 2
 93.6953 490.65 l 2
 82.9668 490.65 74.3848 485.645 67.2324 475.631 c 0
 60.7949 464.902 57.2188 451.312 57.2188 433.432 c 0
 57.2188 419.843 60.7949 406.254 67.9473 393.379 c 0
 75.0996 379.789 84.3975 373.353 95.126 373.353 c 0
 105.14 373.353 113.723 379.789 121.59 393.379 c 0
 129.457 406.254 133.033 419.843 133.033 433.432 c 0
EndSplineSet
Fore
SplineSet
284 448 m 0xfb80
 284 383.875 202 310.25 202 258 c 2
 202 28 l 1
 289 28 l 2
 319 28 340 45 340 81 c 2
 340 551 l 1
 416 551 l 1
 416 81 l 2
 416 26 394 0 352 0 c 2
 70 0 l 1
 70 28 l 1
 127 28 l 1
 127 256 l 2xfd80
 127 345.45 226 409.666 226 478 c 0
 226 511 192 533 152 533 c 0
 130 533 114 529 101 520 c 1
 137 520 158 481 158 434 c 0
 158 393 135 347 95 347 c 0
 59 347 29 394 29 434 c 0
 29 508 78 564 152 564 c 0
 230 564 284 520 284 448 c 0xfb80
133 434 m 0xfb80
 133 464 117 491 95 491 c 0
 70 491 57 469 57 434 c 0
 57 406 73 374 95 374 c 0
 114 374 133 406 133 434 c 0xfb80
EndSplineSet
EndChar

StartChar: uni0E03
Encoding: 163 3587 130
Width: 574
Flags: W
HStem: 0 28<129 182 258 383.788> 341 31<63.1096 125.093> 491 29<91 123.218> 533 31<96.8758 163.253 209.399 282.81>
VStem: 26 28<380.04 485.409> 133 27<377.081 483.248> 179 22<467 517.515> 182 76<28 332.111> 289 48<435.469 528.179> 398 77<42.7858 552>
LayerCount: 2
Back
SplineSet
474.916 80.8213 m 2
 474.916 60.0801 469.193 42.1992 458.465 26.4639 c 0
 447.021 8.58301 431.287 0 411.26 0 c 2
 128.742 0 l 1
 128.742 27.8945 l 1
 181.669 27.8945 l 1
 181.669 254.623 l 2
 181.669 274.65 185.961 295.392 194.543 316.85 c 0
 203.842 339.021 216.001 363.339 233.167 389.803 c 1
 251.763 413.406 265.352 431.287 274.65 444.876 c 0
 283.948 457.75 288.239 469.909 288.239 482.068 c 0
 288.239 497.804 285.378 509.963 278.226 519.26 c 0
 271.789 528.559 261.062 532.851 246.041 532.851 c 0
 216.001 532.851 200.98 511.393 200.98 467.049 c 1
 178.809 467.049 l 1
 178.809 489.936 171.657 506.386 158.066 517.114 c 0
 144.478 527.844 134.464 532.851 127.312 532.851 c 0
 119.444 532.851 112.292 532.134 104.424 529.988 c 0
 97.2715 528.559 92.9805 524.981 90.835 519.975 c 1
 113.007 519.975 130.888 510.678 143.762 492.082 c 0
 154.491 473.485 159.498 452.028 159.498 427.71 c 0
 159.498 408.399 153.774 389.088 142.332 369.775 c 0
 130.173 350.465 114.438 341.167 93.6953 341.167 c 0
 77.2451 341.167 61.5098 349.75 47.9209 366.2 c 0
 33.6162 382.649 26.4639 403.393 26.4639 427.71 c 0
 26.4639 444.161 28.6094 460.61 32.9004 477.062 c 0
 37.1924 492.797 43.6289 507.101 52.2119 519.975 c 0
 60.0801 532.851 70.8086 542.862 83.6826 551.446 c 0
 95.8418 560.028 110.861 563.605 127.312 563.605 c 0
 139.471 563.605 150.914 560.743 161.644 554.307 c 0
 173.087 547.869 182.385 539.287 188.821 527.127 c 1
 202.412 551.446 221.723 563.605 246.041 563.605 c 0
 272.504 563.605 293.962 555.021 311.126 537.141 c 0
 328.292 518.545 336.875 494.227 336.875 462.757 c 0
 336.875 454.89 333.299 441.301 326.146 421.988 c 0
 318.279 402.677 308.266 382.649 294.677 361.908 c 1
 270.358 317.564 257.484 282.518 257.484 256.055 c 2
 257.484 27.8945 l 1
 344.027 27.8945 l 2
 356.187 27.8945 367.631 33.6162 379.789 44.3447 c 0
 392.663 55.7881 398.386 67.9473 398.386 80.8213 c 2
 398.386 552.161 l 1
 474.916 552.161 l 1
 474.916 80.8213 l 2
133.033 427.71 m 0
 133.033 442.015 130.173 456.319 123.021 469.909 c 0
 115.868 484.213 105.14 490.65 90.835 490.65 c 0
 80.1064 490.65 71.5234 484.213 64.3711 471.339 c 0
 57.9336 459.181 54.3574 444.161 54.3574 427.71 c 0
 54.3574 411.26 58.6494 397.67 67.2324 387.656 c 0
 75.8145 376.928 85.8281 371.922 96.5566 371.922 c 0
 106.57 371.922 115.152 376.928 122.305 387.656 c 0
 129.457 397.67 133.033 411.26 133.033 427.71 c 0
EndSplineSet
Fore
SplineSet
337 463 m 0xfec0
 337 409 258 331 258 256 c 2
 258 28 l 1
 344 28 l 2
 368 28 398 56 398 81 c 2
 398 552 l 1
 475 552 l 1
 475 81 l 2
 475 41 451 0 412 0 c 2
 129 0 l 1
 129 28 l 1
 182 28 l 1
 182 255 l 2xfdc0
 182 294 199 337 233 390 c 0
 270 437 289 458 289 482 c 0
 289 513 275 533 246 533 c 0
 215 533 201 511 201 467 c 1
 179 467 l 1
 179 513 141 533 127 533 c 0
 111 533 95 530 91 520 c 1
 138 520 160 478 160 428 c 0
 160 388 135 341 94 341 c 0
 60 341 26 379 26 428 c 0
 26 492 62 564 127 564 c 0
 151 564 176 551 189 527 c 1
 202 552 221 564 246 564 c 0
 299 564 337 526 337 463 c 0xfec0
133 428 m 0
 133 457 120 491 91 491 c 0
 69 491 54 461 54 428 c 0
 54 394 75 372 97 372 c 0
 116 372 133 394 133 428 c 0
EndSplineSet
EndChar

StartChar: uni0E04
Encoding: 164 3588 131
Width: 568
Flags: W
HStem: 0 21G<117 195.5 393 469> 226 29<214.881 274.81> 369 35<215.307 276.073> 516 48<149.738 341.986>
VStem: 29 53<294.928 453.363> 120 79<0 45.5869 45.5869 102.231 102.231 170.712> 133 75<259.388 357.39> 284 31<261.668 364.579> 393 76<0 467.528>
LayerCount: 2
Back
SplineSet
241.749 225.3 m 0
 263.922 225.3 281.803 235.312 295.392 253.908 c 0
 308.266 273.219 314.703 293.246 314.703 313.272 c 0
 314.703 339.021 307.551 360.479 293.962 377.643 c 0
 279.656 395.525 260.345 404.107 236.027 404.107 c 0
 221.008 404.107 207.419 401.247 195.26 396.24 c 0
 183.1 390.519 172.372 381.935 163.073 369.775 c 0
 153.774 357.618 146.624 341.882 141.616 321.856 c 0
 135.895 301.829 133.033 276.081 133.033 246.041 c 1
 119.444 268.212 108 288.955 97.2715 307.551 c 0
 87.2588 326.146 82.252 346.888 82.252 370.492 c 0
 82.252 467.049 140.901 515.685 257.484 515.685 c 0
 296.106 515.685 327.577 505.671 354.041 485.645 c 0
 379.789 465.617 392.663 438.438 392.663 404.107 c 2
 392.663 0 l 1
 468.479 0 l 1
 468.479 404.107 l 2
 468.479 459.896 447.021 501.379 402.677 528.559 c 0
 366.915 552.161 318.994 563.605 258.915 563.605 c 0
 190.968 563.605 137.325 548.585 97.9873 518.545 c 0
 52.2119 484.213 29.3242 434.147 29.3242 367.631 c 0
 29.3242 354.757 32.1855 338.306 38.623 316.85 c 0
 45.0596 296.106 56.5039 268.212 72.9541 234.597 c 0
 104.424 168.795 120.159 110.861 120.159 60.0801 c 2
 120.159 43.6289 l 1
 117.299 0 l 1
 193.113 0 l 1
 195.26 11.4434 196.688 24.3184 197.405 37.1924 c 0
 198.835 50.7812 199.55 63.6562 199.55 77.9609 c 0
 199.55 97.2715 198.835 115.868 197.405 134.464 c 0
 196.688 153.06 195.975 170.226 195.975 185.961 c 0
 195.975 196.688 196.688 207.419 197.405 218.861 c 0
 198.835 230.306 200.266 238.889 202.412 244.61 c 1
 206.702 241.034 213.14 236.742 219.576 232.45 c 0
 226.729 227.444 233.882 225.3 241.749 225.3 c 0
208.134 313.272 m 0
 208.134 331.868 211.709 346.173 219.576 355.472 c 0
 227.444 364.769 236.742 369.061 247.471 369.061 c 0
 256.055 369.061 264.637 364.769 272.504 355.472 c 0
 280.371 346.173 283.948 331.868 283.948 313.272 c 0
 283.948 297.537 280.371 283.948 273.219 272.504 c 0
 266.067 261.062 256.055 254.623 244.61 254.623 c 0
 236.742 254.623 228.875 258.915 220.293 267.497 c 0
 212.426 275.365 208.134 291.1 208.134 313.272 c 0
EndSplineSet
Fore
SplineSet
120 60 m 2xfd80
 120 185 29 288 29 368 c 0
 29 498 119 564 259 564 c 0
 378 564 469 515 469 404 c 2
 469 0 l 1
 393 0 l 1
 393 404 l 2
 393 473 334 516 258 516 c 0
 141 516 82 467 82 371 c 0
 82 324 105 291 133 246 c 1xfb80
 133 366 179 404 236 404 c 0
 284 404 315 365 315 313 c 0
 315 272 287 226 242 226 c 0
 226 226 212 237 202 245 c 1
 198 233 196 208 196 186 c 0
 196 155 199 117 199 78 c 0
 199 50 198 23 193 0 c 1
 117 0 l 1
 120 44 l 1
 120 60 l 2xfd80
284 313 m 0
 284 350 265 369 248 369 c 0
 226 369 208 350 208 313 c 0
 208 268 229 255 245 255 c 0
 268 255 284 283 284 313 c 0
EndSplineSet
EndChar

StartChar: uni0E05
Encoding: 165 3589 132
Width: 580
Flags: W
HStem: 0 21G<120 198.5 404 480> 226 29<217.46 277.81> 369 35<218.277 279.043> 453 21G<235 266> 516 48<111.946 222.534 279.679 381.232>
VStem: 29 50<313.124 482.741> 123 79<0 45.5869 45.5869 103.969 103.969 172.649> 136 75<258.934 357.39> 287 31<261.668 363.411> 404 76<0 493.193>
LayerCount: 2
Back
SplineSet
74.3848 234.597 m 1
 91.5498 202.412 103.709 170.94 111.576 141.616 c 0
 119.444 111.576 123.021 84.3975 123.021 60.0801 c 2
 123.021 43.6289 l 1
 120.159 0 l 1
 195.975 0 l 1
 198.12 11.4434 199.55 24.3184 200.98 37.1924 c 0
 201.695 50.7812 202.412 63.6562 202.412 77.9609 c 0
 202.412 97.2715 201.695 115.868 200.98 134.464 c 0
 199.55 153.06 199.55 170.226 199.55 185.961 c 0
 199.55 196.688 199.55 207.419 200.98 218.861 c 0
 201.695 230.306 203.127 238.889 205.272 244.61 c 1
 210.279 241.034 216.001 236.742 222.438 232.45 c 0
 229.59 227.444 236.742 225.3 244.61 225.3 c 0
 266.782 225.3 284.663 235.312 298.252 253.908 c 0
 311.126 273.219 317.564 293.246 317.564 313.272 c 0
 317.564 339.021 311.126 360.479 296.822 377.643 c 0
 282.518 395.525 263.207 404.107 238.889 404.107 c 0
 223.868 404.107 210.994 401.247 198.835 396.24 c 0
 185.961 390.519 175.232 381.935 165.934 369.775 c 0
 156.637 357.618 149.484 341.882 144.478 321.856 c 0
 138.756 301.829 135.895 276.081 135.895 246.041 c 1
 119.444 274.65 105.854 300.398 95.126 324.001 c 0
 84.3975 346.888 79.3906 371.922 79.3906 398.386 c 0
 79.3906 476.346 110.861 515.685 174.518 515.685 c 0
 191.683 515.685 205.987 510.678 216.716 500.664 c 0
 227.444 491.365 235.312 474.916 240.318 452.743 c 1
 261.062 452.743 l 1
 265.352 474.916 273.936 491.365 285.378 500.664 c 0
 297.537 510.678 313.272 515.685 332.584 515.685 c 0
 354.757 515.685 372.638 507.101 385.512 490.65 c 0
 397.67 474.199 404.107 455.604 404.107 434.862 c 2
 404.107 0 l 1
 480.638 0 l 1
 480.638 432.002 l 2
 480.638 473.485 467.049 505.671 439.154 528.559 c 0
 411.975 552.161 377.643 563.605 336.875 563.605 c 0
 294.677 563.605 266.067 547.869 250.331 515.685 c 1
 237.457 547.869 208.849 563.605 163.788 563.605 c 0
 142.332 563.605 123.735 559.313 107.285 550.731 c 0
 90.1191 542.147 75.8145 529.988 64.3711 514.968 c 0
 52.9277 499.949 43.6289 482.068 37.9072 461.325 c 0
 32.1855 440.584 29.3242 419.128 29.3242 396.955 c 0
 31.4707 383.366 32.9004 371.207 34.3311 361.193 c 0
 35.7617 350.465 37.9072 339.737 40.7686 329.007 c 0
 43.6289 317.564 47.9209 304.69 53.6426 290.385 c 0
 58.6494 275.365 65.8018 256.77 74.3848 234.597 c 1
210.994 313.272 m 0
 210.994 331.868 214.569 346.173 222.438 355.472 c 0
 230.306 364.769 239.604 369.061 250.331 369.061 c 0
 258.915 369.061 267.497 364.769 275.365 355.472 c 0
 283.232 346.173 286.81 331.868 286.81 313.272 c 0
 286.81 297.537 283.232 283.948 276.081 272.504 c 0
 268.929 261.062 258.915 254.623 247.471 254.623 c 0
 239.604 254.623 231.735 258.915 223.153 267.497 c 0
 215.286 275.365 210.994 291.1 210.994 313.272 c 0
EndSplineSet
Fore
SplineSet
123 60 m 2xfec0
 123 185 53 228 29 397 c 1
 29 488 78 564 164 564 c 0
 209 564 237 548 250 516 c 1
 267 548 294 564 337 564 c 0
 419 564 480 514 480 432 c 2
 480 0 l 1
 404 0 l 1
 404 435 l 2
 404 476 378 516 333 516 c 0
 293 516 271 498 261 453 c 1
 240 453 l 1
 230 498 209 516 174 516 c 0
 111 516 79 476 79 398 c 0
 79 346 103 303 136 246 c 1xfdc0
 136 366 182 404 239 404 c 0
 287 404 318 365 318 313 c 0
 318 272 290 226 245 226 c 0
 229 226 215 237 205 245 c 1
 201 233 199 208 199 186 c 0
 199 155 202 117 202 78 c 0
 202 50 201 23 196 0 c 1
 120 0 l 1
 123 44 l 1
 123 60 l 2xfec0
287 313 m 0
 287 350 268 369 250 369 c 0
 229 369 211 350 211 313 c 0
 211 268 231 255 248 255 c 0
 271 255 287 283 287 313 c 0
EndSplineSet
EndChar

StartChar: uni0E06
Encoding: 166 3590 133
Width: 644
Flags: W
HStem: -4 66<140.196 229.147> 190 43<141.511 197.531> 346 29<74.2367 130.24> 494 27<107 131.359> 535 29<122.654 183 227.657 293.687>
VStem: 37 30<378.688 489.937> 97 39<64.1537 167.246> 138 30<378.828 490.19> 193 21<467 523.073> 204 76<65.5016 190 234 340.987> 300 56<446.683 528.939> 469 76<116 552>
LayerCount: 2
Back
SplineSet
545.008 0 m 1
 462.757 0 l 1
 446.307 54.3574 421.988 97.9873 389.803 130.173 c 0
 357.618 162.358 321.14 183.814 279.656 193.113 c 1
 279.656 80.8213 l 2
 279.656 23.6025 254.623 -4.29102 205.272 -4.29102 c 0
 173.087 -4.29102 146.624 6.4375 126.597 27.8945 c 0
 106.57 49.3516 96.5566 76.5303 96.5566 110.146 c 0
 96.5566 140.901 106.57 168.08 126.597 190.968 c 0
 146.624 213.854 172.372 228.16 203.842 233.167 c 1
 203.842 254.623 l 2
 203.842 274.65 206.702 295.392 213.854 316.85 c 0
 221.008 339.021 233.167 362.624 251.763 388.373 c 0
 269.644 413.406 281.803 433.432 288.955 448.451 c 0
 296.822 462.757 300.398 472.771 300.398 477.776 c 0
 300.398 496.372 297.537 509.963 291.816 519.26 c 0
 285.378 528.559 274.65 532.851 258.915 532.851 c 0
 245.324 532.851 234.597 526.412 226.015 512.107 c 0
 218.146 497.804 213.854 482.783 213.854 467.049 c 1
 193.113 467.049 l 1
 193.113 509.963 177.379 532.851 146.624 534.995 c 2
 140.901 534.995 l 2
 126.597 534.995 115.868 529.988 107.285 521.406 c 1
 126.597 521.406 141.616 514.253 152.345 498.519 c 0
 163.073 483.498 168.795 462.757 168.795 436.294 c 0
 168.795 416.267 162.358 395.525 150.199 375.498 c 0
 138.04 355.472 122.305 345.458 102.278 345.458 c 0
 85.1133 345.458 69.3779 354.041 56.5039 370.492 c 0
 42.9141 386.941 36.4766 409.114 36.4766 436.294 c 0
 36.4766 453.458 39.3379 469.193 44.3447 484.213 c 0
 50.0664 499.233 57.9336 512.823 67.2324 524.267 c 0
 77.2451 536.426 88.6895 545.725 102.278 552.876 c 0
 115.868 560.028 130.888 563.605 146.624 563.605 c 0
 175.947 563.605 195.26 550.731 205.272 524.267 c 1
 210.994 547.154 230.306 560.028 263.922 563.605 c 1
 297.537 563.605 321.856 555.021 335.445 537.141 c 0
 349.034 518.545 356.187 494.227 356.187 462.757 c 0
 356.187 451.312 352.611 437.724 345.458 422.703 c 0
 339.021 407.684 328.292 388.373 314.703 366.2 c 0
 301.113 345.458 291.816 325.432 286.81 306.12 c 0
 282.518 286.81 279.656 270.358 279.656 256.055 c 2
 279.656 234.597 l 1
 298.252 234.597 316.85 231.735 335.445 225.3 c 0
 354.041 219.576 371.922 211.709 389.088 200.98 c 0
 406.254 190.253 421.273 177.379 434.862 163.073 c 0
 448.451 149.484 459.896 133.033 468.479 115.868 c 1
 468.479 552.161 l 1
 545.008 552.161 l 1
 545.008 0 l 1
138.04 436.294 m 0
 138.04 453.458 134.464 467.049 128.027 477.776 c 0
 121.59 488.505 113.007 493.512 102.278 493.512 c 0
 91.5498 493.512 82.9668 488.505 77.2451 478.491 c 0
 70.8086 467.764 67.2324 454.175 67.2324 436.294 c 0
 67.2324 419.128 70.0928 404.107 75.8145 392.663 c 0
 82.252 380.505 90.835 374.782 102.278 374.782 c 0
 113.007 374.782 121.59 380.505 128.027 392.663 c 0
 134.464 404.107 138.04 419.128 138.04 436.294 c 0
203.842 90.835 m 2
 203.842 190.253 l 1
 180.954 186.676 164.504 177.379 153.06 162.358 c 0
 141.616 148.053 135.895 130.173 135.895 108.716 c 0
 135.895 77.2451 147.338 61.5098 170.226 61.5098 c 0
 192.398 61.5098 203.842 71.5234 203.842 90.835 c 2
EndSplineSet
Fore
SplineSet
356 463 m 0xffb0
 356 400 280 353 280 256 c 2
 280 234 l 1
 353 234 435 185 469 116 c 1
 469 552 l 1
 545 552 l 1
 545 0 l 1
 463 0 l 1
 429 110 362 174 280 193 c 1
 280 81 l 2
 280 23 255 -4 205 -4 c 0
 141 -4 97 44 97 110 c 0
 97 173 141 223 204 233 c 1
 204 255 l 2xff70
 204 294 215 337 252 388 c 0
 287 439 300 467 300 478 c 0
 300 514 290 533 259 533 c 0
 231 533 214 498 214 467 c 1
 193 467 l 1
 193 510 177 533 146 535 c 2
 141 535 l 2
 127 535 116 530 107 521 c 1
 146 521 168 489 168 437 c 0
 168 395 142 346 103 346 c 0
 67 346 37 382 37 437 c 0
 37 501 82 564 146 564 c 0
 176 564 195 551 205 524 c 1
 211 546 230 560 264 564 c 0
 333 564 356 526 356 463 c 0xffb0
204 190 m 1
 158 183 136 151 136 108 c 0
 136 78 148 62 170 62 c 0
 192 62 204 72 204 91 c 2
 204 190 l 1
138 437 m 0
 138 470 125 494 103 494 c 0
 81 494 67 472 67 437 c 0
 67 401 79 375 103 375 c 0
 125 375 138 401 138 437 c 0
EndSplineSet
EndChar

StartChar: uni0E07
Encoding: 167 3591 134
Width: 446
Flags: MW
HStem: 0 21G<256.312 347> 384 28<198.769 251.789> 533 31<200.525 258.328>
VStem: 0 18<369 387> 161 28<419.219 525.097> 271 76<98 416 420.859 523.286>
LayerCount: 2
Back
SplineSet
346.888 0 m 1
 271.074 0 l 1
 0 369.061 l 1
 17.8809 386.941 l 1
 271.074 97.9873 l 1
 271.074 416.267 l 1
 268.212 405.537 261.775 396.955 252.478 391.948 c 0
 243.181 386.227 235.312 384.081 228.16 384.081 c 0
 210.994 384.081 195.26 392.663 181.669 410.544 c 0
 168.08 429.141 160.928 448.451 160.928 469.909 c 0
 160.928 498.519 168.795 521.406 184.531 538.572 c 0
 200.266 555.738 221.723 563.605 248.901 563.605 c 0
 280.371 563.605 304.69 555.021 321.856 536.426 c 0
 338.306 517.83 346.888 492.797 346.888 461.325 c 2
 346.888 0 l 1
268.212 469.909 m 2
 268.212 487.79 264.637 502.811 256.77 514.968 c 0
 249.616 527.127 240.318 532.851 228.16 532.851 c 0
 217.432 532.851 208.134 526.412 200.98 513.538 c 0
 193.113 499.949 188.821 485.645 188.821 469.909 c 0
 188.821 454.89 193.113 440.584 201.695 429.141 c 0
 209.563 417.696 218.861 411.26 228.16 411.26 c 0
 238.174 411.26 247.471 416.981 255.338 427.71 c 0
 263.922 438.438 268.212 455.604 268.212 479.206 c 2
 268.212 469.909 l 2
EndSplineSet
Fore
SplineSet
347 0 m 1
 271 0 l 1
 0 369 l 1
 18 387 l 1
 271 98 l 1
 271 416 l 1
 265 394 242 384 229 384 c 0
 193 384 161 428 161 470 c 0
 161 527 195 564 249 564 c 0
 312 564 347 524 347 461 c 2
 347 0 l 1
268 470 m 0
 268 505 252 533 229 533 c 0
 207 533 189 501 189 470 c 0
 189 439 209 412 229 412 c 0
 248 412 268 434 268 470 c 0
EndSplineSet
EndChar

StartChar: uni0E08
Encoding: 168 3592 135
Width: 467
Flags: W
HStem: 0 21G<294 368> 207 26<117.061 171.892> 354 34<116.22 172.482> 516 48<97.1528 242.049>
VStem: 81 27<238.172 349.168> 180 27<237.893 331.19> 296 72<0 177.549 262 464.79>
LayerCount: 2
Back
SplineSet
367.631 0 m 1
 294.677 0 l 1
 294.677 57.9336 288.955 109.431 277.511 154.491 c 0
 266.067 200.266 254.623 239.604 241.749 273.936 c 0
 237.457 282.518 232.45 293.246 226.015 304.69 c 0
 220.293 316.133 211.709 326.146 202.412 334.014 c 1
 203.842 328.292 205.272 321.14 205.987 312.558 c 0
 205.987 304.69 206.702 297.537 206.702 293.246 c 0
 206.702 268.212 200.98 248.187 189.538 231.735 c 0
 178.809 214.569 163.073 206.702 143.762 206.702 c 0
 125.881 206.702 110.861 214.569 98.7021 231.735 c 0
 86.543 248.187 80.8213 268.212 80.8213 293.246 c 0
 80.8213 318.279 87.9736 340.452 101.563 359.762 c 0
 115.868 378.359 135.895 388.373 160.928 388.373 c 0
 216.716 388.373 261.775 346.173 296.106 262.49 c 1
 296.106 394.094 l 2
 296.106 431.287 283.232 460.61 257.484 482.783 c 0
 232.45 504.956 200.98 515.685 163.788 515.685 c 0
 105.14 515.685 55.0732 485.645 12.874 426.28 c 1
 -4.29102 436.294 l 1
 41.4834 521.406 106.57 563.605 190.253 563.605 c 0
 236.027 563.605 277.511 550.015 313.272 522.837 c 0
 333.299 508.531 346.888 491.365 355.472 472.056 c 0
 363.339 453.458 367.631 432.717 367.631 409.829 c 2
 367.631 0 l 1
180.239 293.246 m 0
 180.239 311.843 177.379 326.146 171.657 337.591 c 0
 165.219 349.034 155.921 354.757 143.762 354.757 c 0
 133.749 354.757 125.166 349.034 118.729 337.591 c 0
 111.576 326.146 108.716 311.843 108.716 293.246 c 0
 108.716 274.65 112.292 259.63 120.159 248.901 c 0
 128.027 238.174 135.895 233.167 143.762 233.167 c 0
 153.06 233.167 161.644 238.174 169.511 248.901 c 0
 176.662 259.63 180.239 274.65 180.239 293.246 c 0
EndSplineSet
Fore
SplineSet
368 0 m 1
 294 0 l 1
 294 120 255 290 202 334 c 1
 207 322 207 303 207 293 c 0
 207 245 183 207 144 207 c 0
 108 207 81 245 81 293 c 0
 81 344 110 388 161 388 c 0
 217 388 262 346 296 262 c 1
 296 394 l 2
 296 469 239 516 164 516 c 0
 105 516 56 486 13 426 c 1
 -4 437 l 1
 41 521 107 564 190 564 c 0
 281 564 368 509 368 410 c 2
 368 0 l 1
108 293 m 0
 108 256 127 233 144 233 c 0
 163 233 180 256 180 293 c 0
 180 330 168 354 144 354 c 0
 125 354 108 330 108 293 c 0
EndSplineSet
EndChar

StartChar: uni0E09
Encoding: 169 3593 136
Width: 670
Flags: W
HStem: -4 66<454.735 529.75> 195 41<346.906 404 480 511.05> 205 22<73.2115 128.239> 352 35<75.0675 135.451> 516 48<160.278 344.818>
VStem: 37 29<231.812 346.715> 145 76<117 229 232.985 345.625> 404 76<63.0761 193 236 458.396> 533 38<63.2227 173.876>
AnchorPoint: "AboveBase" 495 615 basechar 0
LayerCount: 2
Back
SplineSet
571.473 111.576 m 0
 571.473 34.3311 540.718 -4.29102 479.206 -4.29102 c 0
 429.141 -4.29102 404.107 23.6025 404.107 80.8213 c 2
 404.107 194.543 l 1
 364.054 188.106 328.292 168.08 296.822 134.464 c 0
 264.637 101.563 241.034 56.5039 223.868 0 c 1
 145.192 0 l 1
 145.192 228.16 l 1
 140.186 221.008 133.749 214.569 125.881 210.994 c 0
 118.014 206.702 110.146 205.272 102.278 205.272 c 0
 80.1064 205.272 63.6562 213.854 52.9277 232.45 c 0
 42.1992 250.331 36.4766 268.929 36.4766 288.239 c 0
 36.4766 316.85 43.6289 340.452 57.2188 359.048 c 0
 70.8086 377.643 91.5498 386.941 120.159 386.941 c 0
 151.63 386.941 175.947 376.928 193.828 358.333 c 0
 212.426 339.021 221.008 313.987 221.008 282.518 c 2
 221.008 117.299 l 1
 237.457 150.199 261.775 176.662 293.962 195.975 c 0
 325.432 216.001 362.624 228.875 404.107 236.027 c 1
 404.107 376.213 l 2
 404.107 422.703 390.519 457.035 363.339 480.638 c 0
 336.16 504.24 298.969 515.685 253.193 515.685 c 0
 175.947 515.685 113.723 484.213 65.8018 421.988 c 1
 48.6357 430.57 l 1
 65.0859 470.624 92.2656 502.811 130.888 527.127 c 0
 169.511 551.446 211.709 563.605 257.484 563.605 c 0
 318.994 563.605 371.207 551.446 413.406 525.697 c 0
 438.438 511.393 456.319 492.797 465.617 469.909 c 0
 475.631 447.736 480.638 421.273 480.638 391.233 c 2
 480.638 233.167 l 1
 540.718 222.438 571.473 181.669 571.473 111.576 c 0
142.332 290.385 m 1
 143.047 308.266 140.186 323.286 133.749 334.73 c 0
 128.027 346.173 117.299 351.895 102.278 351.895 c 0
 93.6953 351.895 85.1133 346.173 77.9609 336.16 c 0
 70.0928 326.146 65.8018 309.697 65.8018 288.239 c 0
 65.8018 271.074 69.3779 256.055 75.0996 244.61 c 0
 81.5371 233.167 91.5498 226.729 105.14 226.729 c 0
 118.014 226.729 128.027 233.882 134.464 247.471 c 0
 141.616 261.062 143.762 278.941 142.332 301.829 c 1
 142.332 290.385 l 1
532.851 110.146 m 0
 532.851 132.318 528.559 150.914 519.26 164.504 c 0
 509.963 178.809 497.087 188.821 480.638 193.113 c 1
 480.638 90.835 l 2
 480.638 71.5234 487.79 61.5098 502.094 61.5098 c 0
 522.837 61.5098 532.851 77.9609 532.851 110.146 c 0
EndSplineSet
Fore
SplineSet
145 0 m 1xdf80
 145 229 l 1
 135 212 119 205 103 205 c 0xbf80
 57 205 37 249 37 289 c 0
 37 346 63 387 120 387 c 0
 183 387 221 346 221 283 c 2
 221 117 l 1
 255 183 321 223 404 236 c 1
 404 376 l 2
 404 469 346 516 253 516 c 0
 176 516 114 485 66 422 c 1
 48 431 l 1
 82 511 166 564 258 564 c 0
 319 564 371 551 413 526 c 0
 464 497 480 451 480 391 c 2
 480 233 l 1
 541 223 571 182 571 111 c 0
 571 34 541 -4 479 -4 c 0
 429 -4 404 23 404 81 c 2
 404 195 l 1
 324 182 258 113 224 0 c 1
 145 0 l 1xdf80
143 289 m 0
 143 329 132 352 103 352 c 0
 85 352 66 331 66 289 c 0
 66 253 78 227 105 227 c 0
 130 227 143 254 143 289 c 0
480 193 m 1
 480 91 l 2
 480 72 488 62 502 62 c 0
 523 62 533 78 533 110 c 0
 533 155 514 183 480 193 c 1
EndSplineSet
EndChar

StartChar: uni0E0A
Encoding: 170 3594 137
Width: 520
Flags: W
HStem: 0 29<75 130 207 333.03> 341 24<65.5902 123.444> 533 31<118.739 217.307>
VStem: 29 28<370.007 481.506> 130 30<368.202 485.148> 130 77<29 291.646> 344 76<40.8552 343.121 487.625 598>
LayerCount: 2
Back
SplineSet
420.558 79.3906 m 2
 420.558 61.5098 414.836 44.3447 404.107 27.8945 c 0
 391.233 9.29785 375.498 0 356.187 0 c 2
 74.3848 0 l 1
 74.3848 29.3242 l 1
 130.173 29.3242 l 1
 130.173 253.193 l 2
 130.173 302.544 151.63 351.895 193.113 402.677 c 0
 203.842 416.267 212.426 428.425 218.861 439.154 c 0
 225.3 449.883 228.16 460.61 228.16 471.339 c 0
 228.16 512.823 205.272 532.851 159.498 532.851 c 0
 139.471 532.851 121.59 528.559 107.285 519.975 c 1
 121.59 519.975 134.464 509.963 146.624 489.22 c 0
 151.63 480.638 154.491 470.624 156.637 459.181 c 0
 158.781 447.736 159.498 438.438 159.498 430.57 c 0
 159.498 409.114 153.774 389.088 142.332 369.775 c 0
 130.173 350.465 114.438 341.167 95.126 341.167 c 0
 77.9609 341.167 62.2256 349.034 49.3516 364.054 c 0
 35.7617 379.074 29.3242 401.247 29.3242 430.57 c 0
 29.3242 468.479 41.4834 500.664 65.8018 525.697 c 0
 90.1191 551.446 121.59 563.605 159.498 563.605 c 0
 233.167 563.605 276.081 530.704 290.385 464.188 c 1
 322.571 480.638 338.306 519.26 338.306 580.055 c 2
 338.306 597.936 l 1
 420.558 597.936 l 1
 420.558 580.055 l 2
 420.558 540.002 413.406 509.246 399.101 487.79 c 0
 384.796 466.332 359.048 451.312 322.571 444.161 c 1
 349.75 444.161 373.353 426.995 394.094 394.094 c 0
 411.26 369.775 420.558 341.167 420.558 307.551 c 2
 420.558 79.3906 l 2
130.173 430.57 m 0
 130.173 445.591 127.312 458.465 121.59 470.624 c 0
 115.868 482.783 107.285 489.22 95.126 489.22 c 0
 86.543 489.22 77.9609 483.498 69.3779 472.056 c 0
 61.5098 461.325 57.2188 447.021 57.2188 430.57 c 0
 57.2188 409.829 60.7949 394.094 67.2324 382.649 c 0
 74.3848 370.492 83.6826 364.769 95.126 364.769 c 0
 108 364.769 116.583 370.492 122.305 383.366 c 0
 128.027 395.525 130.173 411.26 130.173 430.57 c 0
344.027 77.9609 m 2
 344.027 307.551 l 2
 344.027 339.021 338.306 363.339 326.863 380.505 c 0
 314.703 398.386 300.398 411.26 282.518 419.128 c 1
 282.518 414.121 277.511 404.822 268.212 391.948 c 0
 258.2 378.359 245.324 360.479 228.16 336.875 c 0
 213.854 315.418 206.702 288.239 206.702 256.055 c 2
 206.702 29.3242 l 1
 291.816 29.3242 l 2
 303.976 29.3242 316.133 34.3311 327.577 43.6289 c 0
 338.306 53.6426 344.027 65.0859 344.027 77.9609 c 2
EndSplineSet
Fore
SplineSet
130 253 m 2xf6
 130 367 229 418 229 472 c 0
 229 513 205 533 160 533 c 0
 139 533 122 529 107 520 c 1
 138 520 160 473 160 431 c 0
 160 388 135 341 95 341 c 0
 60 341 29 372 29 431 c 0
 29 507 83 564 160 564 c 0xfa
 233 564 277 530 290 464 c 1
 322 480 338 520 338 580 c 2
 338 598 l 1
 420 598 l 1
 420 580 l 2
 420 499 397 460 322 444 c 1
 350 444 374 428 394 394 c 0
 412 369 420 341 420 308 c 2
 420 79 l 2
 420 42 394 0 356 0 c 2
 75 0 l 1
 75 29 l 1
 130 29 l 1
 130 253 l 2xf6
130 431 m 0
 130 460 119 489 95 489 c 0
 78 489 57 464 57 431 c 0
 57 390 72 365 95 365 c 0
 120 365 130 391 130 431 c 0
283 419 m 1
 283 409 262 384 229 337 c 0
 214 315 207 289 207 256 c 2
 207 29 l 1xf6
 291 29 l 2
 316 29 344 53 344 78 c 2
 344 308 l 2
 344 371 318 403 283 419 c 1
EndSplineSet
EndChar

StartChar: uni0E0B
Encoding: 171 3595 138
Width: 574
Flags: W
HStem: 0 28<129 182 258 385.694> 341 31<63.1096 125.093> 491 29<91 123.218> 533 31<96.8758 163.253 209.399 282.247>
VStem: 26 28<380.04 485.409> 133 27<377.081 483.917> 179 22<467 517.515> 182 76<28 333.493> 289 48<465.406 527.171> 398 77<40.5132 399.185 493.598 599>
LayerCount: 2
Back
SplineSet
246.041 563.605 m 0
 221.723 563.605 202.412 551.446 188.821 527.127 c 1
 182.385 539.287 173.087 547.869 161.644 554.307 c 0
 150.914 560.743 139.471 563.605 127.312 563.605 c 0
 110.861 563.605 95.8418 560.028 83.6826 551.446 c 0
 70.8086 542.862 60.0801 532.851 52.2119 519.975 c 0
 43.6289 507.101 37.1924 492.797 32.9004 477.062 c 0
 28.6094 460.61 26.4639 444.161 26.4639 427.71 c 0
 26.4639 403.393 33.6162 382.649 47.9209 366.2 c 0
 61.5098 349.75 77.2451 341.167 93.6953 341.167 c 0
 114.438 341.167 130.173 350.465 142.332 369.775 c 0
 153.774 389.088 159.498 408.399 159.498 427.71 c 0
 159.498 452.028 154.491 473.485 143.762 492.082 c 0
 130.888 510.678 113.007 519.975 90.835 519.975 c 1
 92.9805 524.981 97.2715 528.559 104.424 529.988 c 0
 112.292 532.134 119.444 532.851 127.312 532.851 c 0
 134.464 532.851 144.478 527.844 158.066 517.114 c 0
 171.657 506.386 178.809 489.936 178.809 467.049 c 1
 200.98 467.049 l 1
 200.98 511.393 216.001 532.851 246.041 532.851 c 0
 261.062 532.851 271.789 528.559 278.226 519.26 c 0
 285.378 509.963 288.239 497.804 288.239 482.068 c 0
 288.239 469.909 283.948 457.75 274.65 445.591 c 0
 265.352 432.717 251.763 414.121 234.597 389.803 c 0
 216.001 364.054 202.412 340.452 193.828 317.564 c 0
 185.961 295.392 181.669 274.65 181.669 254.623 c 2
 181.669 27.8945 l 1
 128.742 27.8945 l 1
 128.742 0 l 1
 409.829 0 l 2
 429.855 0 446.307 9.29785 459.896 27.8945 c 0
 464.902 35.7617 468.479 43.6289 470.624 52.2119 c 0
 473.485 60.0801 474.916 70.0928 474.916 80.8213 c 2
 474.916 310.412 l 2
 474.916 355.472 466.332 389.803 449.883 414.121 c 0
 433.432 437.724 408.399 449.883 376.213 449.883 c 1
 442.015 458.465 474.916 502.811 474.916 582.916 c 2
 474.916 599.367 l 1
 391.233 599.367 l 1
 391.233 582.916 l 2
 391.233 550.731 386.227 522.837 376.928 499.233 c 0
 367.631 476.346 354.757 464.188 338.306 464.188 c 2
 336.875 464.188 l 1
 336.16 495.657 326.863 519.975 309.697 537.857 c 0
 292.531 555.021 271.789 563.605 246.041 563.605 c 0
398.386 80.8213 m 2
 398.386 67.2324 392.663 54.3574 379.789 43.6289 c 0
 367.631 32.9004 356.187 27.8945 345.458 27.8945 c 2
 257.484 27.8945 l 1
 257.484 256.055 l 2
 257.484 282.518 270.358 317.564 294.677 361.908 c 0
 302.544 373.353 308.982 384.796 314.703 396.24 c 0
 321.14 407.684 325.432 418.413 329.724 429.141 c 1
 353.326 426.28 369.775 414.121 380.505 391.948 c 0
 391.233 369.775 397.67 342.598 398.386 310.412 c 1
 398.386 80.8213 l 2
133.033 427.71 m 0
 133.033 411.26 129.457 397.67 122.305 387.656 c 0
 115.152 376.928 106.57 371.922 96.5566 371.922 c 0
 85.8281 371.922 75.8145 376.928 67.2324 387.656 c 0
 58.6494 397.67 54.3574 411.26 54.3574 427.71 c 0
 54.3574 444.161 57.9336 459.181 64.3711 471.339 c 0
 71.5234 484.213 80.1064 490.65 90.835 490.65 c 0
 105.14 490.65 115.868 484.213 123.021 469.909 c 0
 130.173 456.319 133.033 442.015 133.033 427.71 c 0
EndSplineSet
Fore
SplineSet
182 255 m 2xfdc0
 182 363 289 434 289 482 c 0
 289 513 275 533 246 533 c 0
 215 533 201 511 201 467 c 1
 179 467 l 1xfec0
 179 513 141 533 127 533 c 0
 111 533 95 530 91 520 c 1
 138 520 160 477 160 428 c 0
 160 388 135 341 94 341 c 0
 60 341 26 379 26 428 c 0
 26 492 62 564 127 564 c 0
 151 564 176 551 189 527 c 1
 202 552 221 564 246 564 c 0
 297 564 335 527 337 464 c 1
 338 464 l 2
 372 464 391 519 391 583 c 2
 391 599 l 1
 475 599 l 1
 475 583 l 2
 475 502 442 458 376 450 c 1
 441 450 475 400 475 311 c 2
 475 81 l 2
 475 35 449 0 410 0 c 2
 129 0 l 1
 129 28 l 1
 182 28 l 1
 182 255 l 2xfdc0
330 429 m 1
 322 407 311 385 294 362 c 0
 270 318 258 283 258 256 c 2
 258 28 l 1xfdc0
 346 28 l 2
 368 28 398 53 398 81 c 2
 398 311 l 2
 397 375 376 423 330 429 c 1
133 428 m 0
 133 457 120 491 91 491 c 0
 69 491 54 461 54 428 c 0
 54 394 75 372 97 372 c 0
 116 372 133 394 133 428 c 0
EndSplineSet
EndChar

StartChar: uni0E0C
Encoding: 172 3596 139
Width: 793
Flags: W
HStem: -9 31<167.884 230.585> -7 57<340.749 402.787> 141 29<168.426 228.617> 190 40<361.172 407 483 532.893> 429 24<95 152.205> 516 48<160.492 340.436>
VStem: 78 76<32.021 131.208 146 356.878> 237 25<26.7005 120.637> 300 35<53.698 166.449> 407 76<53.4015 190 233 449.921> 618 76<0 88.5803 163 554>
LayerCount: 2
Back
SplineSet
694.492 0 m 1
 613.671 0 l 1
 613.671 24.3184 610.81 46.4902 604.374 65.8018 c 0
 597.936 85.1133 589.354 103.709 578.625 120.159 c 0
 567.896 138.04 555.021 153.06 539.287 165.219 c 0
 523.552 178.094 504.956 186.676 483.498 190.253 c 1
 483.498 77.9609 l 2
 483.498 20.7422 457.75 -7.15234 406.969 -7.15234 c 0
 373.353 -7.15234 346.888 2.86133 328.292 23.6025 c 0
 309.697 43.6289 300.398 71.5234 300.398 105.14 c 0
 300.398 138.04 309.697 163.788 328.292 184.531 c 0
 346.888 205.272 373.353 220.293 406.969 230.306 c 1
 406.969 376.213 l 2
 406.969 419.128 392.663 453.458 364.054 478.491 c 0
 335.445 502.811 298.969 515.685 256.055 515.685 c 0
 188.106 515.685 134.464 494.942 95.126 452.743 c 1
 146.624 452.743 188.106 431.287 218.146 389.803 c 1
 198.835 384.081 183.1 374.067 171.657 359.762 c 0
 159.498 345.458 153.774 326.863 153.774 303.259 c 2
 153.774 146.624 l 1
 158.066 152.345 163.073 158.066 170.94 162.358 c 0
 178.094 167.365 187.392 170.226 199.55 170.226 c 0
 222.438 170.226 238.889 160.213 248.187 140.901 c 0
 257.484 120.875 262.49 100.133 262.49 77.9609 c 0
 262.49 20.0264 233.882 -8.58301 177.379 -8.58301 c 0
 145.908 -8.58301 121.59 0 103.709 17.8809 c 0
 86.543 35.0469 77.9609 59.3643 77.9609 90.835 c 2
 77.9609 282.518 l 2
 77.9609 343.312 106.57 382.649 163.788 399.815 c 1
 138.756 419.128 98.7021 429.141 43.6289 429.141 c 1
 53.6426 466.332 82.252 499.233 130.173 527.127 c 0
 173.087 551.446 216.001 563.605 257.484 563.605 c 0
 325.432 563.605 377.643 549.3 416.267 519.975 c 0
 460.61 487.79 483.498 439.869 483.498 376.213 c 2
 483.498 233.167 l 1
 509.963 228.875 534.995 221.723 557.882 210.279 c 0
 581.486 198.835 601.513 183.1 617.963 162.358 c 1
 617.963 553.592 l 1
 694.492 553.592 l 1
 694.492 0 l 1
406.969 102.278 m 2
 406.969 190.253 l 1
 359.048 182.385 335.445 153.774 335.445 103.709 c 0
 335.445 70.0928 347.604 51.4971 371.922 50.0664 c 0
 395.525 47.9209 406.969 65.0859 406.969 102.278 c 2
237.457 77.9609 m 0
 237.457 89.4043 234.597 102.994 229.59 118.014 c 0
 223.868 133.033 213.14 140.901 197.405 140.901 c 0
 186.676 140.901 178.094 135.18 171.657 124.451 c 0
 164.504 113.723 160.928 97.2715 160.928 74.3848 c 0
 160.928 59.3643 164.504 46.4902 171.657 36.4766 c 0
 178.094 27.1787 187.392 22.1719 199.55 22.1719 c 0
 213.14 22.1719 222.438 27.8945 228.16 39.3379 c 0
 234.597 51.4971 237.457 63.6562 237.457 77.9609 c 0
EndSplineSet
Fore
SplineSet
694 554 m 1xbfe0
 694 0 l 1
 614 0 l 1
 614 105 546 180 483 190 c 1
 483 78 l 2
 483 21 458 -7 407 -7 c 0x7fe0
 338 -7 300 37 300 105 c 0
 300 170 338 211 407 230 c 1
 407 376 l 2
 407 463 343 516 256 516 c 0
 187 516 135 495 95 453 c 1
 146 453 187 432 218 390 c 1
 179 378 154 350 154 303 c 2
 154 146 l 1
 161 158 176 170 199 170 c 0
 246 170 262 123 262 78 c 0
 262 21 234 -9 177 -9 c 0
 114 -9 78 28 78 91 c 2
 78 283 l 2
 78 343 107 382 164 400 c 1
 139 419 98 429 44 429 c 1
 63 497 162 564 258 564 c 0
 391 564 483 503 483 376 c 2
 483 233 l 1
 536 226 584 204 618 163 c 1
 618 554 l 1
 694 554 l 1xbfe0
407 190 m 1
 359 183 335 154 335 104 c 0
 335 70 347 51 372 50 c 0
 395 48 407 66 407 103 c 2
 407 190 l 1
237 78 m 0
 237 101 229 141 198 141 c 0
 176 141 161 120 161 75 c 0
 161 44 176 22 199 22 c 0xbfe0
 227 22 237 50 237 78 c 0
EndSplineSet
EndChar

StartChar: uni0E0D
Encoding: 173 3597 140
Width: 795
Flags: W
HStem: -286 28<484.384 585.457> -227 22<473.695 516.893> -89 23<455.814 514.564> -9 28<167.294 231.369> 0 28<478 611.583> 132 29<168.817 230.026> 429 25<95 151.481> 516 48<157.814 333.76>
VStem: 78 76<29.7294 119.307 138 356.878> 239 23<24.9215 125.802> 398 49<-197.164 -94.7993> 401 77<28 449.12> 524 24<-200.502 -95.9097> 620 76<-152.539 -66 37.842 554>
LayerCount: 2
Back
SplineSet
696 554 m 1xefdc
 696 81 l 2
 696 26 675 0 633 0 c 2
 406 0 l 1xefdc
 406 376 l 2
 406 458 338 516 256 516 c 0
 187 516 133 495 95 454 c 1
 145 454 186 432 218 390 c 1
 179 378 154 350 154 303 c 2
 154 138 l 1
 167 154 183 161 205 161 c 0
 239 161 267 132 267 75 c 0
 267 19 236 -9 176 -9 c 0xf7dc
 116 -9 78 28 78 91 c 2
 78 284 l 2
 78 344 107 382 164 400 c 1
 139 419 98 429 44 429 c 1
 63 501 161 564 258 564 c 0
 407 564 482 501 482 376 c 2
 482 28 l 1
 567 28 l 2
 596 28 620 45 620 81 c 2
 620 554 l 1
 696 554 l 1xefdc
696 -66 m 1xe7ea
 696 -212 642 -286 532 -286 c 0
 457 -286 398 -231 398 -157 c 0
 398 -104 434 -66 485 -66 c 0
 524 -66 548 -105 548 -146 c 0
 548 -187 524 -227 485 -227 c 2
 473 -226 l 1
 492 -248 516 -258 545 -258 c 0
 573 -258 596 -230 612 -202 c 0
 631 -169 626 -113 624 -66 c 1
 696 -66 l 1xe7ea
243 75 m 0
 243 108 224 132 205 132 c 0
 186 132 163 108 163 73 c 0
 163 45 176 19 205 19 c 0xf7c8
 224 19 243 40 243 75 c 0
485 -89 m 0
 464 -89 447 -116 447 -146 c 0xe7e8
 447 -179 464 -202 485 -205 c 1
 513 -205 524 -180 524 -146 c 0
 524 -119 508 -89 485 -89 c 0
EndSplineSet
Fore
SplineSet
696 554 m 1xefdc
 696 81 l 2
 696 26 674 0 631 0 c 2
 401 0 l 1xefdc
 401 376 l 2
 401 458 338 516 256 516 c 0
 187 516 133 495 95 454 c 1
 145 454 186 432 218 390 c 1
 179 378 154 350 154 303 c 2
 154 138 l 1
 166 154 179 161 201 161 c 0
 234 161 262 132 262 75 c 0
 262 19 231 -9 171 -9 c 0xf7dc
 111 -9 78 28 78 91 c 2
 78 284 l 2
 78 344 107 382 164 400 c 1
 139 419 98 429 44 429 c 1
 63 501 161 564 258 564 c 0
 404 564 478 501 478 376 c 2
 478 28 l 1
 567 28 l 2
 596 28 620 45 620 81 c 2
 620 554 l 1
 696 554 l 1xefdc
239 75 m 0
 239 108 220 132 201 132 c 0
 182 132 158 108 158 73 c 0
 158 51 171 19 201 19 c 0xf7cc
 220 19 239 40 239 75 c 0
696 -66 m 1
 696 -212 642 -286 532 -286 c 0
 457 -286 398 -231 398 -157 c 0xe7ec
 398 -104 434 -66 485 -66 c 0
 524 -66 548 -105 548 -146 c 0
 548 -187 524 -227 485 -227 c 2
 473 -226 l 1
 492 -248 516 -258 545 -258 c 0
 573 -258 596 -230 612 -202 c 0
 631 -169 626 -113 624 -66 c 1
 696 -66 l 1
485 -89 m 0
 464 -89 447 -116 447 -146 c 0
 447 -179 464 -202 485 -205 c 1
 513 -205 524 -180 524 -146 c 0
 524 -119 508 -89 485 -89 c 0
EndSplineSet
Substitution2: "Thai Descender Removal Single Substitution" uni0E0D.descless
EndChar

StartChar: uni0E0E
Encoding: 174 3598 141
Width: 626
Flags: W
HStem: -223 33<153.193 284.511> -81 41<160.45 270.89> -9 30<67.8645 133.112> 136 34<67.6391 125.424> 429 25<161 211.373> 516 48<225.32 396.665>
VStem: 29 30<27.6009 129.202> 108 34<-177.241 -99.2676> 142 76<28.4242 129.829 152 359.125> 338 44<-54.8891 0> 451 76<-132 458.531>
AnchorPoint: "BelowBase" 527 -246 basechar 0
LayerCount: 2
Back
SplineSet
527.127 -236.027 m 1
 527.127 376.213 l 2
 527.127 407.684 521.406 436.294 510.678 461.325 c 0
 499.233 487.075 482.068 507.816 459.896 524.267 c 0
 440.584 539.287 421.273 549.3 401.962 555.021 c 0
 383.366 560.743 356.901 563.605 324.001 563.605 c 0
 279.656 563.605 236.742 551.446 194.543 527.127 c 0
 171.657 513.538 151.63 498.519 134.464 482.783 c 0
 118.014 466.332 107.285 448.451 100.848 429.141 c 1
 153.774 429.141 195.26 419.128 225.3 399.815 c 1
 170.226 384.081 142.332 345.458 142.332 282.518 c 2
 142.332 152.345 l 1
 125.166 163.788 111.576 170.226 100.848 170.226 c 0
 78.6758 170.226 60.7949 160.928 48.6357 142.332 c 0
 35.7617 123.735 29.3242 102.278 29.3242 79.3906 c 0
 29.3242 51.4971 37.1924 30.04 53.6426 14.3047 c 0
 69.3779 -0.714844 91.5498 -8.58301 118.729 -8.58301 c 0
 155.921 -8.58301 181.669 0 195.975 17.8809 c 0
 210.994 35.0469 218.146 62.2256 218.146 99.418 c 2
 218.146 303.259 l 2
 218.146 325.432 224.583 344.027 236.742 359.048 c 0
 248.901 373.353 263.922 384.081 282.518 389.803 c 1
 251.763 432.717 210.994 454.175 160.928 454.175 c 1
 199.55 494.942 253.193 515.685 322.571 515.685 c 0
 364.054 515.685 396.24 502.811 418.413 477.776 c 0
 439.869 452.028 451.312 418.413 451.312 376.213 c 2
 451.312 -131.604 l 1
 405.537 -99.418 l 2
 399.101 -94.4111 392.663 -90.835 387.656 -87.2588 c 0
 381.935 -83.6826 377.643 -80.8213 373.353 -77.9609 c 1
 374.782 -72.9541 375.498 -63.6562 376.928 -50.0664 c 0
 378.359 -36.4766 380.505 -19.3115 382.649 0 c 1
 338.306 0 l 1
 337.591 -17.8809 336.875 -30.7549 336.16 -39.3379 c 0
 335.445 -48.6357 334.73 -55.0732 332.584 -60.0801 c 1
 316.85 -54.3574 301.113 -49.3516 283.948 -45.0596 c 0
 267.497 -41.4834 251.048 -39.3379 234.597 -39.3379 c 0
 202.412 -39.3379 173.087 -48.6357 147.338 -65.8018 c 0
 121.59 -83.6826 108.716 -108 108.716 -139.471 c 0
 108.716 -153.774 111.576 -166.65 118.729 -177.379 c 0
 125.166 -188.106 134.464 -196.688 145.192 -203.842 c 0
 155.921 -210.279 168.08 -215.286 181.669 -218.146 c 0
 195.26 -221.008 208.849 -222.438 222.438 -222.438 c 0
 230.306 -222.438 238.174 -222.438 245.324 -221.008 c 0
 252.478 -220.293 259.63 -218.861 266.782 -216.716 c 0
 297.537 -208.849 319.71 -195.975 333.299 -177.379 c 0
 346.173 -158.781 354.757 -143.762 357.618 -133.033 c 1
 374.782 -148.053 391.233 -163.073 405.537 -179.524 c 0
 420.558 -195.26 434.147 -214.569 447.021 -236.027 c 1
 527.127 -236.027 l 1
322.571 -108.716 m 1
 320.425 -123.735 313.987 -139.471 302.544 -153.774 c 0
 291.1 -168.795 278.226 -178.094 263.922 -183.1 c 0
 248.901 -188.106 234.597 -190.253 219.576 -190.253 c 0
 200.266 -190.253 182.385 -186.676 165.934 -178.809 c 0
 150.199 -170.94 142.332 -157.352 142.332 -138.04 c 0
 142.332 -120.159 150.914 -105.854 168.795 -95.8418 c 0
 185.961 -85.8281 205.987 -80.8213 228.16 -80.8213 c 0
 243.896 -80.8213 260.345 -82.252 277.511 -86.543 c 0
 294.677 -90.1191 309.697 -97.9873 322.571 -108.716 c 1
142.332 79.3906 m 0
 142.332 59.3643 138.04 45.0596 128.742 35.0469 c 0
 120.159 25.0332 110.146 20.7422 99.418 20.7422 c 0
 90.1191 20.7422 80.8213 25.0332 71.5234 35.0469 c 0
 62.9404 45.0596 58.6494 59.3643 58.6494 79.3906 c 0
 58.6494 91.5498 62.2256 104.424 68.6621 117.299 c 0
 75.8145 130.173 85.8281 135.895 99.418 135.895 c 0
 112.292 135.895 122.305 130.888 130.173 120.875 c 0
 138.04 110.861 142.332 96.5566 142.332 79.3906 c 0
EndSplineSet
Fore
SplineSet
527 -236 m 1
 447 -236 l 1
 422 -193 393 -163 357 -133 c 1
 349 -164 308 -223 223 -223 c 0
 168 -223 108 -199 108 -139 c 0
 108 -76 170 -40 234 -40 c 0
 268 -40 302 -48 333 -60 c 1
 337 -50 337 -35 338 0 c 1
 382 0 l 1
 378 -40 375 -67 374 -78 c 1
 375 -78 447 -129 451 -132 c 1
 451 376 l 2
 451 460 406 516 322 516 c 0
 253 516 199 495 161 454 c 1
 211 454 252 432 283 390 c 1
 246 378 218 349 218 303 c 2
 218 100 l 2
 218 25 193 -9 119 -9 c 0
 64 -9 29 25 29 79 c 0
 29 126 56 170 101 170 c 0
 111 170 126 164 142 152 c 1
 142 283 l 2
 142 346 170 384 226 400 c 1
 195 419 154 429 101 429 c 1
 122 498 229 564 324 564 c 0
 442 564 527 502 527 376 c 2
 527 -236 l 1
322 -108 m 1
 297 -86 259 -81 229 -81 c 0
 183 -81 142 -103 142 -138 c 0
 142 -177 180 -190 220 -190 c 0
 262 -190 316 -160 322 -108 c 1
142 79 m 0
 142 114 125 136 100 136 c 0
 72 136 59 104 59 79 c 0
 59 40 81 21 100 21 c 0
 122 21 142 40 142 79 c 0
EndSplineSet
EndChar

StartChar: uni0E0F
Encoding: 175 3599 142
Width: 626
Flags: MW
HStem: -211 29<139.036 238.473> -81 39<131.554 223.933> -9 30<67.8645 133.359> 136 34<67.6391 126.758> 429 25<161 211.373> 516 48<225.32 396.408>
VStem: 29 30<27.6009 129.202> 89 36<-167.453 -89.0563> 142 76<27.9009 129.829 151 359.125> 280 29<-54.6562 0> 451 76<-136 462.634>
AnchorPoint: "BelowBase" 527 -246 basechar 0
LayerCount: 2
Back
SplineSet
527.127 376.213 m 2
 527.127 407.684 521.406 436.294 510.678 461.325 c 0
 499.233 487.075 482.068 507.816 459.896 524.267 c 0
 440.584 539.287 421.273 549.3 401.962 555.021 c 0
 383.366 560.743 356.901 563.605 324.001 563.605 c 0
 279.656 563.605 236.742 551.446 194.543 527.127 c 0
 171.657 513.538 151.63 498.519 134.464 482.783 c 0
 118.014 466.332 107.285 448.451 100.848 429.141 c 1
 153.774 429.141 195.26 419.128 225.3 399.815 c 1
 170.226 384.081 142.332 345.458 142.332 282.518 c 2
 142.332 150.914 l 1
 138.04 156.637 132.318 161.644 123.735 164.504 c 0
 115.152 168.08 108 170.226 100.848 170.226 c 0
 78.6758 170.226 60.7949 160.928 48.6357 142.332 c 0
 35.7617 123.735 29.3242 102.278 29.3242 79.3906 c 0
 29.3242 51.4971 37.1924 30.04 53.6426 14.3047 c 0
 69.3779 -0.714844 91.5498 -8.58301 118.729 -8.58301 c 0
 158.066 -8.58301 183.814 0.714844 197.405 20.7422 c 0
 211.709 40.0527 218.146 65.8018 218.146 97.9873 c 2
 218.146 301.829 l 2
 218.146 324.001 224.583 343.312 236.742 358.333 c 0
 248.901 373.353 263.922 384.081 282.518 389.803 c 1
 251.763 432.717 210.994 454.175 160.928 454.175 c 1
 199.55 494.942 253.193 515.685 322.571 515.685 c 0
 364.054 515.685 396.24 502.811 418.413 477.776 c 0
 439.869 452.028 451.312 418.413 451.312 376.213 c 2
 451.312 -135.895 l 1
 399.815 -42.1992 l 1
 356.187 -140.901 l 1
 335.445 -115.868 317.564 -97.9873 303.259 -85.1133 c 1
 305.405 -71.5234 306.836 -59.3643 307.551 -49.3516 c 0
 308.266 -38.623 308.982 -28.6094 308.982 -17.8809 c 2
 308.982 0 l 1
 279.656 0 l 1
 279.656 -10.7285 279.656 -21.457 278.941 -32.9004 c 0
 278.226 -44.3447 276.796 -55.0732 273.936 -65.8018 c 1
 258.915 -55.0732 246.041 -48.6357 234.597 -46.4902 c 0
 222.438 -43.6289 208.134 -42.1992 191.683 -42.1992 c 0
 164.504 -42.1992 140.901 -50.0664 120.159 -65.8018 c 0
 99.418 -81.5371 89.4043 -102.278 89.4043 -128.742 c 0
 89.4043 -153.06 99.418 -173.087 120.159 -188.106 c 0
 140.901 -203.127 163.788 -210.994 190.253 -210.994 c 0
 242.464 -210.994 273.936 -185.246 285.378 -134.464 c 1
 298.252 -151.63 307.551 -168.08 312.558 -185.246 c 0
 318.279 -202.412 321.856 -219.576 324.001 -237.457 c 1
 357.618 -237.457 l 1
 401.247 -134.464 l 1
 457.035 -237.457 l 1
 527.127 -237.457 l 1
 527.127 376.213 l 2
262.49 -111.576 m 1
 250.331 -158.066 226.729 -181.669 190.253 -181.669 c 0
 173.802 -181.669 158.781 -176.662 145.192 -165.934 c 0
 131.604 -155.921 124.451 -143.762 124.451 -130.173 c 0
 124.451 -97.2715 145.192 -80.8213 185.961 -80.8213 c 0
 199.55 -80.8213 213.854 -82.9668 227.444 -87.9736 c 0
 241.749 -92.9805 253.193 -100.848 262.49 -111.576 c 1
142.332 79.3906 m 0
 142.332 59.3643 138.04 45.0596 128.742 35.0469 c 0
 120.159 25.0332 110.146 20.7422 99.418 20.7422 c 0
 90.1191 20.7422 80.8213 25.0332 71.5234 35.0469 c 0
 62.9404 45.0596 58.6494 59.3643 58.6494 79.3906 c 0
 58.6494 91.5498 62.2256 104.424 68.6621 117.299 c 0
 75.8145 130.173 85.8281 135.895 99.418 135.895 c 0
 112.292 135.895 122.305 130.888 130.173 120.875 c 0
 138.04 110.861 142.332 96.5566 142.332 79.3906 c 0
EndSplineSet
Fore
SplineSet
527 -237 m 1
 457 -237 l 1
 401 -135 l 1
 357 -237 l 1
 324 -237 l 1
 319 -202 311 -168 286 -135 c 1
 274 -186 242 -211 190 -211 c 0
 138 -211 89 -177 89 -129 c 0
 89 -76 138 -42 192 -42 c 0
 226 -42 245 -44 274 -66 c 1
 280 -44 280 -22 280 0 c 1
 309 0 l 1
 309 -18 l 2
 309 -40 308 -57 303 -85 c 1
 318 -98 335 -116 356 -141 c 1
 400 -42 l 1
 451 -136 l 1
 451 376 l 2
 451 460 406 516 322 516 c 0
 253 516 199 495 161 454 c 1
 211 454 252 432 283 390 c 1
 246 378 218 347 218 302 c 2
 218 98 l 2
 218 34 196 -9 119 -9 c 0
 64 -9 29 25 29 79 c 0
 29 126 56 170 101 170 c 0
 114 170 135 163 142 151 c 1
 142 283 l 2
 142 346 170 384 226 400 c 1
 195 419 154 429 101 429 c 1
 122 498 229 564 324 564 c 0
 453 564 527 492 527 376 c 2
 527 -237 l 1
262 -111 m 1
 245 -89 214 -81 186 -81 c 0
 145 -81 125 -97 125 -130 c 0
 125 -158 157 -182 190 -182 c 0
 227 -182 250 -158 262 -111 c 1
142 79 m 0
 142 114 125 136 100 136 c 0
 72 136 59 104 59 79 c 0
 59 40 81 21 100 21 c 0
 122 21 142 40 142 79 c 0
EndSplineSet
EndChar

StartChar: uni0E10
Encoding: 176 3600 143
Width: 521
Flags: W
HStem: -290 26<60.4563 127.609> -198 25<61.1146 117.953> -182 25<233.636 284.53> -50 28<232.849 291.245> 0 21G<283 359> 155 28<118.751 177.821> 289 33<119.076 177.859> 409 30<78.4703 204.375> 463 42<304.796 399.438> 499 65<111.666 266.521>
VStem: 29 30<-255.233 -200.318> 85 28<185.795 285.708> 185 27<187.653 266.72> 199 28<-153.449 -53.4101> 283 76<0 173.5 236 348.649> 300 60<-246 -164 -150.969 -54.5472>
LayerCount: 2
Back
SplineSet
360 -290 m 1xbf3080
 294 -290 l 1
 249 -249 l 1
 214 -290 l 1
 183 -290 l 1
 183 -280 182 -271 177 -264 c 2
 164 -242 l 1
 141 -274 116 -290 88 -290 c 0
 54 -290 29 -265 29 -231 c 0
 29 -198 60 -173 94 -173 c 0
 120 -173 142 -180 161 -195 c 1
 180 -158 l 1
 202 -171 l 1
 179 -215 l 1
 185 -221 192 -234 202 -253 c 1
 248 -196 l 1
 300 -246 l 1
 300 -164 l 1xdf3880
 289 -176 275 -182 261 -182 c 0
 220 -182 199 -142 199 -103 c 0
 199 -57 224 -22 270 -22 c 0
 330 -22 360 -54 360 -120 c 2xbf35
 360 -290 l 1xbf3080
296 -103 m 0xbf35
 296 -67 284 -50 261 -50 c 0
 243 -50 227 -67 227 -103 c 0
 227 -132 239 -157 261 -157 c 0
 280 -157 296 -138 296 -103 c 0xbf35
145 -220 m 1
 127 -205 110 -198 94 -198 c 0xdf30
 72 -198 59 -214 59 -231 c 0
 59 -248 67 -264 89 -264 c 0
 105 -264 123 -253 145 -220 c 1
448 557 m 1
 431 494 394 463 340 463 c 0x9fba
 324 463 299 467 264 479 c 0
 230 489 202 499 185 499 c 0
 127 499 92 479 79 437 c 1
 89 438 101 439 136 439 c 0
 195 439 245 429 284 407 c 0
 334 379 359 340 360 289 c 1
 360 0 l 1
 284 0 l 1
 284 141 253 231 207 272 c 1
 211 262 214 250 214 234 c 0
 214 193 189 155 149 155 c 0
 114 155 86 198 86 237 c 0
 86 286 113 322 167 322 c 0
 218 322 262 293 284 236 c 1
 284 287 l 1
 283 341 250 376 189 393 c 0
 151 403 98 409 31 409 c 1
 42 494 105 564 187 564 c 0x9f7a
 215 564 242 560 270 546 c 0
 293 535 340 505 357 505 c 0x9fba
 391 505 404 527 417 557 c 1
 448 557 l 1
186 237 m 0
 186 261 173 289 149 289 c 0
 127 289 114 267 114 237 c 0
 114 202 127 183 149 183 c 0
 168 183 186 202 186 237 c 0
EndSplineSet
Fore
SplineSet
338 463 m 0x9fba
 292 463 216 499 183 499 c 0
 126 499 91 479 78 437 c 1
 88 438 100 439 135 439 c 0
 254 439 359 392 359 289 c 2
 359 0 l 1
 283 0 l 1
 283 141 252 231 205 272 c 1
 209 262 212 250 212 234 c 0
 212 193 187 155 148 155 c 0
 113 155 85 198 85 237 c 0
 85 286 111 322 166 322 c 0
 217 322 261 293 283 236 c 1
 283 287 l 2
 283 393 158 409 29 409 c 1
 41 494 104 564 186 564 c 0x9f7a
 275 564 320 505 356 505 c 0
 390 505 403 527 416 557 c 1
 447 557 l 1
 429 494 393 463 338 463 c 0x9fba
185 237 m 0
 185 261 171 289 148 289 c 0
 126 289 113 267 113 237 c 0
 113 202 126 183 148 183 c 0
 167 183 185 202 185 237 c 0
360 -290 m 1xbf35
 294 -290 l 1
 249 -249 l 1
 214 -290 l 1
 183 -290 l 1
 183 -280 182 -271 177 -264 c 2
 164 -242 l 1
 141 -274 116 -290 88 -290 c 0
 54 -290 29 -265 29 -231 c 0
 29 -198 60 -173 94 -173 c 0xdf35
 120 -173 142 -180 161 -195 c 1
 180 -158 l 1
 202 -171 l 1
 179 -215 l 1
 185 -221 192 -234 202 -253 c 1
 248 -196 l 1
 300 -246 l 1
 300 -164 l 1
 289 -176 275 -182 261 -182 c 0
 220 -182 199 -142 199 -103 c 0
 199 -57 224 -22 270 -22 c 0
 330 -22 360 -54 360 -120 c 2
 360 -290 l 1xbf35
296 -103 m 0
 296 -67 284 -50 261 -50 c 0
 243 -50 227 -67 227 -103 c 0
 227 -132 239 -157 261 -157 c 0xbf34
 280 -157 296 -138 296 -103 c 0
145 -220 m 1
 127 -205 110 -198 94 -198 c 0xdf30
 72 -198 59 -214 59 -231 c 0
 59 -248 67 -264 89 -264 c 0
 105 -264 123 -253 145 -220 c 1
EndSplineSet
Substitution2: "Thai Descender Removal Single Substitution" uni0E10.descless
EndChar

StartChar: uni0E11
Encoding: 177 3601 144
Width: 670
Flags: W
HStem: 0 21G<173 258.981 495 571> 346 29<43.3216 100.794> 494 27<82 104.055> 494 70<57.5808 111.922 427.027 491.299> 535 29<91.3244 155.481 198.454 264.23>
VStem: 7 30<378.522 487.337> 110 31<380.883 490.264> 164 21<469 522.927> 173 76<94 334.35> 271 51<430.699 528.524> 495 76<0 495.375>
LayerCount: 2
Back
SplineSet
571.473 0 m 1
 494.942 0 l 1
 494.942 458.465 l 2
 494.942 472.056 491.365 482.068 484.93 488.505 c 0
 477.776 494.942 469.909 497.804 461.325 497.804 c 0
 451.312 497.804 442.729 496.372 434.147 492.797 c 0
 426.28 489.22 419.128 480.638 414.836 467.049 c 2
 251.763 0 l 1
 173.087 0 l 1
 173.087 254.623 l 2
 173.087 274.65 176.662 294.677 183.814 315.418 c 0
 190.968 336.875 203.127 359.762 219.576 385.512 c 0
 253.908 433.432 271.074 464.188 271.074 477.776 c 0
 271.074 514.968 257.484 532.851 230.306 532.851 c 0
 216.001 532.851 205.272 525.697 196.688 511.393 c 0
 188.821 496.372 184.531 482.068 184.531 468.479 c 1
 163.788 468.479 l 1
 163.788 512.823 148.768 534.995 118.729 534.995 c 0
 102.994 534.995 90.835 529.988 82.252 521.406 c 1
 100.848 521.406 115.152 514.253 125.166 498.519 c 0
 135.18 483.498 140.901 462.757 140.901 436.294 c 0
 140.901 408.399 134.464 386.227 121.59 369.775 c 0
 108.716 354.041 92.9805 345.458 72.9541 345.458 c 0
 55.7881 345.458 40.0527 354.041 27.1787 369.775 c 0
 13.5898 386.227 7.15234 408.399 7.15234 436.294 c 0
 7.15234 453.458 10.0137 469.193 16.4502 484.213 c 0
 22.1719 499.233 30.04 512.823 39.3379 524.267 c 0
 49.3516 536.426 60.7949 545.725 73.6689 552.876 c 0
 87.2588 560.028 101.563 563.605 117.299 563.605 c 0
 142.332 563.605 162.358 550.731 175.947 524.267 c 1
 182.385 545.725 202.412 559.313 234.597 563.605 c 1
 293.246 563.605 322.571 534.995 322.571 476.346 c 0
 322.571 462.042 319.71 449.168 313.987 435.577 c 0
 308.982 422.703 303.259 408.399 297.537 394.094 c 0
 281.803 362.624 269.644 335.445 261.775 311.843 c 0
 253.193 288.239 248.901 270.358 248.901 256.055 c 2
 248.901 93.6953 l 1
 386.941 477.776 l 2
 406.969 534.995 440.584 563.605 486.359 563.605 c 0
 509.963 563.605 529.988 555.021 546.439 537.857 c 0
 562.889 519.975 571.473 499.233 571.473 476.346 c 2
 571.473 0 l 1
110.146 436.294 m 0
 110.146 457.035 106.57 471.339 99.418 480.638 c 0
 92.9805 489.22 83.6826 493.512 72.9541 493.512 c 0
 65.0859 493.512 57.2188 488.505 49.3516 477.776 c 0
 40.7686 467.049 36.4766 453.458 36.4766 436.294 c 0
 36.4766 414.121 40.0527 398.386 47.2051 389.088 c 0
 53.6426 379.789 62.2256 374.782 72.9541 374.782 c 0
 82.9668 374.782 91.5498 380.505 98.7021 392.663 c 0
 105.854 404.107 110.146 419.128 110.146 436.294 c 0
EndSplineSet
Fore
SplineSet
322 476 m 0xef60
 322 420 249 318 249 256 c 2
 249 94 l 1
 387 478 l 2
 407 535 441 564 486 564 c 0
 533 564 571 523 571 476 c 2
 571 0 l 1
 495 0 l 1
 495 458 l 2
 495 486 479 498 461 498 c 0
 442 498 425 495 415 467 c 2
 252 0 l 1
 173 0 l 1
 173 255 l 2xd6e0
 173 355 271 437 271 478 c 0
 271 514 258 533 230 533 c 0
 202 533 185 497 185 469 c 1
 164 469 l 1
 164 513 149 535 119 535 c 0
 103 535 91 530 82 521 c 1
 119 521 141 489 141 437 c 0
 141 379 113 346 73 346 c 0
 38 346 7 379 7 437 c 0
 7 501 56 564 117 564 c 0
 142 564 163 551 176 524 c 1
 183 546 202 560 234 564 c 0
 293 564 322 535 322 476 c 0xef60
110 437 m 0
 110 478 95 494 73 494 c 0
 57 494 37 470 37 437 c 0
 37 391 51 375 73 375 c 0
 92 375 110 401 110 437 c 0
EndSplineSet
EndChar

StartChar: uni0E12
Encoding: 178 3602 145
Width: 780
Flags: W
HStem: -7 52<335.081 419.287> 201 39<355.256 395 472 518.219> 220 30<196.433 233.07> 366 32<195.222 257.715> 451 21G<234 262> 519 45<124.583 219.17 277.118 375.985>
VStem: 29 59<282.611 474.046> 104 91<0 91.9911> 158 31<254.942 362.022> 267 45<257.024 359.492> 293 34<50.6449 174.053> 395 77<46.8468 201 243 499.601> 605 76<0 99.992 182 554>
LayerCount: 2
Back
SplineSet
680.903 0 m 1
 600.797 0 l 1
 600.797 56.5039 589.354 101.563 566.466 134.464 c 0
 542.862 168.08 511.393 190.253 469.909 200.98 c 1
 469.909 77.9609 l 2
 469.909 20.7422 445.591 -7.15234 396.955 -7.15234 c 0
 327.577 -7.15234 293.246 34.3311 293.246 117.299 c 0
 293.246 180.954 326.863 221.723 395.525 240.318 c 1
 395.525 434.862 l 2
 395.525 463.472 389.088 484.213 376.213 497.804 c 0
 364.054 511.393 347.604 518.545 328.292 518.545 c 0
 288.239 518.545 265.352 496.372 258.915 451.312 c 1
 237.457 451.312 l 1
 231.735 496.372 208.134 518.545 168.795 518.545 c 0
 140.186 518.545 118.729 500.664 103.709 464.188 c 0
 92.9805 434.862 87.9736 404.822 87.9736 373.353 c 0
 87.9736 354.041 91.5498 334.014 97.9873 312.558 c 0
 105.14 291.816 113.723 269.644 124.451 246.041 c 2
 175.947 139.471 l 1
 234.597 219.576 l 1
 211.709 219.576 193.828 229.59 179.524 248.187 c 0
 165.219 267.497 158.066 287.524 158.066 308.982 c 0
 158.066 333.299 165.219 354.757 178.809 371.922 c 0
 192.398 389.803 210.279 398.386 233.167 398.386 c 0
 261.062 398.386 281.803 389.088 293.962 369.775 c 0
 306.12 350.465 311.843 329.007 311.843 304.69 c 0
 311.843 288.955 306.12 268.929 294.677 243.896 c 0
 282.518 218.861 262.49 182.385 234.597 133.033 c 0
 208.134 86.543 194.543 42.1992 194.543 0 c 1
 103.709 0 l 1
 103.709 22.1719 99.418 52.9277 90.835 90.835 c 0
 82.252 128.742 69.3779 175.947 52.9277 231.735 c 0
 37.1924 283.948 29.3242 329.007 29.3242 366.2 c 0
 29.3242 414.121 38.623 457.035 57.2188 494.942 c 0
 80.8213 540.718 114.438 563.605 158.066 563.605 c 0
 194.543 563.605 224.583 545.725 248.901 509.963 c 1
 267.497 545.725 299.684 563.605 345.458 563.605 c 0
 385.512 563.605 416.981 552.161 438.438 528.559 c 0
 460.61 505.671 471.339 473.485 471.339 433.432 c 2
 471.339 243.181 l 1
 499.233 238.174 524.267 230.306 547.154 219.576 c 0
 570.042 208.849 589.354 195.975 605.088 181.669 c 1
 605.088 553.592 l 1
 680.903 553.592 l 1
 680.903 0 l 1
266.782 308.982 m 0
 266.782 322.571 263.207 335.445 256.055 347.604 c 0
 249.616 359.762 239.604 366.2 226.729 366.2 c 0
 216.001 366.2 207.419 361.908 200.266 352.611 c 0
 192.398 343.312 188.821 328.292 188.821 308.982 c 0
 188.821 290.385 192.398 276.081 200.266 266.067 c 0
 207.419 255.338 216.001 250.331 226.729 250.331 c 0
 237.457 250.331 246.756 255.338 254.623 266.067 c 0
 262.49 276.081 266.782 290.385 266.782 308.982 c 0
395.525 80.8213 m 2
 395.525 200.98 l 1
 374.067 194.543 356.901 184.531 344.743 170.226 c 0
 332.584 155.206 326.863 135.895 326.863 111.576 c 0
 326.863 91.5498 329.724 75.8145 336.16 63.6562 c 0
 342.598 51.4971 352.611 45.0596 366.2 45.0596 c 0
 385.512 45.0596 395.525 57.2188 395.525 80.8213 c 2
EndSplineSet
Fore
SplineSet
29 366 m 0xbf58
 29 468.873 72.697 564 158 564 c 0
 195 564 224 546 249 510 c 1
 268 546 300 564 346 564 c 0
 426 564 472 514 472 434 c 2
 472 243 l 1
 526 233 574 211 605 182 c 1
 605 554 l 5
 681 554 l 1
 681 0 l 1
 601 0 l 1
 601 113 552 179 470 201 c 1
 470 78 l 2
 470 21 445 -7 397 -7 c 0
 328 -7 293 34 293 117 c 0
 293 180 327 221 395 240 c 1xdeb8
 395 435 l 2
 395 492 368 519 328 519 c 0
 289 519 265 497 259 451 c 1
 237 451 l 1
 231 497 208 519 168 519 c 0
 104 519 88 418 88 374 c 0
 88 334 103 293 125 246 c 2
 176 139 l 1
 234 220 l 1
 189 220 158 267 158 309 c 0xbeb8
 158 357 187 398 233 398 c 0
 290 398 312 353 312 305 c 0
 312 227.568 195 120.36 195 0 c 1
 104 0 l 1
 104 103.585 29 261.281 29 366 c 0xbf58
267 309 m 0xbed8
 267 337 252 366 227 366 c 0
 205 366 189 349 189 309 c 0
 189 272 205 250 227 250 c 0
 249 250 267 272 267 309 c 0xbed8
395 201 m 1xde38
 353 189 327 160 327 111 c 0
 327 72 338 45 366 45 c 0
 385 45 395 57 395 81 c 2
 395 201 l 1xde38
EndSplineSet
EndChar

StartChar: uni0E13
Encoding: 179 3603 146
Width: 852
Flags: W
HStem: -9 31<166.486 235.578> -7 52<657.418 741.084> 138 32<171.294 234.602> 201 42<559.705 608 684 721.815> 429 24<97 153.483> 516 48<161.691 335.446>
VStem: 78 76<33.6624 128.887 151 357.152> 245 26<29.6071 129.511> 403 76<0 112.094 167 449.12> 608 76<46.8468 201 243 554> 753 34<54.0873 171.141>
AnchorPoint: "AboveBase" 699 615 basechar 0
LayerCount: 2
Back
SplineSet
786.757 117.299 m 0
 786.757 75.0996 776.744 43.6289 757.434 23.6025 c 0
 738.121 2.86133 713.088 -7.15234 682.333 -7.15234 c 0
 656.585 -7.15234 637.274 0 625.115 13.5898 c 0
 613.671 27.8945 607.949 49.3516 607.949 77.9609 c 2
 607.949 200.98 l 1
 563.605 190.253 530.704 163.788 508.531 123.021 c 0
 490.65 87.9736 482.068 47.2051 482.068 0 c 1
 402.677 0 l 1
 402.677 376.213 l 2
 402.677 417.696 389.088 450.598 361.193 477.062 c 0
 333.299 502.811 298.969 515.685 257.484 515.685 c 0
 188.821 515.685 134.464 494.942 96.5566 452.743 c 1
 147.338 452.743 188.106 431.287 218.146 389.803 c 1
 198.835 382.649 183.1 372.638 171.657 358.333 c 0
 159.498 344.027 153.774 325.432 153.774 303.259 c 2
 153.774 150.914 l 1
 158.066 158.066 163.788 162.358 172.372 165.219 c 0
 180.239 168.795 190.253 170.226 200.98 170.226 c 0
 222.438 170.226 239.604 160.213 251.763 141.616 c 0
 264.637 122.305 271.074 102.278 271.074 80.8213 c 0
 271.074 20.7422 240.318 -8.58301 178.809 -8.58301 c 0
 144.478 -8.58301 119.444 0 102.278 17.8809 c 0
 85.8281 35.0469 77.9609 59.3643 77.9609 90.835 c 2
 77.9609 282.518 l 2
 77.9609 343.312 107.285 382.649 165.219 399.815 c 1
 140.186 419.128 99.418 429.141 43.6289 429.141 c 1
 55.7881 467.049 84.3975 499.949 130.173 527.127 c 0
 173.087 551.446 216.001 563.605 258.915 563.605 c 0
 405.537 563.605 479.206 501.379 479.206 376.213 c 2
 479.206 166.65 l 1
 493.512 186.676 512.107 202.412 535.711 215.286 c 0
 558.599 228.16 582.201 237.457 607.949 243.181 c 1
 607.949 553.592 l 1
 683.765 553.592 l 1
 683.765 240.318 l 1
 712.373 231.735 736.691 216.716 756.719 195.975 c 0
 776.744 175.947 786.757 149.484 786.757 117.299 c 0
753.142 111.576 m 0
 753.142 136.609 745.274 156.637 730.969 171.657 c 0
 715.95 185.961 700.931 195.975 683.765 200.98 c 1
 683.765 75.8145 l 2
 683.765 65.0859 686.625 57.9336 691.632 52.9277 c 0
 695.924 47.9209 702.359 45.0596 708.798 45.0596 c 0
 718.812 45.0596 728.824 50.7812 738.121 61.5098 c 0
 748.135 72.2383 753.142 88.6895 753.142 111.576 c 0
244.61 80.8213 m 0
 244.61 92.9805 241.034 105.854 233.167 118.729 c 0
 225.3 131.604 214.569 138.04 200.98 138.04 c 0
 190.253 138.04 180.239 133.033 170.94 123.735 c 0
 161.644 114.438 156.637 100.133 156.637 80.8213 c 0
 156.637 63.6562 160.928 50.0664 170.226 38.623 c 0
 178.809 27.8945 188.821 22.1719 200.98 22.1719 c 0
 211.709 22.1719 221.723 27.1787 231.021 36.4766 c 0
 240.318 46.4902 244.61 60.7949 244.61 80.8213 c 0
EndSplineSet
Fore
SplineSet
684 554 m 1xbfe0
 684 240 l 1
 741 223 787 182 787 117 c 0
 787 34 743 -7 683 -7 c 0x7fe0
 630 -7 608 21 608 78 c 2
 608 201 l 1
 526 182 482 105 482 0 c 1
 403 0 l 1
 403 376 l 2
 403 458 340 516 258 516 c 0
 189 516 135 495 97 453 c 1
 148 453 187 432 218 390 c 1
 179 376 154 349 154 303 c 2
 154 151 l 1
 161 164 179 170 201 170 c 0
 243 170 271 123 271 81 c 0
 271 21 240 -9 179 -9 c 0
 110 -9 78 28 78 91 c 2
 78 283 l 2
 78 343 107 382 166 400 c 1
 141 419 100 429 44 429 c 1
 65 499 163 564 259 564 c 0
 406 564 479 501 479 376 c 2
 479 167 l 1
 508 207 557 231 608 243 c 1
 608 554 l 1
 684 554 l 1xbfe0
684 201 m 1
 684 76 l 2
 684 54 696 45 709 45 c 0
 728 45 753 66 753 111 c 0
 753 163 718 190 684 201 c 1
245 81 m 0
 245 105 229 138 201 138 c 0
 179 138 157 120 157 81 c 0
 157 47 177 22 201 22 c 0xbfe0
 223 22 245 41 245 81 c 0
EndSplineSet
EndChar

StartChar: uni0E14
Encoding: 180 3604 147
Width: 566
Flags: W
HStem: 0 21G<117 193 391 467> 240 30<194.681 228.274> 384 35<193.957 255.122> 535 29<157.605 322.003>
VStem: 29 60<306.67 455.099> 117 76<0 92.5769> 155 31<276.39 379.104> 391 76<0 467.683>
LayerCount: 2
Back
SplineSet
467.049 0 m 1
 391.233 0 l 1
 391.233 386.941 l 2
 391.233 429.855 377.643 464.902 349.75 492.797 c 0
 322.571 520.691 287.524 534.995 244.61 534.995 c 0
 194.543 534.995 156.637 519.975 129.457 491.365 c 0
 102.994 462.757 89.4043 423.418 89.4043 373.353 c 0
 89.4043 356.901 91.5498 337.591 96.5566 316.133 c 0
 101.563 294.677 110.146 271.074 123.021 244.61 c 2
 173.087 138.04 l 1
 228.16 240.318 l 1
 205.987 240.318 188.106 249.616 175.232 268.929 c 0
 161.644 287.524 155.206 307.551 155.206 328.292 c 0
 155.206 353.326 162.358 374.782 176.662 392.663 c 0
 190.968 409.829 210.279 419.128 234.597 419.128 c 0
 250.331 419.128 263.207 415.551 273.219 407.684 c 0
 283.232 400.532 291.816 391.233 298.252 380.505 c 0
 304.69 369.775 308.266 358.333 309.697 345.458 c 0
 311.126 333.299 311.126 321.14 308.982 310.412 c 0
 306.836 301.829 301.113 283.948 291.1 256.77 c 0
 280.371 230.306 261.062 190.253 233.167 135.895 c 0
 219.576 110.146 209.563 85.1133 203.127 62.9404 c 0
 196.688 40.7686 193.113 19.3115 193.113 0 c 1
 117.299 0 l 1
 117.299 21.457 113.007 47.2051 105.14 77.9609 c 0
 97.9873 108 87.2588 143.047 72.9541 183.1 c 0
 59.3643 223.868 48.6357 258.2 40.7686 286.093 c 0
 32.9004 313.987 29.3242 336.16 29.3242 353.326 c 0
 29.3242 418.413 49.3516 469.909 88.6895 507.816 c 0
 128.027 545.008 180.954 563.605 247.471 563.605 c 0
 305.405 563.605 354.757 550.015 396.955 521.406 c 0
 444.161 489.22 467.049 444.161 467.049 386.941 c 2
 467.049 0 l 1
262.49 328.292 m 0
 262.49 346.888 258.2 360.479 250.331 369.775 c 0
 242.464 379.074 233.167 384.081 222.438 384.081 c 0
 213.854 384.081 205.272 379.074 197.405 369.775 c 0
 190.253 360.479 185.961 346.888 185.961 328.292 c 0
 185.961 312.558 189.538 298.969 196.688 286.81 c 0
 204.557 275.365 213.854 269.644 225.3 269.644 c 0
 233.167 269.644 241.749 273.936 249.616 281.803 c 0
 258.2 290.385 262.49 305.405 262.49 328.292 c 0
EndSplineSet
Fore
SplineSet
117 0 m 1xfd
 117 102 29 271 29 353 c 0
 29 483 114 564 248 564 c 0
 363 564 467 503 467 387 c 2
 467 0 l 1
 391 0 l 1
 391 387 l 2
 391 473 331 535 245 535 c 0
 145 535 89 473 89 374 c 0
 89 340 98 297 123 245 c 2
 173 138 l 1
 229 240 l 1
 183 240 155 287 155 328 c 0xfb
 155 379 186 419 234 419 c 0
 296 419 316 353 309 311 c 0
 285 204 193 106 193 0 c 1
 117 0 l 1xfd
262 328 m 0
 262 365 245 384 223 384 c 0
 205 384 186 365 186 328 c 0
 186 297 202 270 226 270 c 0
 242 270 262 283 262 328 c 0
EndSplineSet
EndChar

StartChar: uni0E15
Encoding: 181 3605 148
Width: 578
Flags: W
HStem: 0 21G<122 198 403 479> 240 30<197.518 230.511> 384 35<196.957 257.691> 453 21G<246 274> 519 45<124.634 230 288.315 381.912>
VStem: 29 60<287.257 476.539> 122 76<0 100.406> 158 31<276.39 379.104> 265 47<285.7 379.45> 403 76<0 496.816>
LayerCount: 2
Back
SplineSet
479.206 0 m 1
 479.206 419.128 l 2
 479.206 462.042 468.479 497.087 448.451 523.552 c 0
 427.71 550.731 396.955 563.605 356.187 563.605 c 0
 309.697 563.605 278.226 545.725 261.062 509.963 c 1
 236.027 545.725 203.842 563.605 163.788 563.605 c 0
 141.616 563.605 121.59 558.599 103.709 547.869 c 0
 86.543 537.141 71.5234 520.691 60.0801 497.804 c 0
 50.0664 478.491 42.9141 458.465 37.1924 437.724 c 0
 32.1855 417.696 29.3242 394.809 29.3242 370.492 c 0
 29.3242 351.18 32.9004 329.724 40.0527 306.12 c 0
 47.9209 282.518 55.0732 257.484 62.9404 230.306 c 0
 79.3906 174.518 93.6953 128.027 104.424 90.1191 c 0
 115.868 52.2119 121.59 22.1719 121.59 0 c 1
 197.405 0 l 1
 197.405 42.1992 210.279 87.2588 236.027 135.895 c 0
 263.922 190.253 283.948 231.021 295.392 260.345 c 0
 306.12 288.955 311.843 307.551 311.843 316.133 c 0
 311.843 328.292 311.126 339.737 308.266 352.611 c 0
 306.12 364.769 301.829 375.498 296.822 385.512 c 0
 291.1 394.809 283.948 403.393 274.65 409.114 c 0
 265.352 415.551 253.193 419.128 237.457 419.128 c 0
 213.14 419.128 193.828 409.829 179.524 392.663 c 0
 165.219 374.782 158.066 353.326 158.066 328.292 c 0
 158.066 307.551 164.504 287.524 178.094 268.929 c 0
 190.968 249.616 208.849 240.318 231.735 240.318 c 1
 175.947 138.04 l 1
 171.657 151.63 165.219 167.365 155.206 185.961 c 0
 145.192 204.557 134.464 228.16 123.021 256.055 c 0
 113.007 278.941 105.14 299.684 98.7021 318.994 c 0
 92.2656 339.021 89.4043 356.901 89.4043 373.353 c 0
 89.4043 410.544 94.4111 441.301 105.14 465.617 c 0
 120.159 500.664 142.332 518.545 173.087 518.545 c 0
 217.432 518.545 243.181 496.372 248.901 452.743 c 1
 269.644 452.743 l 1
 278.226 496.372 301.113 518.545 336.875 518.545 c 0
 356.187 518.545 372.638 510.678 384.796 494.227 c 0
 396.955 478.491 402.677 453.458 402.677 420.558 c 2
 402.677 0 l 1
 479.206 0 l 1
265.352 328.292 m 0
 265.352 305.405 261.062 290.385 252.478 281.803 c 0
 244.61 273.936 236.027 269.644 228.16 269.644 c 0
 216.716 269.644 207.419 275.365 200.266 286.81 c 0
 192.398 298.969 188.821 312.558 188.821 328.292 c 0
 188.821 346.888 193.113 360.479 200.98 369.775 c 0
 208.134 379.074 216.716 384.081 225.3 384.081 c 0
 236.027 384.081 245.324 379.074 253.193 369.775 c 0
 261.062 360.479 265.352 346.888 265.352 328.292 c 0
EndSplineSet
Fore
SplineSet
122 0 m 1xfec0
 122 82 29 299 29 371 c 0
 29 419 41 458 60 498 c 0
 83 543 119 564 164 564 c 0
 204 564 236 546 261 510 c 1
 278 546 311 564 356 564 c 0
 438 564 479 505 479 419 c 2
 479 0 l 1
 403 0 l 1
 403 420 l 2
 403 486 376 519 337 519 c 0
 300 519 278 497 270 453 c 1
 249 453 l 1
 243 497 218 519 173 519 c 0
 112 519 89 445 89 374 c 0
 89 304 166 172 176 138 c 1
 231 240 l 1
 186 240 158 287 158 328 c 0xfdc0
 158 379 189 419 237 419 c 0
 297 419 312 363 312 316 c 0
 312 299 293 243 236 136 c 0
 211 88 198 42 198 0 c 1
 122 0 l 1xfec0
265 328 m 0
 265 365 248 384 226 384 c 0
 208 384 189 365 189 328 c 0
 189 297 205 270 229 270 c 0
 245 270 265 283 265 328 c 0
EndSplineSet
EndChar

StartChar: uni0E16
Encoding: 182 3606 149
Width: 584
Flags: W
HStem: -9 31<167.294 236.629> 138 32<173.411 235.352> 429 25<97 146.636> 516 48<161.062 339.104>
VStem: 79 76<31.7031 127.413 151 359.125> 246 26<29.9404 129.494> 407 78<0 449.12>
LayerCount: 2
Back
SplineSet
484.93 0 m 1
 484.93 376.213 l 2
 484.93 439.869 462.042 487.79 416.267 519.975 c 0
 376.928 549.3 324.717 563.605 258.915 563.605 c 0
 215.286 563.605 172.372 551.446 130.173 527.127 c 0
 107.285 513.538 87.2588 498.519 70.0928 482.783 c 0
 53.6426 466.332 42.1992 448.451 36.4766 429.141 c 1
 89.4043 429.141 130.888 419.128 160.928 399.815 c 1
 106.57 384.081 79.3906 345.458 79.3906 282.518 c 2
 79.3906 90.835 l 2
 79.3906 59.3643 87.2588 35.0469 103.709 17.8809 c 0
 120.875 0 145.908 -8.58301 180.239 -8.58301 c 0
 241.749 -8.58301 272.504 20.7422 272.504 80.8213 c 0
 272.504 103.709 266.067 124.451 253.193 143.047 c 0
 241.034 160.928 223.868 170.226 203.842 170.226 c 0
 193.113 170.226 183.1 168.08 174.518 164.504 c 0
 165.219 161.644 159.498 156.637 155.206 150.914 c 1
 155.206 303.259 l 2
 155.206 325.432 160.928 344.027 173.087 359.048 c 0
 184.531 373.353 199.55 384.081 218.146 389.803 c 1
 186.676 432.717 146.624 454.175 96.5566 454.175 c 1
 134.464 494.942 188.821 515.685 257.484 515.685 c 0
 299.684 515.685 335.445 502.811 364.054 477.776 c 0
 392.663 452.028 406.969 418.413 406.969 376.213 c 2
 406.969 0 l 1
 484.93 0 l 1
246.041 80.8213 m 0
 246.041 60.7949 241.034 46.4902 231.735 36.4766 c 0
 221.723 27.1787 211.709 22.1719 200.98 22.1719 c 0
 188.821 22.1719 178.809 27.8945 170.94 38.623 c 0
 162.358 50.0664 158.066 63.6562 158.066 80.8213 c 0
 158.066 100.133 163.073 114.438 173.087 123.735 c 0
 182.385 133.033 193.113 138.04 203.842 138.04 c 0
 216.001 138.04 226.729 131.604 234.597 118.729 c 0
 242.464 105.854 246.041 92.9805 246.041 80.8213 c 0
EndSplineSet
Fore
SplineSet
485 0 m 1
 407 0 l 1
 407 376 l 2
 407 460 341 516 258 516 c 0
 189 516 135 495 97 454 c 1
 146 454 187 432 218 390 c 1
 182 378 155 349 155 303 c 2
 155 151 l 1
 163 163 182 170 204 170 c 0
 245 170 272 127 272 81 c 0
 272 21 242 -9 180 -9 c 0
 111 -9 79 28 79 91 c 2
 79 283 l 2
 79 346 107 384 161 400 c 1
 130 419 89 429 37 429 c 1
 57 498 165 564 259 564 c 0
 391 564 485 501 485 376 c 2
 485 0 l 1
246 81 m 0
 246 105 229 138 204 138 c 0
 182 138 158 120 158 81 c 0
 158 47 177 22 201 22 c 0
 223 22 246 41 246 81 c 0
EndSplineSet
EndChar

StartChar: uni0E17
Encoding: 183 3607 150
Width: 626
Flags: W
HStem: 0 21G<136 224.158 451 527> 382 28<60.1163 120.232> 502 62<377.239 446.087> 529 35<61.8558 126.393>
VStem: 22 29<431.614 519.827> 136 76<123 400 417.404 521.275> 451 76<0 497.532>
LayerCount: 2
Back
SplineSet
527.127 0 m 1
 451.312 0 l 1
 451.312 457.035 l 2
 451.312 471.339 447.021 482.783 439.154 490.65 c 0
 431.287 498.519 421.988 502.094 409.829 502.094 c 0
 396.24 502.094 385.512 497.087 376.213 486.359 c 0
 367.631 475.631 357.618 453.458 346.888 419.128 c 2
 218.146 0 l 1
 135.895 0 l 1
 135.895 399.815 l 1
 125.166 388.373 110.861 382.649 92.2656 382.649 c 0
 72.9541 382.649 56.5039 390.519 42.1992 406.254 c 0
 28.6094 422.703 22.1719 442.729 22.1719 467.049 c 0
 22.1719 494.942 30.04 517.83 45.0596 536.426 c 0
 60.7949 555.021 85.1133 563.605 117.299 563.605 c 0
 151.63 563.605 175.947 555.021 190.253 536.426 c 0
 205.272 517.83 212.426 492.797 212.426 461.325 c 2
 212.426 123.021 l 1
 212.426 123.021 214.569 129.457 218.861 142.332 c 0
 223.153 154.491 228.875 171.657 236.027 191.683 c 0
 242.464 212.426 250.331 235.312 257.484 261.062 c 0
 265.352 286.093 273.936 311.126 281.803 336.16 c 0
 290.385 361.193 298.252 384.796 306.12 406.969 c 0
 313.987 429.855 320.425 448.451 325.432 462.757 c 0
 336.875 497.087 353.326 522.121 373.353 539.287 c 0
 394.094 555.738 415.551 563.605 437.724 563.605 c 0
 466.332 563.605 488.505 555.738 504.24 538.572 c 0
 519.26 521.406 527.127 498.519 527.127 469.909 c 2
 527.127 0 l 1
134.464 471.339 m 0
 134.464 488.505 130.888 502.094 123.021 512.823 c 0
 115.152 523.552 105.14 528.559 93.6953 528.559 c 0
 85.8281 528.559 77.2451 524.267 66.5166 514.253 c 0
 56.5039 504.24 51.4971 489.936 51.4971 469.909 c 0
 51.4971 458.465 54.3574 445.591 60.0801 431.287 c 0
 65.8018 416.981 76.5303 409.829 92.2656 409.829 c 0
 103.709 409.829 113.723 415.551 122.305 425.564 c 0
 130.888 435.577 134.464 451.312 134.464 471.339 c 0
EndSplineSet
Fore
SplineSet
527 0 m 1xee
 451 0 l 1
 451 457 l 2
 451 486 434 502 410 502 c 0xee
 382 502 369 488 347 419 c 2
 218 0 l 1
 136 0 l 1
 136 400 l 1
 126 388 111 382 92 382 c 0
 53 382 22 419 22 467 c 0
 22 521 53 564 117 564 c 0xde
 186 564 212 524 212 461 c 2
 212 123 l 1
 214 123 293 376 325 463 c 0
 349 532 393 564 438 564 c 0
 495 564 527 527 527 470 c 2
 527 0 l 1xee
135 472 m 0
 135 505 117 529 94 529 c 0xde
 78 529 51 510 51 470 c 0
 51 447 62 410 92 410 c 0
 116 410 135 431 135 472 c 0
EndSplineSet
EndChar

StartChar: uni0E18
Encoding: 184 3608 151
Width: 527
Flags: MW
HStem: 0 28<56 94 170 302.49> 398 41<170 170> 466 47<365 415.492> 499 65<127.2 263.691>
VStem: 94 76<28 398> 311 76<37.842 336.41>
LayerCount: 2
Back
SplineSet
386.941 286.81 m 2
 386.941 313.272 379.074 336.875 364.769 356.901 c 0
 349.75 376.928 329.724 393.379 304.69 406.969 c 0
 283.948 417.696 260.345 426.28 233.167 431.287 c 0
 205.272 437.009 177.379 439.154 149.484 439.154 c 2
 124.451 439.154 l 1
 92.2656 436.294 l 1
 105.14 478.491 140.186 499.233 197.405 499.233 c 0
 214.569 499.233 240.318 494.227 275.365 483.498 c 0
 310.412 471.339 336.16 465.617 351.895 465.617 c 0
 406.969 465.617 444.161 496.372 461.325 556.453 c 1
 430.57 556.453 l 1
 417.696 527.127 396.24 512.823 364.769 512.823 c 1
 282.518 546.439 l 2
 256.055 557.882 228.875 563.605 200.98 563.605 c 0
 180.239 563.605 160.928 560.028 143.762 551.446 c 0
 125.881 542.862 110.146 532.134 95.8418 517.83 c 0
 81.5371 503.525 70.0928 487.075 61.5098 468.479 c 0
 52.9277 449.883 47.2051 429.855 43.6289 408.399 c 1
 52.9277 408.399 60.7949 408.399 68.6621 408.399 c 0
 77.9609 408.399 85.8281 408.399 93.6953 406.969 c 1
 93.6953 27.8945 l 1
 55.7881 27.8945 l 1
 55.7881 0 l 1
 322.571 0 l 2
 365.485 0 386.941 27.1787 386.941 80.8213 c 2
 386.941 286.81 l 2
310.412 80.8213 m 2
 310.412 62.9404 305.405 50.0664 295.392 40.7686 c 0
 284.663 32.1855 271.789 27.8945 256.055 27.8945 c 2
 170.226 27.8945 l 1
 170.226 398.386 l 1
 195.975 392.663 l 2
 226.729 382.649 253.193 369.061 276.081 351.895 c 0
 298.969 334.014 310.412 311.843 310.412 285.378 c 2
 310.412 80.8213 l 2
EndSplineSet
Fore
SplineSet
56 0 m 1
 56 28 l 1
 94 28 l 1
 94 407 l 1
 86 409 78 409 69 409 c 2
 44 409 l 1
 56 494 119 564 201 564 c 0
 229 564 256 558 283 546 c 2
 365 513 l 1
 395 513 417 527 431 557 c 1
 461 557 l 1
 444 497 407 466 352 466 c 0
 325 466 226 499 198 499 c 0
 141 499 105 479 92 437 c 1
 125 439 l 1
 149 439 l 2
 270 439 387 393 387 287 c 2
 387 81 l 2
 387 26 365 0 322 0 c 2
 56 0 l 1
170 398 m 1
 170 28 l 1
 256 28 l 2
 287 28 311 45 311 81 c 2
 311 286 l 2
 311 338 256 374 196 393 c 2
 170 398 l 1
EndSplineSet
EndChar

StartChar: uni0E19
Encoding: 185 3609 152
Width: 669
Flags: W
HStem: -7 52<468.386 560.392> 199 43<361.051 417 494 535.5> 382 28<68.3751 127.608> 529 35<69.3279 132.465>
VStem: 29 30<431.614 520.175> 144 76<120 400 418.09 521.275> 417 77<46.7911 199 242 554> 570 33<53.4449 166.077>
AnchorPoint: "AboveBase" 509 615 basechar 0
LayerCount: 2
Back
SplineSet
603.657 117.299 m 0
 603.657 148.768 592.214 175.232 570.757 196.688 c 0
 548.585 218.861 522.837 233.167 493.512 238.889 c 1
 493.512 552.161 l 1
 417.696 552.161 l 1
 417.696 241.749 l 1
 377.643 236.027 339.021 223.153 301.829 203.842 c 0
 264.637 183.814 237.457 155.921 219.576 120.159 c 1
 219.576 461.325 l 2
 219.576 492.797 212.426 517.83 197.405 536.426 c 0
 183.1 555.021 158.781 563.605 124.451 563.605 c 0
 92.2656 563.605 68.6621 555.021 52.9277 536.426 c 0
 37.1924 517.83 29.3242 494.942 29.3242 467.049 c 0
 29.3242 442.729 36.4766 422.703 50.0664 406.254 c 0
 63.6562 390.519 80.1064 382.649 99.418 382.649 c 0
 118.014 382.649 133.033 388.373 143.762 399.815 c 1
 143.762 0 l 1
 219.576 0 l 1
 238.174 58.6494 266.067 104.424 303.259 138.04 c 0
 340.452 170.94 378.359 191.683 417.696 199.55 c 1
 417.696 77.9609 l 2
 417.696 68.6621 419.128 59.3643 421.988 50.0664 c 0
 424.85 40.0527 429.141 30.7549 435.577 22.8877 c 0
 442.015 14.3047 449.883 7.15234 459.181 1.43066 c 0
 468.479 -4.29102 479.206 -7.15234 492.082 -7.15234 c 0
 527.127 -7.15234 555.021 2.86133 574.333 23.6025 c 0
 593.644 43.6289 603.657 75.0996 603.657 117.299 c 0
570.042 110.146 m 0
 570.042 87.2588 565.75 70.8086 556.452 60.7949 c 0
 547.869 50.7812 537.141 45.0596 524.267 45.0596 c 0
 515.685 45.0596 508.531 48.6357 502.094 54.3574 c 0
 496.372 60.0801 493.512 68.6621 493.512 80.8213 c 2
 493.512 199.55 l 1
 514.968 193.113 532.851 183.1 547.869 167.365 c 0
 562.174 152.345 570.042 133.033 570.042 110.146 c 0
142.332 471.339 m 0
 142.332 451.312 138.04 435.577 129.457 425.564 c 0
 121.59 415.551 111.576 409.829 99.418 409.829 c 0
 83.6826 409.829 72.9541 416.981 67.2324 431.287 c 0
 61.5098 445.591 58.6494 458.465 58.6494 469.909 c 0
 58.6494 489.936 63.6562 504.24 73.6689 514.253 c 0
 84.3975 524.267 92.9805 528.559 100.848 528.559 c 0
 113.007 528.559 122.305 523.552 130.173 512.823 c 0
 138.04 502.094 142.332 488.505 142.332 471.339 c 0
EndSplineSet
Fore
SplineSet
494 554 m 1
 494 239 l 1
 552 227 603 180 603 117 c 0
 603 34 562 -7 492 -7 c 0
 441 -7 417 44 417 78 c 2
 417 199 l 1
 340 183 256 117 220 0 c 1
 144 0 l 1
 144 400 l 1
 133 388 119 382 100 382 c 0
 60 382 29 419 29 467 c 0
 29 521 60 564 125 564 c 0
 193 564 220 524 220 461 c 2
 220 120 l 1
 255 192 337 230 417 242 c 1
 417 554 l 1
 494 554 l 1
494 199 m 1
 494 81 l 2
 494 57 507 45 524 45 c 0
 549 45 570 64 570 110 c 0
 570 157 536 187 494 199 c 1
142 472 m 0
 142 505 125 529 101 529 c 0
 85 529 59 510 59 470 c 0
 59 447 69 410 100 410 c 0
 123 410 142 431 142 472 c 0
EndSplineSet
EndChar

StartChar: uni0E1A
Encoding: 186 3610 153
Width: 604
Flags: MW
HStem: 0 28<83 136 212 420.831> 382 28<60.1163 120.232> 529 35<61.8558 126.393>
VStem: 22 29<431.614 519.827> 136 76<28 400 417.404 521.275> 429 76<36.5511 554>
LayerCount: 2
Back
SplineSet
505.671 80.8213 m 2
 505.671 552.161 l 1
 429.141 552.161 l 1
 429.141 80.8213 l 2
 429.141 62.9404 424.135 50.0664 414.121 40.7686 c 0
 403.393 32.1855 391.233 27.8945 376.213 27.8945 c 2
 212.426 27.8945 l 1
 212.426 461.325 l 2
 212.426 492.797 205.272 517.83 190.253 536.426 c 0
 175.947 555.021 151.63 563.605 117.299 563.605 c 0
 85.1133 563.605 60.7949 555.021 45.0596 536.426 c 0
 30.04 517.83 22.1719 494.942 22.1719 467.049 c 0
 22.1719 442.729 28.6094 422.703 42.1992 406.254 c 0
 56.5039 390.519 72.9541 382.649 92.2656 382.649 c 0
 110.861 382.649 125.166 388.373 135.895 399.815 c 1
 135.895 27.8945 l 1
 83.6826 27.8945 l 1
 83.6826 0 l 1
 440.584 0 l 2
 484.213 0 505.671 27.1787 505.671 80.8213 c 2
134.464 471.339 m 0
 134.464 451.312 130.888 435.577 122.305 425.564 c 0
 113.723 415.551 103.709 409.829 92.2656 409.829 c 0
 76.5303 409.829 65.8018 416.981 60.0801 431.287 c 0
 54.3574 445.591 51.4971 458.465 51.4971 469.909 c 0
 51.4971 489.936 56.5039 504.24 66.5166 514.253 c 0
 77.2451 524.267 85.8281 528.559 93.6953 528.559 c 0
 105.14 528.559 115.152 523.552 123.021 512.823 c 0
 130.888 502.094 134.464 488.505 134.464 471.339 c 0
EndSplineSet
Fore
SplineSet
505 554 m 1
 505 81 l 2
 505 26 483 0 441 0 c 2
 83 0 l 1
 83 28 l 1
 136 28 l 1
 136 400 l 1
 126 388 111 382 92 382 c 0
 53 382 22 419 22 467 c 0
 22 521 53 564 117 564 c 0
 186 564 212 524 212 461 c 2
 212 28 l 1
 376 28 l 2
 406 28 429 45 429 81 c 2
 429 554 l 1
 505 554 l 1
135 472 m 0
 135 505 117 529 94 529 c 0
 78 529 51 510 51 470 c 0
 51 447 62 410 92 410 c 0
 116 410 135 431 135 472 c 0
EndSplineSet
EndChar

StartChar: uni0E1B
Encoding: 187 3611 154
Width: 604
Flags: MW
HStem: 0 28<83 136 212 420.831> 382 28<60.1163 120.232> 529 35<61.8558 126.393>
VStem: 22 29<431.614 519.827> 136 76<28 400 417.404 521.275> 429 76<36.5511 794>
AnchorPoint: "AboveBase" 413 615 basechar 0
LayerCount: 2
Back
SplineSet
505.671 80.8213 m 2
 505.671 793.91 l 1
 429.141 793.91 l 1
 429.141 80.8213 l 2
 429.141 62.9404 424.135 50.0664 414.121 40.7686 c 0
 403.393 32.1855 391.233 27.8945 376.213 27.8945 c 2
 212.426 27.8945 l 1
 212.426 461.325 l 2
 212.426 492.797 205.272 517.83 190.253 536.426 c 0
 175.947 555.021 151.63 563.605 117.299 563.605 c 0
 85.1133 563.605 60.7949 555.021 45.0596 536.426 c 0
 30.04 517.83 22.1719 494.942 22.1719 467.049 c 0
 22.1719 442.729 28.6094 422.703 42.1992 406.254 c 0
 56.5039 390.519 72.9541 382.649 92.2656 382.649 c 0
 110.861 382.649 125.166 388.373 135.895 399.815 c 1
 135.895 27.8945 l 1
 83.6826 27.8945 l 1
 83.6826 0 l 1
 440.584 0 l 2
 484.213 0 505.671 27.1787 505.671 80.8213 c 2
134.464 471.339 m 0
 134.464 451.312 130.888 435.577 122.305 425.564 c 0
 113.723 415.551 103.709 409.829 92.2656 409.829 c 0
 76.5303 409.829 65.8018 416.981 60.0801 431.287 c 0
 54.3574 445.591 51.4971 458.465 51.4971 469.909 c 0
 51.4971 489.936 56.5039 504.24 66.5166 514.253 c 0
 77.2451 524.267 85.8281 528.559 93.6953 528.559 c 0
 105.14 528.559 115.152 523.552 123.021 512.823 c 0
 130.888 502.094 134.464 488.505 134.464 471.339 c 0
EndSplineSet
Fore
SplineSet
505 794 m 1
 505 81 l 2
 505 26 483 0 441 0 c 2
 83 0 l 1
 83 28 l 1
 136 28 l 1
 136 400 l 1
 126 388 111 382 92 382 c 0
 53 382 22 419 22 467 c 0
 22 521 53 564 117 564 c 0
 186 564 212 524 212 461 c 2
 212 28 l 1
 376 28 l 2
 406 28 429 45 429 81 c 2
 429 794 l 1
 505 794 l 1
135 472 m 0
 135 505 117 529 94 529 c 0
 78 529 51 510 51 470 c 0
 51 447 62 410 92 410 c 0
 116 410 135 431 135 472 c 0
EndSplineSet
EndChar

StartChar: uni0E1C
Encoding: 188 3612 155
Width: 594
Flags: MW
HStem: 250 77<267 267> 382 28<138.227 199.753> 529 35<131.492 198.644>
VStem: 44 76<70 400 418.09 521.101> 209 30<431.614 519.827> 419 76<78 554>
LayerCount: 2
Back
SplineSet
494.942 0 m 1
 494.942 552.161 l 1
 419.128 552.161 l 1
 419.128 77.9609 l 1
 266.782 326.863 l 1
 120.159 70.0928 l 1
 120.159 399.815 l 1
 125.881 393.379 133.033 388.373 141.616 386.227 c 0
 149.484 383.366 158.066 382.649 166.65 382.649 c 0
 186.676 382.649 203.127 390.519 217.432 406.254 c 0
 231.735 422.703 238.889 442.729 238.889 467.049 c 0
 238.889 494.942 231.021 517.83 215.286 536.426 c 0
 199.55 555.021 175.947 563.605 143.762 563.605 c 0
 109.431 563.605 84.3975 555.021 67.9473 536.426 c 0
 52.2119 517.83 43.6289 492.797 43.6289 461.325 c 2
 43.6289 0 l 1
 127.312 0 l 1
 266.782 250.331 l 1
 421.988 0 l 1
 494.942 0 l 1
121.59 471.339 m 0
 121.59 488.505 125.881 502.094 134.464 512.823 c 0
 143.762 523.552 153.774 528.559 165.219 528.559 c 0
 173.087 528.559 182.385 524.267 193.113 514.253 c 0
 203.842 504.24 209.563 489.936 209.563 469.909 c 0
 209.563 458.465 205.987 445.591 200.266 431.287 c 0
 193.828 416.981 182.385 409.829 166.65 409.829 c 0
 155.206 409.829 144.478 415.551 135.18 425.564 c 0
 125.881 435.577 121.59 451.312 121.59 471.339 c 0
EndSplineSet
Fore
SplineSet
495 554 m 1
 495 0 l 1
 422 0 l 1
 267 250 l 1
 127 0 l 1
 44 0 l 1
 44 461 l 2
 44 524 75 564 144 564 c 0
 208 564 239 521 239 467 c 0
 239 419 207 382 167 382 c 0
 149 382 132 387 120 400 c 1
 120 70 l 1
 267 327 l 1
 419 78 l 1
 419 554 l 1
 495 554 l 1
209 470 m 0
 209 510 182 529 166 529 c 0
 142 529 122 505 122 472 c 0
 122 431 144 410 167 410 c 0
 198 410 209 447 209 470 c 0
EndSplineSet
EndChar

StartChar: uni0E1D
Encoding: 189 3613 156
Width: 594
Flags: MW
HStem: 250 77<267 267> 382 28<138.227 199.753> 529 35<131.492 198.644>
VStem: 44 76<70 400 418.09 521.101> 209 30<431.614 519.827> 419 76<78 794>
AnchorPoint: "AboveBase" 404 615 basechar 0
LayerCount: 2
Back
SplineSet
494.942 0 m 1
 494.942 793.91 l 1
 419.128 793.91 l 1
 419.128 77.9609 l 1
 266.782 326.863 l 1
 120.159 70.0928 l 1
 120.159 399.815 l 1
 125.881 393.379 133.033 388.373 141.616 386.227 c 0
 149.484 383.366 158.066 382.649 166.65 382.649 c 0
 186.676 382.649 203.127 390.519 217.432 406.254 c 0
 231.735 422.703 238.889 442.729 238.889 467.049 c 0
 238.889 494.942 231.021 517.83 215.286 536.426 c 0
 199.55 555.021 175.947 563.605 143.762 563.605 c 0
 109.431 563.605 84.3975 555.021 67.9473 536.426 c 0
 52.2119 517.83 43.6289 492.797 43.6289 461.325 c 2
 43.6289 0 l 1
 127.312 0 l 1
 266.782 250.331 l 1
 421.988 0 l 1
 494.942 0 l 1
121.59 471.339 m 0
 121.59 488.505 125.881 502.094 134.464 512.823 c 0
 143.762 523.552 153.774 528.559 165.219 528.559 c 0
 173.087 528.559 182.385 524.267 193.113 514.253 c 0
 203.842 504.24 209.563 489.936 209.563 469.909 c 0
 209.563 458.465 205.987 445.591 200.266 431.287 c 0
 193.828 416.981 182.385 409.829 166.65 409.829 c 0
 155.206 409.829 144.478 415.551 135.18 425.564 c 0
 125.881 435.577 121.59 451.312 121.59 471.339 c 0
EndSplineSet
Fore
SplineSet
495 794 m 1
 495 0 l 1
 422 0 l 1
 267 250 l 1
 127 0 l 1
 44 0 l 1
 44 461 l 2
 44 524 75 564 144 564 c 0
 208 564 239 521 239 467 c 0
 239 419 207 382 167 382 c 0
 149 382 132 387 120 400 c 1
 120 70 l 1
 267 327 l 1
 419 78 l 1
 419 794 l 1
 495 794 l 1
122 472 m 0
 122 431 144 410 167 410 c 0
 198 410 209 447 209 470 c 0
 209 510 182 529 166 529 c 0
 142 529 122 505 122 472 c 0
EndSplineSet
EndChar

StartChar: uni0E1E
Encoding: 190 3614 157
Width: 653
Flags: W
HStem: 0 21G<136 228.899 460.245 554> 382 28<60.1163 120.232> 529 35<61.8558 126.393>
VStem: 22 29<431.614 519.827> 136 76<98 400 417.404 521.275> 478 76<98 554>
LayerCount: 2
Back
SplineSet
212.426 461.325 m 2
 212.426 492.797 205.272 517.83 190.253 536.426 c 0
 175.947 555.021 151.63 563.605 117.299 563.605 c 0
 85.1133 563.605 60.7949 555.021 45.0596 536.426 c 0
 30.04 517.83 22.1719 494.942 22.1719 467.049 c 0
 22.1719 442.729 28.6094 422.703 42.1992 406.254 c 0
 56.5039 390.519 72.9541 382.649 92.2656 382.649 c 0
 110.861 382.649 125.166 388.373 135.895 399.815 c 1
 135.895 0 l 1
 222.438 0 l 1
 345.458 417.696 l 1
 465.617 0 l 1
 553.592 0 l 1
 553.592 552.161 l 1
 477.776 552.161 l 1
 477.776 97.9873 l 1
 345.458 552.161 l 1
 212.426 97.9873 l 1
 212.426 461.325 l 2
134.464 471.339 m 0
 134.464 451.312 130.888 435.577 122.305 425.564 c 0
 113.723 415.551 103.709 409.829 92.2656 409.829 c 0
 76.5303 409.829 65.8018 416.981 60.0801 431.287 c 0
 54.3574 445.591 51.4971 458.465 51.4971 469.909 c 0
 51.4971 489.936 56.5039 504.24 66.5166 514.253 c 0
 77.2451 524.267 85.8281 528.559 93.6953 528.559 c 0
 105.14 528.559 115.152 523.552 123.021 512.823 c 0
 130.888 502.094 134.464 488.505 134.464 471.339 c 0
EndSplineSet
Fore
SplineSet
554 554 m 1
 554 0 l 1
 466 0 l 1
 346 417 l 1
 223 0 l 1
 136 0 l 1
 136 400 l 1
 126 388 111 382 92 382 c 0
 53 382 22 419 22 467 c 0
 22 521 53 564 117 564 c 0
 186 564 212 524 212 461 c 2
 212 98 l 1
 346 552 l 1
 478 98 l 1
 478 554 l 1
 554 554 l 1
135 472 m 0
 135 505 117 529 94 529 c 0
 78 529 51 510 51 470 c 0
 51 447 62 410 92 410 c 0
 116 410 135 431 135 472 c 0
EndSplineSet
EndChar

StartChar: uni0E1F
Encoding: 191 3615 158
Width: 653
Flags: W
HStem: 0 21G<136 228.899 460.245 554> 382 28<60.1163 120.232> 529 35<61.8558 126.393>
VStem: 22 29<431.614 519.827> 136 76<98 400 417.404 521.275> 478 76<98 794>
AnchorPoint: "AboveBase" 462 615 basechar 0
LayerCount: 2
Back
SplineSet
212.426 461.325 m 2
 212.426 492.797 205.272 517.83 190.253 536.426 c 0
 175.947 555.021 151.63 563.605 117.299 563.605 c 0
 85.1133 563.605 60.7949 555.021 45.0596 536.426 c 0
 30.04 517.83 22.1719 494.942 22.1719 467.049 c 0
 22.1719 442.729 28.6094 422.703 42.1992 406.254 c 0
 56.5039 390.519 72.9541 382.649 92.2656 382.649 c 0
 110.861 382.649 125.166 388.373 135.895 399.815 c 1
 135.895 0 l 1
 222.438 0 l 1
 345.458 417.696 l 1
 465.617 0 l 1
 553.592 0 l 1
 553.592 793.91 l 1
 477.776 793.91 l 1
 477.776 97.9873 l 1
 345.458 552.161 l 1
 212.426 97.9873 l 1
 212.426 461.325 l 2
134.464 471.339 m 0
 134.464 451.312 130.888 435.577 122.305 425.564 c 0
 113.723 415.551 103.709 409.829 92.2656 409.829 c 0
 76.5303 409.829 65.8018 416.981 60.0801 431.287 c 0
 54.3574 445.591 51.4971 458.465 51.4971 469.909 c 0
 51.4971 489.936 56.5039 504.24 66.5166 514.253 c 0
 77.2451 524.267 85.8281 528.559 93.6953 528.559 c 0
 105.14 528.559 115.152 523.552 123.021 512.823 c 0
 130.888 502.094 134.464 488.505 134.464 471.339 c 0
EndSplineSet
Fore
SplineSet
554 794 m 1
 554 0 l 1
 466 0 l 1
 346 417 l 1
 223 0 l 1
 136 0 l 1
 136 400 l 1
 126 388 111 382 92 382 c 0
 53 382 22 419 22 467 c 0
 22 521 53 564 117 564 c 0
 186 564 212 524 212 461 c 2
 212 98 l 1
 346 552 l 1
 478 98 l 1
 478 794 l 1
 554 794 l 1
51 470 m 0
 51 447 62 410 92 410 c 0
 116 410 135 431 135 472 c 0
 135 505 117 529 94 529 c 0
 78 529 51 510 51 470 c 0
EndSplineSet
EndChar

StartChar: uni0E20
Encoding: 192 3616 159
Width: 624
Flags: W
HStem: -9 31<61.7053 126.466> 138 32<62.4015 121.706> 429 25<158 208.373> 516 48<222.32 393.601>
VStem: 26 27<28.9837 131.475> 139 76<31.6738 128.887 151 359.125> 448 76<0 461.178>
LayerCount: 2
Back
SplineSet
524.267 0 m 1
 524.267 376.213 l 2
 524.267 442.015 502.094 490.65 457.035 522.837 c 0
 437.724 537.857 418.413 547.869 399.101 554.307 c 0
 379.789 560.743 354.041 563.605 321.14 563.605 c 0
 276.796 563.605 233.882 551.446 191.683 527.127 c 0
 168.795 513.538 150.199 499.233 138.04 484.93 c 0
 125.166 469.909 111.576 451.312 97.9873 429.141 c 1
 150.914 429.141 192.398 419.128 222.438 399.815 c 1
 166.65 384.081 139.471 345.458 139.471 282.518 c 2
 139.471 150.914 l 1
 135.18 158.066 129.457 162.358 120.875 165.219 c 0
 112.292 168.795 102.994 170.226 92.2656 170.226 c 0
 71.5234 170.226 55.7881 160.928 43.6289 143.047 c 0
 32.1855 124.451 26.4639 103.709 26.4639 80.8213 c 0
 26.4639 20.7422 57.2188 -8.58301 118.729 -8.58301 c 0
 153.06 -8.58301 177.379 0 192.398 17.8809 c 0
 207.419 35.0469 215.286 59.3643 215.286 90.835 c 2
 215.286 303.259 l 2
 215.286 325.432 221.723 344.027 233.882 359.048 c 0
 246.041 373.353 261.062 384.081 279.656 389.803 c 1
 248.187 432.717 208.134 454.175 158.066 454.175 c 1
 195.975 494.942 250.331 515.685 318.994 515.685 c 0
 361.193 515.685 393.379 502.811 415.551 477.776 c 0
 437.009 452.028 448.451 418.413 448.451 376.213 c 2
 448.451 0 l 1
 524.267 0 l 1
52.9277 80.8213 m 0
 52.9277 92.9805 56.5039 105.854 62.9404 118.729 c 0
 70.0928 131.604 79.3906 138.04 92.2656 138.04 c 0
 102.994 138.04 113.007 133.033 122.305 123.735 c 0
 131.604 114.438 135.895 100.133 135.895 80.8213 c 0
 135.895 63.6562 132.318 50.0664 124.451 38.623 c 0
 116.583 27.8945 107.285 22.1719 95.126 22.1719 c 0
 84.3975 22.1719 74.3848 27.1787 65.8018 36.4766 c 0
 57.2188 46.4902 52.9277 60.7949 52.9277 80.8213 c 0
EndSplineSet
Fore
SplineSet
524 0 m 1
 448 0 l 1
 448 376 l 2
 448 460 403 516 319 516 c 0
 250 516 196 495 158 454 c 1
 208 454 249 432 280 390 c 1
 243 378 215 349 215 303 c 2
 215 91 l 2
 215 28 187 -9 119 -9 c 0
 57 -9 26 21 26 81 c 0
 26 127 51 170 92 170 c 0
 114 170 132 164 139 151 c 1
 139 283 l 2
 139 346 167 384 223 400 c 1
 192 419 151 429 98 429 c 1
 119 498 226 564 321 564 c 0
 451 564 524 498 524 376 c 2
 524 0 l 1
136 81 m 0
 136 120 114 138 92 138 c 0
 67 138 53 105 53 81 c 0
 53 41 73 22 95 22 c 0
 119 22 136 47 136 81 c 0
EndSplineSet
EndChar

StartChar: uni0E21
Encoding: 193 3617 160
Width: 600
Flags: MW
HStem: -7 58<96.2405 181.953> 199 40<117.61 158 234 292.312> 382 28<81.9288 142.232> 529 35<83.8558 148.01>
VStem: 44 29<431.614 519.827> 54 37<53.4913 172.86> 158 76<53.4015 199 240 400 417.404 521.275> 425 76<117 554>
LayerCount: 2
Back
SplineSet
500.664 0 m 1
 500.664 552.161 l 1
 424.85 552.161 l 1
 424.85 117.299 l 1
 403.393 154.491 375.498 183.1 341.167 203.842 c 0
 306.836 223.868 271.789 236.027 234.597 240.318 c 1
 234.597 461.325 l 2
 234.597 492.797 226.015 517.83 210.279 536.426 c 0
 193.828 555.021 170.226 563.605 139.471 563.605 c 0
 107.285 563.605 82.9668 555.021 67.2324 536.426 c 0
 51.4971 517.83 43.6289 494.942 43.6289 467.049 c 0
 43.6289 442.729 50.7812 422.703 64.3711 406.254 c 0
 77.9609 390.519 94.4111 382.649 114.438 382.649 c 0
 133.033 382.649 147.338 388.373 158.066 399.815 c 1
 158.066 238.889 l 1
 88.6895 221.008 54.3574 177.379 54.3574 107.285 c 0
 54.3574 73.6689 63.6562 46.4902 83.6826 25.0332 c 0
 102.994 3.57617 128.742 -7.15234 160.928 -7.15234 c 0
 210.279 -7.15234 234.597 20.7422 234.597 77.9609 c 2
 234.597 199.55 l 1
 274.65 191.683 311.126 170.94 344.027 138.04 c 0
 377.643 104.424 402.677 58.6494 420.558 0 c 1
 500.664 0 l 1
158.066 95.126 m 2
 158.066 65.8018 146.624 51.4971 124.451 51.4971 c 0
 102.278 51.4971 90.835 68.6621 90.835 103.709 c 0
 90.835 156.637 113.007 188.821 158.066 199.55 c 1
 158.066 95.126 l 2
156.637 471.339 m 0
 156.637 451.312 152.345 435.577 144.478 425.564 c 0
 135.895 415.551 125.881 409.829 114.438 409.829 c 0
 98.7021 409.829 87.9736 416.981 82.252 431.287 c 0
 75.8145 445.591 72.9541 458.465 72.9541 469.909 c 0
 72.9541 489.936 78.6758 504.24 88.6895 514.253 c 0
 98.7021 524.267 108 528.559 115.868 528.559 c 0
 127.312 528.559 137.325 523.552 145.192 512.823 c 0
 153.06 502.094 156.637 488.505 156.637 471.339 c 0
EndSplineSet
Fore
SplineSet
501 0 m 1
 420 0 l 1
 385 117 315 183 234 199 c 1
 234 78 l 2
 234 21 209 -7 161 -7 c 0
 97 -7 54 41 54 107 c 0
 54 177 89 221 158 239 c 1
 158 400 l 1
 148 388 133 382 114 382 c 0
 75 382 44 419 44 467 c 0
 44 521 75 564 139 564 c 0
 202 564 234 524 234 461 c 2
 234 240 l 1
 309 233 382 192 425 117 c 1
 425 554 l 1
 501 554 l 1
 501 0 l 1
158 199 m 1
 113 189 91 157 91 104 c 0
 91 69 103 51 125 51 c 0
 146 51 158 66 158 95 c 2
 158 199 l 1
157 472 m 0
 157 505 139 529 116 529 c 0
 100 529 73 510 73 470 c 0
 73 447 83 410 114 410 c 0
 138 410 157 431 157 472 c 0
EndSplineSet
EndChar

StartChar: uni0E22
Encoding: 194 3618 161
Width: 543
Flags: MW
HStem: -9 31<189.952 326.179> 382 28<150.768 210.884> 529 35<145.076 209.876>
VStem: 59 76<57.3873 250.705 340.594 400 416.748 522.427> 220 29<431.614 519.827> 368 76<61.591 554>
LayerCount: 2
Back
SplineSet
444.161 113.007 m 2
 444.161 552.161 l 1
 367.631 552.161 l 1
 367.631 113.007 l 2
 367.631 84.3975 355.472 62.2256 330.438 46.4902 c 0
 305.405 30.04 278.226 22.1719 248.901 22.1719 c 0
 221.008 22.1719 195.26 30.04 172.372 46.4902 c 0
 149.484 62.2256 138.04 84.3975 138.04 113.007 c 2
 138.04 181.669 l 2
 138.04 243.896 165.934 279.656 222.438 288.239 c 0
 232.45 291.816 237.457 295.392 237.457 300.398 c 0
 236.027 306.836 231.021 310.412 221.008 310.412 c 0
 198.835 310.412 178.809 318.994 160.928 336.16 c 0
 143.762 353.326 134.464 373.353 134.464 395.525 c 2
 134.464 399.815 l 1
 145.192 388.373 160.213 382.649 178.809 382.649 c 0
 198.12 382.649 214.569 390.519 228.16 406.254 c 0
 242.464 422.703 248.901 442.729 248.901 467.049 c 0
 248.901 494.942 241.749 517.83 227.444 536.426 c 0
 213.854 555.021 190.253 563.605 158.066 563.605 c 0
 123.735 563.605 98.7021 555.021 82.9668 536.426 c 0
 66.5166 517.83 58.6494 492.797 58.6494 461.325 c 2
 58.6494 405.537 l 2
 58.6494 378.359 65.8018 355.472 80.8213 337.591 c 0
 95.126 319.71 120.159 305.405 155.206 296.106 c 1
 122.305 285.378 97.9873 270.358 83.6826 251.048 c 0
 68.6621 232.45 61.5098 208.134 61.5098 178.809 c 2
 61.5098 113.007 l 2
 61.5098 92.2656 66.5166 74.3848 75.8145 58.6494 c 0
 85.8281 42.9141 102.278 29.3242 125.881 17.8809 c 0
 143.762 10.0137 163.073 3.57617 183.814 -1.43066 c 0
 204.557 -6.4375 226.729 -8.58301 250.331 -8.58301 c 0
 273.219 -8.58301 293.962 -6.4375 313.987 -1.43066 c 0
 334.014 3.57617 354.041 10.0137 373.353 17.8809 c 0
 420.558 40.7686 444.161 72.9541 444.161 113.007 c 2
135.895 471.339 m 0
 135.895 488.505 140.186 502.094 148.053 512.823 c 0
 155.921 523.552 165.219 528.559 177.379 528.559 c 0
 185.246 528.559 193.828 524.267 204.557 514.253 c 0
 214.569 504.24 219.576 489.936 219.576 469.909 c 0
 219.576 458.465 216.716 445.591 210.994 431.287 c 0
 205.272 416.981 194.543 409.829 178.809 409.829 c 0
 166.65 409.829 156.637 415.551 148.768 425.564 c 0
 140.186 435.577 135.895 451.312 135.895 471.339 c 0
EndSplineSet
Fore
SplineSet
237 300 m 0
 237 278 138 302 138 182 c 2
 138 113 l 2
 138 56 192 22 249 22 c 0
 308 22 368 56 368 113 c 2
 368 554 l 1
 444 554 l 1
 444 113 l 2
 444 22 320 -9 250 -9 c 0
 204 -9 161 1 126 18 c 0
 79 41 62 72 62 113 c 2
 62 179 l 2
 62 237 89 274 155 296 c 1
 85 315 59 352 59 406 c 2
 59 461 l 2
 59 524 89 564 158 564 c 0
 223 564 249 521 249 467 c 0
 249 419 218 382 179 382 c 0
 160 382 145 388 135 400 c 1
 135 395 l 2
 135 350 176 311 221 311 c 0
 231 311 236 308 237 300 c 0
220 470 m 0
 220 510 193 529 177 529 c 0
 154 529 136 505 136 472 c 0
 136 431 155 410 179 410 c 0
 209 410 220 447 220 470 c 0
EndSplineSet
EndChar

